<svg xmlns="http://www.w3.org/2000/svg" fill="none" viewBox="0 0 500 500" id="Fine-Dining--Streamline-Manchester.svg" height="500" width="500"><desc>Fine Dining Streamline Illustration: https://streamlinehq.com</desc><g id="fine-dining--leisure-food-fine-dining"><g id="glass"><path id="vector" fill="#ffffff" d="M229.02999999999997 105.82499999999999v115.015c0 16.38 13.680000000000001 29.8775 30.2375 29.8775v99.35499999999999h-5.9399999999999995c-3.5999999999999996 0 -6.66 3.06 -6.66 6.66h32.2175c0 -3.5999999999999996 -3.06 -6.66 -6.66 -6.66h-5.4v-99.7175c16.655 -0.0975 30.057499999999997 -13.7375 30.057499999999997 -30.2375V105.82499999999999H229.025h0.005Z" stroke-width="1"></path><path id="vector_2" fill="#ff7449" d="M237.67 153.885v61.7375c0 14.04 11.34 25.560000000000002 25.560000000000002 25.560000000000002 14.04 0 25.5575 -11.34 25.5575 -25.560000000000002V153.885H237.67Z" stroke-width="1"></path><path id="vector_3" fill="#501200" d="M278.89 357.98499999999996H246.67000000000002c-3.1175 0 -0.42999999999999994 -9.16 6.66 -9.16h4.6899999999999995v-97.21000000000001c-15.56 -0.11499999999999999 -30.240000000000002 -13.4375 -30.240000000000002 -30.955V105.82499999999999c0 -0.6900000000000001 0.56 -1.25 1.25 -1.25h68.0375c0.6900000000000001 0 1.25 0.56 1.25 1.25v114.475c0 16.9425 -13.3725 30.805 -30.057499999999997 31.4675v97.0575h3.97c7.09 0 9.772499999999999 9.16 6.66 9.16Zm-30.8175 -2.5h29.415c-0.5800000000000001 -2.3525 -2.7550000000000003 -4.16 -5.2575 -4.16h-5.220000000000001c-0.6900000000000001 0 -1.25 -0.56 -1.25 -1.25v-99.5325c0 -0.6900000000000001 0.56 -1.25 1.25 -1.25 15.885 0 28.807499999999997 -13.004999999999999 28.807499999999997 -28.9925V107.07499999999999H230.27999999999997v113.585c0 16.552500000000002 14.325000000000001 29.049999999999997 28.94 28.4375 0.71 -0.027499999999999997 1.3 0.5375 1.3 1.25v99.73c0 0.6900000000000001 -0.56 1.25 -1.25 1.25h-5.9399999999999995c-2.5024999999999995 0 -4.6775 1.805 -5.2575 4.16v-0.0025Z" stroke-width="1"></path></g><path id="eifel" fill="#501200" d="M217.3325 331.71750000000003c-6.597499999999999 -9.7625 -13.86 -20.16 -17.1 -31.3175 -0.36 -1.7999999999999998 -1.585 -4.8425 -0.72 -6.48 1.315 -2.4925 6.237500000000001 -1.12 7.92 -3.5999999999999996 0.8674999999999999 -1.28 0 -3.7800000000000002 -0.18 -5.220000000000001 0 -1.26 -0.36 -2.3400000000000003 -0.72 -3.4200000000000004 -2.3400000000000003 -4.859999999999999 -12.615 -4.4825 -16.56 -8.64 -8.6775 -9.145 -13.622499999999999 -29.4925 -16.02 -41.3975 -1.5175 -7.545 3.305 -3.02 6.3 -7.74 1.4725 -2.3200000000000003 0.555 -5.404999999999999 -0.18 -7.74 -1.7625 -5.5925 -9.895 -0.905 -13.5 -2.88 -1.9775 -1.0825 -2.5075 -7.9225 -2.88 -9.719999999999999 -8.0375 -38.93 -9.9125 -79.375 -13.680000000000001 -118.795 -0.7224999999999999 -7.5600000000000005 -1.3925 -15.302500000000002 -1.7999999999999998 -22.86 -1.0025 -18.625 -8.887500000000001 -16.4675 -9 -4.14 -0.2975 32.715 -3.2125 81.51249999999999 -5.58 104.57499999999999 -1.4224999999999999 13.86 -2.1149999999999998 28.75 -6.66 41.9375 -0.7424999999999999 2.1525 -1.43 5.4174999999999995 -3.5999999999999996 6.66 -2.8675 1.6425 -9.512500000000001 -2.3375000000000004 -10.440000000000001 7.5600000000000005 -0.875 9.3625 7.015000000000001 5.76 6.48 9.719999999999999 -1.6325 12.057500000000001 -8.7475 27.4825 -14.219999999999999 38.1575 -1.835 3.5825 -3.9675 8.0875 -7.5600000000000005 10.08 -6.132499999999999 3.4000000000000004 -11.147499999999999 0.545 -13.680000000000001 8.82 -1.9125 6.2475000000000005 13.317499999999999 8.3325 13.680000000000001 9.360000000000001 1.205 3.4375 -4.8375 14.407499999999999 -5.9399999999999995 17.64 -4.0600000000000005 11.907499999999999 -9.495000000000001 23.3225 -15.66 34.3775 -9.290000000000001 16.6625 -9.42 16.5475 -8.64 16.919999999999998 3.5675 1.6925000000000001 10.6325 -0.63 14.399999999999999 -1.26 4.699999999999999 -0.7875 9.54 -1.7999999999999998 14.219999999999999 -2.88 1.08 -0.36 4.5 -0.36 5.4 -1.26 2.3674999999999997 -2.8925 0.5625 -9.3325 13.5 -32.3975 3.7800000000000002 -5.9399999999999995 9 -10.620000000000001 15.120000000000001 -13.680000000000001 9.54 -4.14 38.362500000000004 -4.6899999999999995 46.2575 13.14 2.7075 6.115 3.625 12.815000000000001 5.220000000000001 19.259999999999998 0.49250000000000005 1.9925000000000002 0.72 6.3 2.3400000000000003 7.5600000000000005 1.7999999999999998 1.62 7.74 -0.72 9.719999999999999 -1.26 7.5600000000000005 -1.62 15.129999999999999 -3.0225 22.68 -5.04 1.9825000000000002 -0.53 6.334999999999999 -1.24 7.38 -3.24 1.3050000000000002 -2.4975 -5.21 -9.1875 -6.3 -10.8h0.0025Zm-50.5775 -54.177499999999995c-0.36 0.36 -28.955000000000002 0 -42.0925 0 0.42500000000000004 -0.8775 7.215 -17.6525 11.6725 -37.0775 0.3725 -1.6175000000000002 0.535 -5.9475 1.98 -7.199999999999999 1.255 -1.0875 14.924999999999999 -0.5175 17.1 0.72 2.8699999999999997 1.6325 3.9975 16.634999999999998 9.9 37.6175 0.18 0.8999999999999999 1.98 5.220000000000001 1.44 5.9399999999999995Z" stroke-width="1"></path><g id="bottle"><path id="vector_4" fill="#ffffff" d="M379.685 114.645h-4.665l-0.015 -45.7175h-23.4v45.7075l-9 0.01c-10.440000000000001 0 -19.08 8.459999999999999 -19.08 19.08v201.7725c0 5.220000000000001 4.32 9.54 9.54 9.54h55.97749999999999c5.220000000000001 0 9.54 -4.32 9.54 -9.54V133.725c0.18 -10.620000000000001 -8.459999999999999 -19.08 -18.9 -19.08h0.0025Z" stroke-width="1"></path><path id="vector_5" fill="#fccac2" d="M398.585 181.78249999999997v105.83500000000001h-55.0775V181.78249999999997h55.0775Z" stroke-width="1"></path><path id="vector_6" fill="#501200" d="M379.505 113.395h-3.25V27.349999999999998c0 -3.9300249999999997 -3.0775 -7.010025 -7.01 -7.010025h-12.059999999999999c-3.93 0 -7.01 3.0775 -7.01 7.010025v86.045h-7.57c-11.21 0 -20.33 9.120000000000001 -20.33 20.33v201.76999999999998c0 5.949999999999999 4.84 10.79 10.79 10.79h55.97749999999999c5.949999999999999 0 10.79 -4.84 10.79 -10.79V133.725c0 -11.21 -9.120000000000001 -20.33 -20.33 -20.33h0.0025Zm17.83 222.10000000000002c0 4.4925 -3.7975 8.29 -8.29 8.29h-55.97749999999999c-4.4925 0 -8.29 -3.7975 -8.29 -8.29V133.725c0 -9.8325 7.9975 -17.83 17.83 -17.83h8.64c0.9625 0 1.43 -1.0075 1.43 -1.9700000000000002V70.17750000000001h21.080000000000002v43.9275c0 0.745 0.4675 1.79 1.43 1.79h4.32c9.8325 0 17.83 7.9975 17.83 17.83v201.76999999999998h-0.0025Z" stroke-width="1"></path></g><g id="plate"><path id="vector_7" fill="#ffffff" d="M248.47000000000003 308.3175c110.33500000000001 0 199.79250000000002 39.4175 199.79250000000002 87.83749999999999s-89.63499999999999 87.83749999999999 -199.79250000000002 87.83749999999999 -199.79250000000002 -39.4175 -199.79250000000002 -87.83749999999999c0 -48.417500000000004 89.45499999999998 -87.83749999999999 199.79250000000002 -87.83749999999999Z" stroke-width="1"></path><path id="vector_8" fill="#501200" d="M248.47000000000003 485.24c-110.85499999999999 0 -201.04250000000002 -39.9625 -201.04250000000002 -89.08500000000001s90.1875 -89.08749999999999 201.04250000000002 -89.08749999999999 201.04250000000002 39.965 201.04250000000002 89.08749999999999c0 49.1225 -90.1875 89.08500000000001 -201.04250000000002 89.08500000000001Zm0 -175.6725c-109.47749999999999 0 -198.54250000000002 38.8425 -198.54250000000002 86.58749999999999s89.065 86.58500000000001 198.54250000000002 86.58500000000001c109.47749999999999 0 198.54250000000002 -38.8425 198.54250000000002 -86.58500000000001s-89.065 -86.58749999999999 -198.54250000000002 -86.58749999999999Z" stroke-width="1"></path><path id="vector_9" fill="#501200" d="M335.87 443.81c-0.22249999999999998 -0.6525000000000001 -0.9325 -1.0075 -1.585 -0.78 -47.192499999999995 16.0725 -108.38 17.3075 -157.5275 5.905 -0.6575 -0.155 -1.3450000000000002 0.2625 -1.5 0.9375 -0.155 0.6725000000000001 0.2625 1.3450000000000002 0.9375 1.5 49.995000000000005 11.5975 111.61 10.129999999999999 158.89749999999998 -5.9750000000000005 0.6525000000000001 -0.22249999999999998 1.0025 -0.9325 0.78 -1.585l-0.0025 -0.0025Z" stroke-width="1"></path></g><g id="meat"><path id="vector_10" fill="#ffffff" d="M310.1175 352.255c-4.415 -10.7475 -23.62 -19.0475 -31.589999999999996 -24.4975 -14.96 -10.229999999999999 -31.3475 -23.122500000000002 -48.777499999999996 -28.26 -22.174999999999997 -6.535 -49.8475 -2.6950000000000003 -60.1175 20.16 -3.2375 7.2025 -4.66 15.1175 -3.96 23.04 0.8775 9.9325 4.13 20.815 10.26 29.16 18.755 25.5325 58.6875 24.005000000000003 87.83749999999999 19.62 12.965 -1.9500000000000002 30.957499999999996 -3.24 40.4975 -14.04 5.2475000000000005 -5.2475000000000005 -1.4825 -10.947499999999998 -8.82 -12.059999999999999 -9.0125 -1.3650000000000002 -17.65 -1.2349999999999999 -26.28 -5.04 -3.245 -1.43 -8.265 -3.9575 -7.92 -8.100000000000001 0.375 -4.4975 6.3 -5.0424999999999995 9.719999999999999 -4.859999999999999 13.89 0.745 29.49 10.0575 36.3125 11.020000000000001 4.1275 0.5825 4.362500000000001 -2.4299999999999997 2.8375 -6.1425Z" stroke-width="1"></path><path id="vector_11" fill="#ff7449" d="M268.99 359.975c8.6275 3.805 17.28 3.5999999999999996 26.28 5.04 7.3950000000000005 0.74 11.2025 6.9775 10.627500000000001 6.2275 7.8149999999999995 -4.88 8.6525 -10.9 4.6725 -17.025 0.22999999999999998 1.7974999999999999 0.7074999999999999 3.975 -1.73 4.327500000000001 -5.2325 0.7575 -21.865000000000002 -10.657499999999999 -38.2275 -11.5275 -3.4200000000000004 -0.1825 -9.4425 0.355 -9.719999999999999 4.859999999999999 -0.255 4.135 4.8549999999999995 6.67 8.100000000000001 8.100000000000001l-0.0025 -0.0025Z" stroke-width="1"></path><path id="vector_12" fill="#ff7449" d="M305.8875 372.575c0 1.62 -0.72 3.24 -1.7999999999999998 4.32 -9.54 10.8 -27.54 12.05 -40.4975 14.04 -29.162499999999998 4.4775 -69.11749999999999 6.12 -87.83749999999999 -19.62 0.18 0.8999999999999999 1.08 3.4200000000000004 1.26 3.5999999999999996 4.680000000000001 10.8 12.96 19.8 23.4 25.38 24.3 11.34 60.2775 8.015 85.31750000000001 1.7999999999999998 16.904999999999998 -4.1975 30.597500000000004 -11.7 21.06 -29.697499999999998l-0.8999999999999999 0.18 -0.0025 -0.0025Z" stroke-width="1"></path><path id="vector_13" fill="#501200" d="M219.615 350.7c-2.5824999999999996 -3.2275 -1.81 -6.705 -1.2650000000000001 -7.975 4.3525 -10.14 25.04 -2.5725 19.515 7.415000000000001 -3.37 6.545 -13.7425 5.9225 -18.25 0.56Zm1.0325 -6.985c-2.8775 7.6225 11.425 12.21 15.015 5.2475000000000005 3.8375 -6.949999999999999 -11.895 -12.12 -15.015 -5.2475000000000005Z" stroke-width="1"></path><path id="vector_14" fill="#501200" d="M311.8825 353.78c-2.4299999999999997 -9.370000000000001 -15.5875 -16.9025 -25.225 -22.42 -18.03 -10.317499999999999 -35.4325 -26.785 -56.5475 -32.879999999999995 -22.177500000000002 -6.67 -50.917500000000004 -2.995 -61.61749999999999 20.8425 -7.99 17.7525 -3.75 39.5225 6.494999999999999 53.235 4.265 12.629999999999999 13.78 23.01 25.075 29.0475 24.3275 11.352500000000001 59.8625 8.4875 86.1425 2.0625 20.275 -4.96 31.6425 -14.225000000000001 21.4525 -32.245 5.8375 -3.2525 8.635 -10.442499999999999 4.225 -17.642500000000002Zm-140.725 6.9975c-5.2675 -13.3725 -6.2825 -27.32 -0.3825 -40.427499999999995 10.082500000000001 -22.4625 37.455 -25.837500000000002 58.63 -19.47 20.567500000000003 5.9350000000000005 38.144999999999996 22.4175 56.01 32.6525 8.045 4.605 18.645 10.67 22.6975 17.6625 4.6000000000000005 7.935 0.1375 7.029999999999999 -6.8525 3.99 -1.44 -0.6225 -0.22999999999999998 -0.1 -5.220000000000001 -2.1125 -8.115 -3.27 -16.5075 -6.65 -25.1825 -7.125 -6.5925 -0.35000000000000003 -10.705 1.9 -11.0325 6 -0.4625 5.2975 5.93 8.1375 8.665000000000001 9.355 8.844999999999999 3.87 17.265 3.675 26.662499999999998 5.1375 5.7675 0.55 12.5675 5.225 8.0025 9.807500000000001 -9.155 10.362499999999999 -26.8375 11.66 -39.745 13.629999999999999 -36.5675 5.42 -77.99000000000001 4.7875 -92.25 -29.1h-0.0025Zm114.45499999999998 40.4625c-25.5075 6.2425 -61.0975 9.02 -84.42999999999999 -1.8675 -8.89 -4.75 -16.21 -12.08 -20.9625 -20.8975 11.487499999999999 10.962499999999999 28.8675 16.3975 52.584999999999994 16.3975 14.215 0 25.6875 -1.7999999999999998 35.705 -3.2 12.379999999999999 -1.7325 27.7875 -3.8874999999999997 36.46 -13.71 0.7975 -0.7975 1.4050000000000002 -1.7974999999999999 1.77 -2.875 7.2124999999999995 15.382499999999999 -4.575 22.105 -21.13 26.155l0.0025 -0.0025Zm20.425 -31.7875c-0.07 -0.125 -0.17250000000000001 -0.28250000000000003 -0.3125 -0.42999999999999994 -2.79 -2.8875 -6.3125 -4.6875 -10.26 -5.0625 -9.185 -1.44 -17.5425 -1.2625 -25.964999999999996 -4.9475 -3.4875 -1.55 -7.4525 -3.73 -7.182500000000001 -6.8575 0.3075 -3.835 6.505 -3.8024999999999998 8.405000000000001 -3.7125000000000004 8.26 0.4525 16.4575 3.7524999999999995 24.3825 6.9475 1.355 0.545 4.6975 1.885 5.16 2.085 3.1975 1.3875000000000002 8.735000000000001 3.8024999999999998 11.0525 1.3425 1.065 4.6975 -1.6025 8.79 -5.2825 10.629999999999999l0.0025 0.005Z" stroke-width="1"></path></g><g id="sauce"><path id="vector_15" fill="#ffb949" d="M352.145 345.935c13.919999999999998 6.8999999999999995 36.2325 23.965 28.26 41.5775 -3.755 8.2925 -12.192499999999999 14.0175 -20.880000000000003 16.56 -1.9700000000000002 0.5750000000000001 -6.8100000000000005 2.48 -8.82 1.08 -2.045 -1.4249999999999998 4.282500000000001 -5.5649999999999995 7.92 -9.9 4.1925 -4.995 4.77 -12.017500000000002 2.16 -17.82 -4.6625 -10.3675 -15.11 -14.41 -23.4 -21.06 -2.6975 -2.1625 -9.0725 -7.2275 -7.5600000000000005 -11.16 2.5774999999999997 -6.7075 16.405 -2.2125 22.32 0.72v0.0025Z" stroke-width="1"></path><path id="vector_16" fill="#ffb949" d="M208.6925 430.7125c1.4375 0.3725 15.155000000000001 3.81 12.24 7.38 -1.7774999999999999 2.1775 -6.48 2.3275 -8.82 2.52 -8.2825 0.6775 -16.5675 0.59 -24.660000000000004 -0.72 -21.44 -3.4699999999999998 -51.0575 -10.1375 -66.7775 -26.28 -9.325 -9.575 -16.74 -29.16 -7.5600000000000005 -40.317499999999995 2.52 -3.5999999999999996 6.48 -5.6625000000000005 10.8 -5.76 7.925 -0.18 18.54 1.44 23.94 7.92 7.2675 8.72 3.8600000000000003 28.177500000000002 18 39.597500000000004 12.05 9.7325 28.045 11.825000000000001 42.837500000000006 15.66Z" stroke-width="1"></path></g><g id="spark"><path id="vector_17" fill="#ffb949" d="M470.58 245.85975000000002c-2.88 -8.82 -0.36 -18.54 3.06 -25.019999999999996 -3.4200000000000004 6.48 -9.9 14.219999999999999 -18.720000000000002 16.919999999999998 -8.82 2.88 -18.54 0.36 -25.019999999999996 -3.06 6.48 3.4200000000000004 14.219999999999999 9.9 16.919999999999998 18.72025 2.88 8.82 0.36 18.54 -3.06 25.019999999999996 3.4200000000000004 -6.48 9.9 -14.219999999999999 18.720000000000002 -16.919999999999998 8.82 -2.88 18.54 -0.36 25.0175 3.06 -6.48 -3.4200000000000004 -14.219999999999999 -9.9 -16.919999999999998 -18.72025h0.0025Z" stroke-width="1"></path><path id="vector_18" fill="#ffb949" d="M211.7525 38.50725c-6.959999999999999 -5.5675 -10.387500000000001 -14.667375 -11.2575 -21.769875 0.7424999999999999 7.2924999999999995 -0.4475 16.784875 -6.02 23.749875 -5.76 7.199999999999999 -15.120000000000001 10.440000000000001 -22.5 11.34 7.38 -0.8999999999999999 17.28 0.18 24.48 5.9399999999999995s10.440000000000001 15.120000000000001 11.34 22.5c-0.8999999999999999 -7.38 0.18 -17.28 5.9399999999999995 -24.48s15.120000000000001 -10.440000000000001 22.5 -11.34c-7.38 0.8999999999999999 -17.28 -0.18 -24.48 -5.9399999999999995h-0.0025Z" stroke-width="1"></path><path id="vector_19" fill="#ffb949" d="M41.03 246.8775c0.72 7.2775 -0.48750000000000004 16.71 -6.0325 23.64 -5.76 7.199999999999999 -15.120024999999998 10.440000000000001 -22.500025 11.34 7.38 -0.8999999999999999 17.280025000000002 0.18 24.480024999999998 5.9399999999999995 7.199999999999999 5.76 10.440000000000001 15.120000000000001 11.34 22.5 -0.8999999999999999 -7.38 0.18 -17.28 5.9399999999999995 -24.48s15.120000000000001 -10.440000000000001 22.5 -11.34c-18.6175 2.27 -33.3425 -7.9125 -35.7275 -27.599999999999998Z" stroke-width="1"></path></g></g></svg>