<svg xmlns="http://www.w3.org/2000/svg" fill="none" viewBox="0 0 500 500" id="Minutes-Of-Meeting--Streamline-Manchester.svg" height="500" width="500"><desc>Minutes Of Meeting Streamline Illustration: https://streamlinehq.com</desc><g id="minutes-of-meeting--Work-minutes-of-meeting"><g id="paper"><path id="vector" fill="#ffffff" d="m273.71 177.273 -182.76524999999998 -15.34 21.589999999999996 248.1045s177.84775 14.584999999999999 180.30275 9.280000000000001c1.1400000000000001 -2.46 -19.13 -242.04450000000003 -19.13 -242.04450000000003h0.0025Z" stroke-width="1"></path><path id="vector_2" fill="#ff7449" d="M155.76 201.4c0.755 0.6675 1.4925 1.1275 2.3175 1.4575 6.797499999999999 2.835 14.275 2.98 21.17 0.395 6.825 7.085 30.0375 1.1300000000000001 29.0325 -5.89 -0.0975 -0.6825000000000001 -0.7324999999999999 -1.155 -1.4124999999999999 -1.06 -0.6825000000000001 0.0975 -1.1575 0.73 -1.06 1.4149999999999998 0.13 0.9125 -1.6475 2.66 -5.84 4.3375 -4.6175 1.7774999999999999 -14.212499999999999 3.0575 -18.294999999999998 0.005 3.7 -1.855 7.5600000000000005 -5.300000000000001 6.2924999999999995 -8.8925 -2.2225 -6.6674999999999995 -13.0675 2.6725 -10.0575 7.9174999999999995 -6.15 2.1775 -12.7975 1.9975 -18.885 -0.5375 -1.01 -0.3975 -0.4525 0.065 2.165 -1.805 3.2474999999999996 -2.36 5.9225 -5.9975000000000005 3.7025 -9.105 -4.0375 -5.8725000000000005 -15.875 2.2175000000000002 -10.9675 9.7675 -5.4875 1.825 -12.264999999999999 1.8199999999999998 -17.585 -0.885 4.74 -1.3175000000000001 7.3325 -3.7375000000000003 7.555 -6.925 0.41500000000000004 -5.902500000000001 -9.0975 -6.385 -12.855 -2.3200000000000003 -3.13 3.3925 -0.3375 7.5525 -0.125 7.8425 -3.43 0.3125 -9.0175 0.6325000000000001 -12.330000000000002 -0.315 -2.12 -1.065 -1.7325 -1.2850000000000001 -2.6550000000000002 -1.2675 -1.33 0.025 -1.7025000000000001 1.7874999999999999 -0.545 2.3674999999999997 0.9450000000000001 0.475 1.165 0.6950000000000001 2.285 1.2175 4.215 1.2650000000000001 10.9175 0.81 15.29 0.3025 4.63 3.635 14.232499999999998 5.234999999999999 22.802500000000002 1.985v-0.0075Zm29.3425 -8.0325c0.0925 0.0175 0.3125 0.057499999999999996 0.495 0.6074999999999999 0.73 2.0725 -2.6275 4.635 -5.194999999999999 5.93 -0.075 0.05 -0.1475 0.0975 -0.21499999999999997 0.14 -0.07 -0.135 -0.1475 -0.27 -0.23249999999999998 -0.40750000000000003 -0.6925000000000001 -2.315 3.37 -6.615 5.147500000000001 -6.27Zm-28.457499999999996 -1.055c1.035 -1.1500000000000001 3.1125000000000003 -2.31 4.57 -2.1925 0.6975 0.045 1.21 0.34 1.6275 0.9450000000000001 1.5675 2.195 -2.9349999999999996 5.510000000000001 -3.12 5.6425 -0.9575 0.685 -2.0975 1.3075 -3.3325 1.8275 -1.6 -1.8599999999999999 -1.36 -4.4775 0.2525 -6.2250000000000005l0.0025 0.0025Zm-23.7675 -1.3475000000000001c2.245 -2.4299999999999997 8.7375 -2.6325 8.522499999999999 0.4475 -0.22749999999999998 3.2750000000000004 -5.05 4.6450000000000005 -7.76 5.1525 -0.31 -0.3725 -0.42750000000000005 -0.5725 -0.8799999999999999 -1.1425 -0.9850000000000001 -1.81 -0.9450000000000001 -3.31 0.11499999999999999 -4.46l0.0025 0.0025Z" stroke-width="1"></path><path id="vector_3" fill="#ff7449" d="M196.20999999999998 316.21500000000003c2.8549999999999995 -2.0825 6.3825 -5.5125 6.550000000000001 -8.94 0.17 -3.3975 -3.6175 -6.6025 -7.915 -4.38 -3.18 1.6500000000000001 -5.625 5.5825000000000005 -5.3374999999999995 8.5825 0.1575 1.7274999999999998 0.8724999999999999 3.3375 1.965 4.54 -5.925000000000001 2.62 -13.3275 3.4925 -18.26 0.72 4.2625 -2.1225 7.005 -5.3025 7.6049999999999995 -9.185 0.9450000000000001 -6.125 -8.975 -6.175000000000001 -13.0375 -1.0875 -2.33 2.92 -1.6475 6.5 0.66 9.435 -6.235 1.815 -16.485 1.8275 -19.87 -2.2625 4.03 -0.8 6.9399999999999995 -2.8025 8.43 -5.655 0.9099999999999999 -1.7425 0.7274999999999999 -3.415 -0.5700000000000001 -4.525 -3.8200000000000003 -3.2575 -14.5825 -0.20750000000000002 -11.8525 8.06 -3.4074999999999998 0.10999999999999999 -6.0875 -0.03 -8.4725 -0.42750000000000005 -2.9325 -0.7324999999999999 -5.9624999999999995 -1.49 -8.715 -2.5925 -0.6425000000000001 -0.2575 -1.3675000000000002 0.05499999999999999 -1.6225 0.6975 -0.2575 0.64 0.052500000000000005 1.3675000000000002 0.6950000000000001 1.625 2.9099999999999997 1.165 6.025 1.9425000000000001 9.16 2.7225 3.345 0.5575 6.74 0.5800000000000001 10.129999999999999 0.42999999999999994 0.5025000000000001 0.8 1.0975 1.635 1.9700000000000002 2.33 5.1425 4.25 15.702499999999999 4.0125 22.712500000000002 1.59 6.2325 4.8175 16.212500000000002 3.3400000000000003 23.272499999999997 -0.16 5.859999999999999 3.5549999999999997 16.9925 2.6525 21.512500000000003 -1.0425 0.535 -0.4375 0.6125 -1.225 0.17500000000000002 -1.7599999999999998 -0.4375 -0.535 -1.2225 -0.6125 -1.7574999999999998 -0.1775 -3.4175 2.7950000000000004 -12.195 3.73 -17.427500000000002 1.4625Zm-41.4025 -10.854999999999999c0.17 0.1475 0.5125 0.4425 -0.0225 1.4649999999999999 -1.55 2.9675000000000002 -4.805 4.12 -7.6075 4.515000000000001 -2.6550000000000002 -6.24 5.637499999999999 -7.6825 7.63 -5.9825v0.0025Zm23.54 1.8125c-0.6675 4.3375 -4.6525 6.6925 -7.3625 7.835 -7.865 -8.2375 8.067499999999999 -12.417499999999999 7.3625 -7.835Zm21.065 -1.865c2.8825000000000003 2.4475 -2.3674999999999997 7.4750000000000005 -5.5775 9.512500000000001 -1.0174999999999998 -0.81 -1.705 -2.125 -1.835 -3.5775 -0.295 -3.0875000000000004 4.5 -8.4375 7.415000000000001 -5.9375l-0.0025 0.0025Z" stroke-width="1"></path><path id="vector_4" fill="#ff7449" d="M244.6325 352.975c-0.135 -0.6775 -0.795 -1.12 -1.47 -0.98 -2.18 0.43499999999999994 -4.2675 0.38 -5.9475 0.0225 3.1025 -1.9675 4.37 -4.205 3.585 -6.4025 -1.7525 -5.084999999999999 -9.655000000000001 -2.4775 -10.6675 2.1225 -0.21749999999999997 0.99 -0.22499999999999998 2.68 1.48 4.29 -4.765 1.885 -10.674999999999999 2.5700000000000003 -15.0475 0.385 2.8025 -1.4000000000000001 6.1125 -4.5175 6.8325000000000005 -7.32 0.8175 -3.1774999999999998 -1.6175000000000002 -6.4375 -5.335 -5.925000000000001 -5.3225 0.73 -10.1475 7.720000000000001 -6.2 12.6875 -9.5275 3.73 -18.2025 1.5 -21.215000000000003 -1.5675 0.6900000000000001 -0.2725 2.82 -1.7574999999999998 3.865 -2.8475 2.04 -2.125 1.245 -3.58 0.8300000000000001 -4.085 -2.175 -2.6500000000000004 -10.6025 0.052500000000000005 -8.545 5.797499999999999 -5.6499999999999995 1.7674999999999998 -14.4475 1.845 -18.6125 -1.3275000000000001 1.25 -0.5700000000000001 6.8999999999999995 -3.3200000000000003 7.9475 -6.9875 0.8775 -3.075 -2.0524999999999998 -6.840000000000001 -6.4025 -5.5925 -3.3425 0.9575 -6.477500000000001 4.37 -6.5525 7.37 -0.0375 1.525 0.275 2.8649999999999998 0.8175 4.0075 -6.4975000000000005 2.015 -14.719999999999999 2.2625 -19.657500000000002 -1.4825 2.4125 -0.8699999999999999 4.8175 -2.255 7.0975 -4.245 2.9125 -2.5424999999999995 5.0024999999999995 -7.1225000000000005 2.0825 -9.8125 -6.2225 -5.58 -16.175 5.0975 -13.287500000000001 12.5975 -2.3825 0.5974999999999999 -5.117500000000001 0.9099999999999999 -8 0.9099999999999999 -2.9775 0 -4.8775 -0.3525 -5.435 -0.6375 -0.42500000000000004 -1.36 -2.4425 -1.05 -2.4425 0.3725 0 1.2875 0.895 2.765 7.8774999999999995 2.765 3.3800000000000003 0 6.59 -0.40750000000000003 9.34 -1.18 2.9 3.4175 8.7225 4.6274999999999995 13.265 4.6274999999999995 3.665 0 7.4025 -0.6775 10.665 -1.77 4.7749999999999995 5.135 16.2225 4.7675 22.72 2.55 3.5575 4.4375 14.1875 7.47 25.6925 2.4074999999999998 0.06 0.06 0.135 0.12 0.20750000000000002 0.1675 5.7275 3.7475000000000005 13.85 2.6750000000000003 20.015 -0.22999999999999998 2.9575 1.275 6.4925 1.3925 9.512500000000001 0.79 0.6775 -0.135 1.1175 -0.7925 0.9825 -1.47l0.0025 -0.0075Zm-92.79249999999999 -20.0475c1.615 1.49 -0.48750000000000004 4.7225 -2.0425 6.08 -2.29 2 -4.7075 3.3225 -7.112500000000001 4.045 -2.375 -5.205 5.0649999999999995 -13.795 9.155 -10.125Zm21.604999999999997 5.6674999999999995c1.8074999999999999 2.5824999999999996 -4.282500000000001 6.254999999999999 -7.022500000000001 7.27 -0.49250000000000005 -0.8599999999999999 -0.775 -1.94 -0.745 -3.1875 0.0675 -2.7550000000000003 5.57 -7.24 7.765 -4.08l0.0025 -0.0025Zm16.4425 7.195c1.2875 -1.0174999999999998 3.18 -1.1 3.4525 -1.045 -0.045 0.76 -2.0425 2.1925 -3.5275 3.1824999999999997 -0.22749999999999998 0.08750000000000001 -0.4575 0.1925 -0.685 0.305 -0.3325 -0.99 -0.08750000000000001 -1.7725 0.76 -2.4425Zm28.975 -4.18c1.51 0 2.49 1.3975000000000002 2.1174999999999997 2.86 -0.5025000000000001 1.955 -3.0925000000000002 4.335 -5.2125 5.547499999999999l-1.5175 0.76c-3.685 -3.6825 1.185 -9.1675 4.615 -9.1675h-0.0025Zm13.7125 6.665c0.495 -2.245 5.02 -4.305 5.8675 -1.83 0.505 1.41 -1.7474999999999998 3.1374999999999997 -4.2575 4.4174999999999995 -0.9650000000000001 -0.6125 -1.85 -1.4925 -1.61 -2.5875Z" stroke-width="1"></path><path id="vector_5" fill="#ff7449" d="M236.3825 386.6925c-4.2975 1.4449999999999998 -9.045 3.46 -12.3775 0.63 0.9925 -0.78 1.9775 -1.655 2.9175 -2.6 1.1375 -1.3 3.5225 -5.6775 2.4025 -8.295 -0.29000000000000004 -0.6775 -1.08 -1.8775 -3.1550000000000002 -1.9225 -5.775 -0.125 -8.0225 7.02 -5.64 12.192499999999999 -4.8475 2.92 -11.19 4.17 -15.59 1.625 4.0825 -2.2175000000000002 8.0725 -6.0975 5.862500000000001 -10.1125 -3.66 -7.069999999999999 -15.435 2.335 -10.2675 9.365 -6.0325 2.1325 -13.86 2.44 -18.955 -2.0100000000000002 0.7174999999999999 -0.35000000000000003 1.355 -0.7474999999999999 1.8625 -1.1625 1.3175000000000001 -0.7925 2.29 -1.7000000000000002 2.79 -2.555 2.0575 -2.535 1.3625 -4.1675 0.765 -4.915 -2.51 -3.1475 -11.3075 -0.6025 -9.5775 6.3225 0.035 0.14 0.095 0.27 0.17250000000000001 0.39 0.10749999999999998 0.1625 0.20750000000000002 0.38 0.31 0.6325000000000001 -4.5200000000000005 1.5074999999999998 -11.957500000000001 1.0025 -15.862499999999999 -1.5474999999999999 3.725 -1.6275 7.755 -5.205 6.8225 -9.1625 -1.3900000000000001 -5.797499999999999 -9.190000000000001 -3.31 -11.235 1.0574999999999999 -1.0474999999999999 2.24 -1.0274999999999999 4.845 0.1325 7.0825000000000005 -3.265 0.9275 -7.359999999999999 1.0925 -10.495000000000001 -0.805 5.147500000000001 -2.7950000000000004 7.5075 -6.26 6.8425 -10.08 -1.045 -6.625 -11.25 -4.859999999999999 -12.8275 2.6374999999999997 -0.5575 2.6500000000000004 0.3675 5.4625 1.5 6.66l0.0175 0.05c-2.0349999999999997 0.73 -4.1925 1.2525 -6.494999999999999 1.5625 -2.0425 0.475 -4.21 0.41500000000000004 -6.8125 -0.185 -0.355 -0.1375 -1.47 -0.71 -1.9075 -0.9975 -0.8375 -1.255 -2.7875 -0.2 -2.1975 1.22 0.34500000000000003 0.8325 2.6500000000000004 1.9325 3.5349999999999997 2.1875 2.6 0.6 5.197500000000001 0.8475 7.8275 0.23249999999999998 2.7600000000000002 -0.3675 5.425 -1.06 7.927499999999999 -2.06 3.9450000000000003 3.2 9.7475 3.3825 14.695 1.6975000000000002 3.5875000000000004 3.2424999999999997 12.31 5.1525 19.677500000000002 2.7024999999999997 0.4675 0.6 0.9925 1.0325 1.3975000000000002 1.3325 5.477499999999999 4.8875 15.065 4.422499999999999 21.8825 1.7075 5.3925 4.25 13.672500000000001 2.7950000000000004 19.57 -0.78 4.2575 4.1675 9.629999999999999 2.175 15.2675 0.2725 0.6525000000000001 -0.21999999999999997 1.0075 -0.9275 0.79 -1.58 -0.21749999999999997 -0.6525000000000001 -0.925 -1.01 -1.58 -0.79h0.0075Zm-92.6525 -12.7125c0.98 -4.6525 7.305000000000001 -6.5925 7.915 -2.7424999999999997 0.615 3.5325 -2.9625000000000004 6.1975 -6.404999999999999 7.91 -0.0675 -0.07250000000000001 -0.14500000000000002 -0.14250000000000002 -0.22499999999999998 -0.21250000000000002 -0.14 -0.25 -0.31 -0.41250000000000003 -0.3775 -0.4625 -0.9075 -1.36 -1.23 -2.9575 -0.905 -4.4925h-0.0025Zm16.1625 1.7100000000000002c0.6875 -1.47 3.215 -3.19 5.0175 -3.025 0.555 0.05 1.2275 0.2625 1.52 1.4849999999999999 0.5725 2.44 -2.67 4.92 -4.55 5.9399999999999995 -0.6875 0.275 -1.3800000000000001 0.5925 -1.7449999999999999 0.7525 -0.94 -1.5975000000000001 -1.0174999999999998 -3.5025 -0.245 -5.1525h0.0025Zm25.1525 2.805c0.165 0.20750000000000002 0 0.8525 -0.8550000000000001 1.925 -0.38 0.6375 -1.085 1.275 -2.17 1.94 -0.5075000000000001 0.40750000000000003 -1.105 0.77 -1.765 1.0725 -0.13 -0.3225 -0.2675 -0.6475 -0.44999999999999996 -0.96 -0.8925 -4.145 4.4125 -5.012499999999999 5.24 -3.975v-0.0025Zm17.09 3.4725c1.1724999999999999 -2.7775 5.074999999999999 -5.2524999999999995 6.4625 -2.575 1.49 2.7125 -3.065 6.0575 -5.709999999999999 7.1225000000000005 -0.22999999999999998 -0.2675 -1.87 -1.905 -0.755 -4.545l0.0025 -0.0025Zm23.98 -4.9575000000000005c0.7525 0.015 0.8624999999999999 0.295 0.9099999999999999 0.40750000000000003 0.525 1.225 -1.01 4.55 -1.9275 5.605 -0.7675 0.7675 -1.62 1.5274999999999999 -2.4775 2.2125 -1.2775 -3.4025 -0.1825 -8.3025 3.4949999999999997 -8.225Z" stroke-width="1"></path><path id="vector_6" fill="#501200" d="M274.955 177.16774999999998c-0.052500000000000005 -0.6074999999999999 -0.5325 -1.09 -1.1425 -1.1400000000000001l-182.765 -15.34c-0.7474999999999999 -0.075 -1.42 0.5700000000000001 -1.35 1.355l21.589999999999996 248.10475c0.052500000000000005 0.6074999999999999 0.5375 1.0875 1.145 1.1375 34.265 2.7300000000000004 132.51250000000002 10.432500000000001 167.53250000000003 10.432500000000001 13.1375 0 13.6375 -1.0775 14.0075 -1.875 1.1500000000000001 -2.4925 -12.9175 -170.53725 -19.017500000000002 -242.67225v-0.0025Zm16.6875 241.44975c-8.28 2.86 -109.92000000000002 -4.1725 -177.9525 -9.74l-21.3725 -245.57475 180.23499999999999 15.127500000000001c6.78 80.17474999999999 19.185000000000002 229.92475 19.0875 240.18725h0.0025Z" stroke-width="1"></path><path id="vector_7" fill="#501200" d="M261.6925 230.733c-0.0625 -0.59 -0.535 -1.0525 -1.1275 -1.1075l-146.0225 -13.6375c-0.775 -0.08 -1.4449999999999998 0.5925 -1.3575000000000002 1.3825l7.1975 66.667c0.065 0.5925 0.54 1.055 1.1325 1.1075 45.182500000000005 3.9274999999999998 129.5425 11.232500000000002 142.9075 11.232500000000002 2.7424999999999997 0 2.9699999999999998 -0.22749999999999998 3.1624999999999996 -0.42000000000000004 0.245 -0.245 0.3775 -0.5825 0.365 -0.9299999999999999 -0.355 -9.925 -0.4675 -10.5975 -6.2575 -64.297v0.0025ZM164.41500000000002 269.3025l-1.5875 -13.4975 29.3675 2.54 0.95 13.387500000000001 -28.730000000000004 -2.4299999999999997Zm96.61250000000001 -21.177c0.485 4.417 0.9725 9.0945 1.4575 13.789499999999999l-67.94749999999999 -5.8774999999999995 -0.9775 -13.7495 67.4675 5.835v0.0025Zm-69.0125 7.6945 -29.505 -2.5524999999999998 -1.9300000000000002 -13.832 30.459999999999997 2.6350000000000002 0.9750000000000001 13.7495Zm-31.78 -18.922 -1.875 -14.3075 31.505000000000003 2.9425 0.9950000000000001 14.012500000000001 -30.625 -2.6500000000000004v0.0025Zm-2.21 2.3175 1.9300000000000002 13.832 -40.7825 -3.527 -1.4874999999999998 -13.795 40.339999999999996 3.4899999999999998ZM119.445 252.04999999999998l40.839999999999996 3.5325 1.59 13.5025 -40.964999999999996 -3.4675000000000002 -1.4625 -13.57 -0.0025 0.0025Zm75.27 6.51 68.0275 5.885c0.47750000000000004 4.7525 0.9550000000000001 9.350000000000001 1.4324999999999999 13.5625l-68.5075 -6.06 -0.95 -13.387500000000001h-0.0025Zm66.0425 -12.9695 -67.3775 -5.83 -0.9925 -13.995 66.9325 6.25c0.22499999999999998 2.0675 0.775 7.1274999999999995 1.4375 13.575Zm-104.94999999999999 -23.24 1.875 14.325000000000001 -40.2675 -3.4375 -1.5775000000000001 -14.62 39.9675 3.7325000000000004h0.0025ZM121.18 268.15000000000003l41.005 3.4699999999999998 1.935 14.690000000000001c-20.585 -1.7449999999999999 -37.1875 -3.2 -41.3675 -3.5675l-1.5725 -14.59v-0.0025Zm45.49 18.372500000000002 -1.935 -14.6875 28.59 2.4175 1.0325 14.54c-5.822500000000001 -0.43999999999999995 -24.35 -2.005 -27.685 -2.2725l-0.0025 0.0025Zm30.2075 2.475 -1.0325 -14.5225 68.605 6.07c0.4525 4.4624999999999995 0.775 8.965 0.9575 13.4175 -5.4575 0.0675 -32.004999999999995 -1.8475 -68.53 -4.965Z" stroke-width="1"></path></g><g id="pencil"><path id="vector_8" fill="#ff7449" d="m222.00500000000002 318.75 -3.41 6.25 71.97 38.0675 3.9775 -6.06L222.00500000000002 318.75Z" stroke-width="1"></path><path id="vector_9" fill="#ffffff" d="m207.23225 314.205 11.552500000000002 10.794999999999998 3.22 -6.44 -14.772499999999999 -4.355Z" stroke-width="1"></path><path id="vector_10" fill="#501200" d="m298.7825 357.83000000000004 -76.425 -40.4675 -14.772499999999999 -4.3575c-1.2475 -0.38 -2.1725 1.21 -1.2075 2.1125l11.2375 10.5c0.10999999999999999 0.2725 0.47250000000000003 0.7525 1.2025 0.7274999999999999l75.305 39.900000000000006c2.3200000000000003 1.29 5.15 0.5 6.414999999999999 -1.775 1.4825 -2.4725 0.34 -5.8325000000000005 -1.755 -6.640000000000001Zm-80.475 -34.985 -6.3625 -5.9475 8.42 2.485 -2.0575 3.4625Zm71.945 38.455 -69.915 -36.98 2.3225000000000002 -3.9074999999999998 70.16 37.1 -2.5675 3.79v-0.0025Z" stroke-width="1"></path></g><g id="hand"><path id="vector_11" fill="#fccac2" d="M282.8 373.675c-0.7575 -3.22 -1.895 -6.44 -3.22 -9.469999999999999 -4.925 -11.7425 -11.174999999999999 -24.055 -20.644999999999996 -32.955 -2.84 -3.03 -6.44 -5.4925 -10.4175 -7.0075 -1.3250000000000002 -0.3775 -4.355 -1.1375 -4.734999999999999 0.9475 -0.64 5.117500000000001 10.385 9.1725 16.32 22.745 -2.905 -2.3225000000000002 -10.32 -7.592499999999999 -14.0475 -7.592499999999999 -1.8925 -0.19 -3.7874999999999996 1.135 -3.9775 3.22 0 2.7525 0.78 3.9425 2.6275 5.699999999999999 -1.24 -0.5800000000000001 -2.7800000000000002 -0.8500000000000001 -4.1425 -1.1525 -2.6525 0 -4.3575 1.8925 -3.5975 5.3025 0.5675 1.515 1.3250000000000002 3.03 2.6525 4.3575v0.19c-3.22 -0.7575 -5.8725000000000005 -0.5700000000000001 -7.0075 0.7575 -0.7575 1.3250000000000002 -0.7575 3.03 0 4.3575 0.9475 1.705 4.3575 5.4925 4.3575 5.4925 -1.515 0.7575 -2.4625 2.0825 -2.4625 3.5975 -0.5700000000000001 4.3575 1.705 11.7425 8.1425 10.985h1.895c0.3775 0.3775 0.5675 0.7575 0.7575 1.1375 7.2299999999999995 11.0625 11.535 11.91 13.445 13.825000000000001 5.305 -6.25 22.895 -19.8375 24.81 -21.2125 0 -1.1375 -0.3775 -2.0825 -0.7575 -3.22l0.0025 -0.005Z" stroke-width="1"></path><path id="vector_12" fill="#501200" d="M354.425 454.715c-27.647499999999997 -22.685 -62.13 -68.60000000000001 -69.2675 -78.2675 -0.22999999999999998 -1.1425 -0.42250000000000004 -2.24 -0.78 -3.125 -4.475 -15.2175 -12.737499999999999 -31.9725 -24.18 -42.955 -2.905 -2.905 -6.535 -5.3500000000000005 -10.9575 -7.327500000000001 -2.8000000000000003 -0.8 -5.8025 -0.8724999999999999 -6.317500000000001 1.995 -0.6875 5.507499999999999 8.7 9.505 14.530000000000001 19.635 -3.0125 -2.4775 -6.57 -5.08 -10.395000000000001 -5.555 -2.5925 -0.515 -5.3149999999999995 1.2675 -5.85 4.0675 0 1.2175 0.0375 2.3575 0.495 3.5725000000000002 -4.2275 -0.785 -7.69725 3.7674999999999996 -4.07725 9.5825 -2.5424999999999995 -0.155 -4.63775 0.4325 -5.72275 1.755 -2.0524999999999998 3.5875000000000004 0.6725000000000001 7.675 3.7575 10.26 -4.7325 4.0725 -1.3725 17.2825 7.365 16.23 1.275 0 0.9675 -0.3375 1.2725 0.0675 1.4050000000000002 1.8725 5.5375 9.7 13.129999999999999 13.8025 -0.28500000000000003 0.44499999999999995 -0.5325 0.9575 -0.6725000000000001 1.525 -4.7575 27.9725 29.384999999999998 85.715 30.84 88.16000000000001 0.3275 0.55 1.0125000000000002 0.7575 1.5825 0.5025000000000001 43.295 -19.27 65.415 -30.2525 65.7475 -32.644999999999996 0.06 -0.42999999999999994 -0.1625 -1.0050000000000001 -0.5 -1.2825v0.0025Zm-112.08500000000001 -78.17c-0.4025 -0.5625 -1.1824999999999999 -0.6925000000000001 -1.7449999999999999 -0.29000000000000004 -0.5625 0.4 -0.6900000000000001 1.1824999999999999 -0.29000000000000004 1.7425 0.6925000000000001 0.97 1.795 2.955 2.455 4.1049999999999995 -1.6800000000000002 0.1625 -3.1075000000000004 -0.3275 -4.24 -1.4749999999999999 -2.005 -2.0300000000000002 -2.725 -5.6225000000000005 -2.3975 -8.125 0.14500000000000002 -1.145 0.865 -2.24 1.615 -2.5675 1.6700000000000002 -0.5575 3.045 -0.615 4.3225 -0.19 0.6575 0.21999999999999997 1.3625 -0.135 1.5825 -0.79 0.21749999999999997 -0.655 -0.1375 -1.3625 -0.79 -1.58 -1.46 -0.49 -3.0125 -0.5375 -4.7675 -0.1275 -0.3 -0.6 -2.4299999999999997 -1.645 -4.01 -4.8 -0.5425 -0.9450000000000001 -0.5425 -2.17 -0.125 -2.9349999999999996 0.9775 -1.1675 7.9225 -1.1625 13.620000000000001 3.22 0.5475 0.42000000000000004 1.33 0.3175 1.7525 -0.22999999999999998 0.42000000000000004 -0.5475 0.3175 -1.3325 -0.22999999999999998 -1.7525 -2.375 -1.825 -5.07475 -3.1274999999999995 -7.82475 -3.8 -0.24 -0.42500000000000004 -1.65525 -1.4725 -2.5127500000000005 -4.0024999999999995 -0.5775 -2.6100000000000003 0.5525 -3.7575 2.2225 -3.7924999999999995 1.225 0.155 2.7475 0.795 3.9625 1.6625 2.6900000000000004 1.9725000000000001 5.795 4.295 8.4475 6.567499999999999 0.5225 0.44999999999999996 1.3125 0.39 1.7625 -0.135 0.44999999999999996 -0.5225 0.39 -1.3125 -0.135 -1.7625 -8.35 -7.1575 -11.305 -7.26 -11.305 -11.93 -0.11499999999999999 -0.63 1.0825 -2.3449999999999998 2.9525 -1.98 4.165 0.5225 8.1675 4.175 11.475 6.9174999999999995 0.33 0.2725 0.075 -0.08 1.1875 0.9875 3.71 2.7824999999999998 3.7075000000000005 4.2275 4.9175 4.2275 1.05 0 1.6400000000000001 -1.2349999999999999 0.96 -2.05 -0.765 -0.915 -2.05 -2.245 -3.3125 -3.3175 0.0075 -0.18 -0.0225 -0.365 -0.1 -0.54 -2.9075 -6.785 -5.6899999999999995 -9.7875 -10.8725 -15.165 -1.5425 -1.6025 -5.8 -5.01 -5.525 -7.2275 0.4325 -2.3400000000000003 19.3475 3.85 33.395 39.230000000000004 1.025 2.5774999999999997 3.2874999999999996 9.0225 3.77 11.555 -3.245 2.5625 -18.0625 14.36 -23.490000000000002 20.302500000000002 -11.49 -7.66 -12.8475 -14.52 -16.725 -19.955000000000002l-0.0025 0.0025Z" stroke-width="1"></path></g><g id="notes"><path id="vector_13" fill="#fccac2" d="M460.83 321.78c19.4 45.4 -30.2425 92.79249999999999 -104.925 69.88749999999999 -17.75 -5.445 -43.269999999999996 -15.860000000000001 -51.325 -19.8875 1.515 -0.5675 9.66 -4.1675 10.794999999999998 -4.545 39.3425 -15.48 54.1525 -33.13 74.62 -53.5975 8.145 -8.145 17.615000000000002 -17.6125 31.06 -18.560000000000002 18.75 -1.3225 33.635000000000005 12.342500000000001 39.7725 26.705000000000002l0.0025 -0.0025Z" stroke-width="1"></path><path id="vector_14" fill="#ff7449" d="M433.5575 322.34749999999997c-4.7675 -3.7475000000000005 -48.885 -0.21999999999999997 -51.137499999999996 1.515 -4.5925 3.54 -9.64 59.825 -4.355 64.015 6.6525 5.2749999999999995 43.8925 3.9124999999999996 46.78 1.895 4.4775 -3.1325 12.8525 -64.17 8.7125 -67.425Z" stroke-width="1"></path><path id="vector_15" fill="#ffffff" d="M386.995 341.7675c0.54 0.1 1.4025 0.5325 3.3825 0.5325 2.9675000000000002 0 6.0375 -1.1925 8.622499999999999 -2.7125 1.8074999999999999 1.7100000000000002 3.66 2.22 5.72 2.22 2.5625 0 5.0175 -0.6425000000000001 7.32 -1.915 3.89 3.225 9.5875 0.8150000000000001 13.72 -2.135 0.5625 -0.4 0.6925000000000001 -1.1824999999999999 0.29000000000000004 -1.7425 -0.4025 -0.5625 -1.185 -0.6925000000000001 -1.7449999999999999 -0.29000000000000004 -2.4375 1.7399999999999998 -4.57 2.8175 -7.5424999999999995 3.1824999999999997 -0.9275 0.11499999999999999 -1.83 -0.10999999999999999 -2.5974999999999997 -0.5675 0.73 -0.5725 1.4449999999999998 -1.2025 2.09 -1.85 0.71 -0.71 2.495 -2.9925 2.2475 -5.004999999999999 -0.3525 -2.8475 -4.547499999999999 -3.8724999999999996 -7.3375 0.3225 -1.3375000000000001 1.7199999999999998 -1.5525 3.9975 -0.6475 6.0625 -2.7125 1.41 -6.710000000000001 2.2775 -9.2625 0.365 0.9950000000000001 -0.7975 2.5725 -2.11 2.2875 -4.0925 -0.295 -2.6624999999999996 -3.5 -2.6174999999999997 -5.0424999999999995 -0.6625000000000001 -0.9950000000000001 1.26 -1.34 2.725 -0.9275 4.0425 -6.41 3.7125000000000004 -9.4425 1.7574999999999998 -10.4225 1.7574999999999998 -1.75 0 -1.705 2.4775 -0.16 2.49l0.005 -0.0025Zm26.200000000000003 -8.5c0.4675 -0.7025000000000001 1.5425 -1.79 2.33 -1.79 1.2675 0 -0.1775 2.3874999999999997 -1.0325 3.2424999999999997 -0.5725 0.5725 -1.2075 1.1325 -1.8525 1.6400000000000001 -0.2725 -0.9550000000000001 -0.22499999999999998 -2.085 0.555 -3.0925000000000002Z" stroke-width="1"></path><path id="vector_16" fill="#ffffff" d="M426.3825 355.0825c-0.43499999999999994 -0.535 -1.2225 -0.6174999999999999 -1.7574999999999998 -0.1825 -2.455 1.995 -6.18 4.6450000000000005 -10.32 4.65 -1.0125000000000002 0.10500000000000001 -2.0324999999999998 -0.23249999999999998 -2.8575 -0.9099999999999999 0.2975 -0.185 0.6074999999999999 -0.375 0.9925 -0.5725 1.0274999999999999 -0.64 4.375 -2.955 4.375 -5.795 0 -0.8175 -0.3375 -1.51 -0.9475 -1.9500000000000002 -3.3325 -2.4 -9.1175 2.8149999999999995 -7.965 7.465000000000001 -3.4825 1.7799999999999998 -7.95 2.6624999999999996 -10.93 0.9550000000000001 9.8425 -4.7525 5.427499999999999 -12.955000000000002 -1.61 -8.27 -2.3649999999999998 1.5775000000000001 -3.3175 4.5325 -2.48 7.18 -2.1475 0.54 -4.22 1.0625 -6.15 0.1925 -0.22749999999999998 -0.2375 -0.5475 -0.385 -0.9025 -0.385 -1.315 0 -2.0175 1.9900000000000002 0.0625 2.7024999999999997 0.525 0.525 2.145 0.6825000000000001 2.8875 0.6825000000000001 1.4849999999999999 0 3.8724999999999996 -0.555 5.3125 -0.9199999999999999 0.2725 -0.07 0.057499999999999996 -0.0625 0.495 0.2 3.9425 3.2474999999999996 10.0675 2.1775 14.5975 -0.185 1.3800000000000001 1.4825 3.33 2.305 5.2425 2.105 4.81 0 9.0225 -2.9699999999999998 11.772499999999999 -5.205 0.535 -0.43499999999999994 0.6174999999999999 -1.2225 0.1825 -1.7599999999999998v0.0025Zm-29.6325 -2.5275c0.8275 -0.55 2.6725 -1.4000000000000001 3.3475 -0.725 0.34750000000000003 0.34750000000000003 -0.16 1.45 -0.7575 2.21 -1.1775 1.1775 -2.6574999999999998 2.1574999999999998 -4.109999999999999 2.7424999999999997 -0.44499999999999995 -1.5775000000000001 0.13 -3.3024999999999998 1.52 -4.2275Zm16.18 -0.0425c0.76 -0.255 1.3525 -0.22499999999999998 1.3850000000000002 -0.24 0 1.1500000000000001 -1.6600000000000001 2.71 -3.0975 3.6175 -0.32 0.16 -0.64 0.35000000000000003 -0.9625 0.5475 0.0425 -1.295 1.105 -3.2224999999999997 2.6725 -3.9250000000000003h0.0025Z" stroke-width="1"></path><path id="vector_17" fill="#ffffff" d="M422.6625 372.385c-2.4575 2.3125 -8.6475 7.495000000000001 -13.0725 5.620000000000001 -0.395 -0.1575 -0.8150000000000001 -0.48750000000000004 -1.135 -0.8699999999999999 1.595 -1.4000000000000001 3.685 -3.4825 3.2175 -5.8175 -0.9075 -4.09 -7.8275 -0.63 -6.3125 5.0825 -3.255 2.06 -8.49 3.5375 -11.6025 1.7249999999999999 0.9575 -0.735 2.5875 -2.245 3.135 -3.3200000000000003 0.65 -1.29 1.7374999999999998 -3.4475 0.3075 -5.164999999999999 -1.635 -1.9075 -4.875 -0.8825 -6.045 0.925 -1.7725 1.9700000000000002 -2.19 4.7675 -1.1824999999999999 7.005 -1.8525 1.0025 -4.785 1.985 -6.7675 1.565 -0.9925 -0.795 -2.385 0.24 -1.975 1.43 0.6 1.7525 4.8225 1.1749999999999998 6.6125 0.5725 1.35 -0.3375 2.5324999999999998 -0.9275 3.66 -1.555 4.025 3.2424999999999997 10.592500000000001 1.7574999999999998 14.97 -0.9275 0.59 0.7324999999999999 1.37 1.3425 2.17 1.6625 5.23 2.2125 11.5925 -2.21 15.7375 -6.109999999999999 0.5025000000000001 -0.47250000000000003 0.5275 -1.2650000000000001 0.052500000000000005 -1.7674999999999998 -0.47250000000000003 -0.5025000000000001 -1.2625 -0.525 -1.7674999999999998 -0.052500000000000005l-0.0025 -0.0025Zm-27.770000000000003 -1.2775c1.045 -0.02 0.22749999999999998 1.6475 -0.21250000000000002 2.575 -0.73 0.9725 -1.5575 1.7999999999999998 -2.5574999999999997 2.5475 -0.8175 -2.415 1.1749999999999998 -5.095 2.7700000000000005 -5.1225Zm14.34 1.045c-0.095 0.68 -0.81 1.5425 -1.57 2.3000000000000003 0.10250000000000001 -1.0775 0.6225 -1.7799999999999998 1.57 -2.3000000000000003Z" stroke-width="1"></path><path id="vector_18" fill="#ff7449" d="M409.125 313.6375c-4.725 -3.8024999999999998 -48.885 -0.21999999999999997 -51.137499999999996 1.515 -4.5925 3.54 -9.64 59.825 -4.355 64.015 6.6525 5.2749999999999995 43.9125 3.9425 46.78 1.895 4.3175 -3.085 12.6975 -64.215 8.7125 -67.425Z" stroke-width="1"></path><path id="vector_19" fill="#ffffff" d="M352.855 380.145c-6.1625 -4.859999999999999 -0.675 -61.974999999999994 4.1475 -65.9575 2.8825000000000003 -2.165 47.61 -5.612500000000001 52.712500000000006 -1.5274999999999999 0.9275 0.7174999999999999 1.775 2.4975 1.575 10.497499999999999 -0.405 16.155 -5.855 55.93 -10.165 58.93 -3.4825 2.555 -41.217499999999994 3.6925000000000003 -48.2725 -1.9425000000000001h0.0025Zm5.6325 -63.955c-2.38 2.05 -6.23 31.5375 -5.8425 50.324999999999996 0.21000000000000002 10.16 1.605 11.545000000000002 1.7625 11.67 6.012499999999999 4.7825 42.082499999999996 3.835 45.2775 1.8575 4.035 -3.4925 11.5275 -61.615 8.4375 -65.46249999999999 -4.0024999999999995 -3.1950000000000003 -46.269999999999996 -0.14250000000000002 -49.635 1.61Z" stroke-width="1"></path><path id="vector_20" fill="#ffffff" d="M401.43 327.115c-0.4 -0.5625 -1.1824999999999999 -0.6925000000000001 -1.7449999999999999 -0.29000000000000004 -2.4375 1.7425 -4.5675 2.8149999999999995 -7.5424999999999995 3.1824999999999997 -0.9275 0.11499999999999999 -1.83 -0.10749999999999998 -2.5974999999999997 -0.5675 0.73 -0.5725 1.4449999999999998 -1.205 2.09 -1.8525 0.71 -0.7074999999999999 2.495 -2.9899999999999998 2.2475 -5.004999999999999 -0.3575 -2.905 -4.694999999999999 -3.8674999999999997 -7.422499999999999 0.4475 -1.2225 1.9325 -1.3375000000000001 4.295 -0.49250000000000005 6.1275 -2.6475 1.43 -6.8225 2.2475 -9.33 0.365 0.9950000000000001 -0.7975 2.5725 -2.11 2.29 -4.0925 -0.4525 -4.0775 -7.272499999999999 -1.6475 -5.8975 3.3325 -1.7025000000000001 0.96 -3.6975000000000002 1.7199999999999998 -5.7775 2.2025 -1.145 0.19 -2.4325 0.18 -3.6175 -0.1575 -0.5925 -0.17 -0.8425 -0.2375 -1.1025 -0.2375 -1.7574999999999998 0 -1.7025000000000001 2.49 -0.15 2.49 0.12 0.0225 0.34 0.09 0.5625 0.1525 3.7025 1.0625 8.085 -0.42250000000000004 11.427499999999998 -2.3375000000000004 1.825 1.7274999999999998 3.685 2.225 5.7325 2.225 2.6750000000000003 0 5.2675 -0.685 7.4725 -1.9775 3.9074999999999998 3.0525 9.525 0.6225 13.56 -2.2600000000000002 0.5625 -0.4025 0.6925000000000001 -1.1824999999999999 0.29000000000000004 -1.7425l0.0025 -0.005Zm-10.182500000000001 -4.4525c0.6675 0.4025 -0.75 2.5324999999999998 -1.3775000000000002 3.1574999999999998 -0.5725 0.5725 -1.2075 1.135 -1.855 1.6425 -0.655 -2.88 2.2475 -5.3500000000000005 3.23 -4.8h0.0025Z" stroke-width="1"></path><path id="vector_21" fill="#ffffff" d="M401.76250000000005 346.37c-0.43499999999999994 -0.5375 -1.225 -0.6174999999999999 -1.7574999999999998 -0.1825 -2.455 1.995 -6.18 4.6450000000000005 -10.322499999999998 4.65 -1.0125000000000002 0.10500000000000001 -2.0349999999999997 -0.23249999999999998 -2.8575 -0.9099999999999999 2.315 -1.44 5.3675 -3.6425 5.3675 -6.367500000000001 0 -3.6975000000000002 -6.92 -3.73 -8.915 2.9725 -0.1575 0.7875 -0.125 1.6125 0.0975 2.4925 -3.4949999999999997 1.8125 -8.015 2.7275 -11.022499999999999 1.0050000000000001 1.4949999999999999 -0.7224999999999999 2.955 -1.7599999999999998 4.225 -3.0375 3.9825 -4.9775 -0.6325000000000001 -8.7 -5.772500000000001 -5.2700000000000005 -2.3874999999999997 1.395 -3.3725 4.3125 -2.5625 7.0825000000000005 -1.8074999999999999 0.44999999999999996 -3.93 0.8599999999999999 -5.3525 0.43499999999999994 -0.1525 -0.08750000000000001 -0.3325 -0.1625 -0.55 -0.25 -0.8799999999999999 -0.9975 -2.4575 -0.13 -2.1875 1.145 0.16 0.7575 0.8325 1.0150000000000001 1.31 1.1300000000000001 0.1375 0.1375 0.305 0.24 0.48750000000000004 0.3025 2.305 0.7725 4.935 0.1675 7.5249999999999995 -0.49 4.12 3.58 10.255 2.68 15.0925 0.155 1.3800000000000001 1.4825 3.33 2.305 5.2425 2.105 4.8125 0 9.0225 -2.9699999999999998 11.772499999999999 -5.205 0.535 -0.43499999999999994 0.6174999999999999 -1.2225 0.1825 -1.7599999999999998l-0.0025 -0.0025Zm-29.6325 -2.5275c0.8275 -0.55 2.6725 -1.4000000000000001 3.3475 -0.725 0.34750000000000003 0.34750000000000003 -0.16 1.45 -0.7575 2.21 -1.1724999999999999 1.1700000000000002 -2.6425 2.1475 -4.0875 2.7350000000000003 -0.47 -1.6725 0.0825 -3.3925 1.5 -4.22h-0.0025Zm13.572500000000002 3.295c0.595 -1.9825000000000002 1.9 -3.5775 3.97 -3.5775 0 1.2675 -2.0349999999999997 2.8125 -3.0725000000000002 3.6175 -0.3075 0.155 -0.615 0.335 -0.9225 0.5225 -0.0125 -0.20750000000000002 -0.0025 -0.395 0.027499999999999997 -0.5625h-0.0025Z" stroke-width="1"></path><path id="vector_22" fill="#ffffff" d="M399.8075 363.53749999999997c-0.47250000000000003 -0.5025000000000001 -1.2625 -0.525 -1.7674999999999998 -0.052500000000000005 -3.79 3.5675 -9.1225 7.4425 -13.0725 5.620000000000001 -0.3825 -0.1525 -0.79 -0.47 -1.105 -0.8350000000000001 1.3225 -1.09 3.675 -3.415 3.1875 -5.85 -0.5850000000000001 -2.6325 -3.7225 -2.1525 -5.3100000000000005 -0.0125 -1.105 1.77 -1.4324999999999999 3.715 -0.9375 5.3625 -3.21 1.9875 -8.252500000000001 3.3825 -11.445 1.6175000000000002 2.5275 -1.975 5.3125 -5.945 3.2675 -8.3925 -1.565 -2.0875 -4.8125 -1.115 -6.095000000000001 0.8599999999999999 -1.7100000000000002 1.9025 -2.07 4.6675 -1.0425 6.9275 -1.8975 1.04 -4.8775 2.07 -6.9075 1.6425 -0.9950000000000001 -0.795 -2.3825 0.2425 -1.975 1.43 0.6 1.7525 4.82 1.1749999999999998 6.6125 0.5725 1.3975000000000002 -0.34750000000000003 2.615 -0.9675 3.7775 -1.6175000000000002 3.5 3.255 10.3925 1.98 15.0225 -0.8500000000000001 1.2850000000000001 1.4649999999999999 3.295 2.135 5.1675 2.135 3.5599999999999996 0 7.7725 -2.2725 12.5725 -6.7875 0.5025000000000001 -0.47250000000000003 0.5275 -1.2650000000000001 0.052500000000000005 -1.7674999999999998l-0.0025 -0.0025Zm-29.1425 -0.9950000000000001c0.4025 0.505 -0.09 1.6475 -0.6675 2.515 -0.5725 0.915 -1.3250000000000002 1.7175000000000002 -2.3275 2.475 -1.1625 -3.045 2.1125 -6.1 2.995 -4.99Zm13.134999999999998 1.275c0.155 -0.20750000000000002 0.525 -0.47250000000000003 0.8150000000000001 -0.6125 -0.06 0.6325000000000001 -0.6575 1.505 -1.4849999999999999 2.3449999999999998 0.0975 -0.5800000000000001 0.325 -1.18 0.6675 -1.7325h0.0025Z" stroke-width="1"></path></g><g id="people icons"><path id="vector_23" fill="#fccac2" d="M394.7325 172.34775c-15.7125 28.4125 -47.35 42.779999999999994 -81.06 46.4025 -26.542500000000004 2.8525 -54.725 1.515 -57.197500000000005 1.515 1.1375 -1.1375 7.574999999999999 -7.955 8.3325 -8.7125 31.765 -31.765 37.5225 -51.585 49.81 -81.63 4.5 -11.0025 9.8425 -24.064999999999998 22.160000000000004 -30.302500000000002 35.04 -17.75 83.3175 26.862499999999997 57.955 72.7275Z" stroke-width="1"></path><path id="vector_24" fill="#ff7449" d="M377.3075 188.44799999999998H343.975c0 -9.280000000000001 7.3875 -16.6675 16.6675 -16.6675 9.280000000000001 0 16.6675 7.3875 16.6675 16.6675h-0.0025Z" stroke-width="1"></path><path id="vector_25" fill="#ff7449" d="M373.8975 143.5605h-33.3325c0.19 -9.280000000000001 7.574999999999999 -16.6675 16.855 -16.4775 9.09 0.1875 16.4775 7.3875 16.4775 16.4775Z" stroke-width="1"></path><path id="vector_26" fill="#ff7449" d="M360.83 152.84050000000002c3.9775 0 7.1975 3.22 7.1975 7.1975s-3.22 7.1975 -7.1975 7.1975 -7.1975 -3.22 -7.1975 -7.1975 3.22 -7.1975 7.1975 -7.1975Z" stroke-width="1"></path><path id="vector_27" fill="#ff7449" d="M357.41999999999996 107.95524999999999c3.9775 0 7.1975 3.22 7.1975 7.1975s-3.22 7.1975 -7.1975 7.1975 -7.1975 -3.22 -7.1975 -7.1975 3.22 -7.1975 7.1975 -7.1975Z" stroke-width="1"></path><path id="vector_28" fill="#ff7449" d="M342.08 171.023h-33.3325c-0.19 -9.280000000000001 7.1975 -16.6675 16.4775 -16.855 9.3625 -0.19 16.9525 7.34 16.855 16.855Z" stroke-width="1"></path><path id="vector_29" fill="#ff7449" d="M325.6025 135.41750000000002c3.9775 0 7.1975 3.22 7.1975 7.1975s-3.22 7.1975 -7.1975 7.1975 -7.2924999999999995 -3.22 -7.1975 -7.1975c0.095 -3.9775 3.41 -7.1975 7.1975 -7.1975Z" stroke-width="1"></path></g><g id="hourglass"><path id="vector_30" fill="#fccac2" d="M379.96000000000004 303.7875c-26.3275 11.9275 -57.6175 5.5675 -84.66 -9.66 -22.075 -12.430000000000001 -42.6275 -28.04 -43.75 -28.7875 1.515 -0.19 9.8475 -1.705 10.794999999999998 -1.895 38.7375 -5.164999999999999 56.155 -17.53975 79.355 -31.629749999999998 9.077499999999999 -5.5125 19.6925 -11.91 32.1975 -9.8475 35.5275 5.8575 48.442499999999995 62.61725 6.06 81.81725l0.0025 0.0025Z" stroke-width="1"></path><path id="vector_31" fill="#ffffff" d="m378.255 249.62025 -29.1675 -6.25c-0.6 2.4025 -0.9475 7.51475 -0.9475 9.847249999999999 0 9.1 5.5874999999999995 12.225 5.869999999999999 15.91 0 3.5175 -5.6499999999999995 5.1775 -7.765 6.8175 -5.5275 4.282500000000001 -8.030000000000001 10.5325 -8.030000000000001 14.63l30 6.395c2.1875 -5.470000000000001 1.5175 -11.612499999999999 -1.1375 -16.4775 -1.4175 -2.5974999999999997 -5.6274999999999995 -6.1675 -3.9775 -9.469999999999999 1.9775 -2.6374999999999997 4.2125 -3.37 5.455 -4.1 7.385000000000001 -4.35 9.6125 -17.04475 9.6975 -17.29975l0.0025 -0.0025Z" stroke-width="1"></path><path id="vector_32" fill="#ffb949" d="M369.6875 293.57500000000005c-5.135 -4.6425 -8.225 -15.9175 -6.535 -21.767500000000002 0.6525000000000001 -2.2600000000000002 3.0149999999999997 -4.1325 5.0649999999999995 -4.952500000000001 -2.235 -6.705 -14.544999999999998 -9.0075 -17.65 -5.2425 0.8350000000000001 1.8775 3.7199999999999998 4.859999999999999 3.83 7.06 0.5675 11.1325 -11.9475 19.7675 -15.3475 18.07 -0.11249999999999999 0.5675 -0.5675 3.22 -0.5675 3.22l30.302500000000002 6.44s0.7025000000000001 -1.9225 0.9025 -2.8249999999999997v-0.0025Z" stroke-width="1"></path><path id="vector_33" fill="#501200" d="M334.315 263.94c-0.32 0 -11.0425 -1.815 -14.559999999999999 -2.285 -0.685 -0.0925 -1.165 -0.72 -1.0725 -1.4050000000000002 0.0925 -0.6825000000000001 0.725 -1.155 1.4050000000000002 -1.0725 2.8275 0.3775 13.9575 2.2 14.43 2.2775 1.5074999999999998 0.2475 1.3275000000000001 2.485 -0.2 2.485h-0.0025Z" stroke-width="1"></path><path id="vector_34" fill="#501200" d="M322.1925 270.9475c-1.5825 0 -1.6875 -2.3525 -0.11249999999999999 -2.495 1.5074999999999998 -0.1375 6.092499999999999 -0.5725 8.5075 -0.8 2.12 -0.2025 2.66 2.2575000000000003 0.3325 2.48l-8.727500000000001 0.8175v-0.0025Z" stroke-width="1"></path><path id="vector_35" fill="#501200" d="M382.025 245.65300000000002c-0.3875 -0.7775 -1.2025 -1.25525 -1.8199999999999998 -1.23525 -4.83 -0.9650000000000001 -25.797500000000003 -5.09 -31.57 -6.0475 -1.6800000000000002 -0.42250000000000004 -3.2925 1.01275 -3.2325 2.10275l-0.3775 1.89225c-0.135 0.6775 0.3025 1.335 0.98 1.47l1.4249999999999998 0.2675c-0.17250000000000001 0.9125 -0.34500000000000003 2.01775 -0.3425 2.56025 -1.7025000000000001 18.7195 6.4425 18.7395 5.34 22.897 -0.38 1.4249999999999998 -2.6675 2.6475 -4.5075 3.6275000000000004 -5.859999999999999 3.125 -10.065 8.79 -10.962499999999999 15.37l-0.8450000000000001 -0.195c-0.68 -0.155 -1.3525 0.2725 -1.5 0.9475l-0.3725 1.6725c-0.355 1.4249999999999998 0.6174999999999999 3.05 2.065 3.415 0.25 0.057499999999999996 31.715 7.075 32.0275 7.075 1.2275 0 2.4875 -0.8475 2.8149999999999995 -2.1775l0.38 -1.8925c0.135 -0.6775 -0.305 -1.33 -0.98 -1.47 -0.76 -0.16 -0.2975 0.29000000000000004 0.22999999999999998 -2.3575 1.115 -6.6875 -0.505 -12.0775 -3.8525 -16.8275 -1.805 -2.565 -2.9575 -4.5 -2.4425 -5.735 1.11 -1.48 2.4975 -2.5824999999999996 4.1049999999999995 -3.23 6.12 -3.0475000000000003 9.65 -10.965 11.05 -17.655 0.26 0.0475 0.8275 0.17500000000000002 1.0825 0.17500000000000002 0.5850000000000001 0 1.105 -0.41200000000000003 1.225 -1.0045 0 0 0.1825 -0.91775 0.365 -1.64775 0.08750000000000001 -0.3425 0.0675 -1.29475 -0.28500000000000003 -1.9972500000000002Zm-4.9125000000000005 4.34c-1.1525 5.622 -4.3475 12.817 -9.5475 15.511999999999999 -2.18 0.8724999999999999 -5.717499999999999 3.665 -5.705 5.8125 -0.23249999999999998 3.4525 3.4825 6.9825 4.505 9.205 2.525 4.63 2.8975 10.4275 1.315 14.785l-28.27 -6.1899999999999995c0.6275 -5.427499999999999 4.0024999999999995 -10.6875 9.69 -13.72 2.8475 -1.5175 5.9925 -3.2675 5.9750000000000005 -6.555 -0.315 -4.08 -5.8675 -6.952500000000001 -5.8675 -15.8125 0 -1.9 0.27 -6.227 0.685 -8.462 29.3925 5.4995 27.3225 4.95 27.225 5.427499999999999l-0.005 -0.0025Z" stroke-width="1"></path></g><g id="clock"><path id="vector_36" fill="#ffffff" d="M106.85249999999999 139.58249999999998c34.93625 0 63.2575 -28.32125 63.2575 -63.25725 0 -34.93625 -28.32125 -63.257625 -63.2575 -63.257625S43.595 41.388999999999996 43.595 76.32525c0 34.936 28.32125 63.25725 63.2575 63.25725Z" stroke-width="1"></path><path id="vector_37" fill="#ffb949" d="M98.14 11.25c-35.57 0 -64.50750000000001 28.9375 -64.50750000000001 64.50750000000001 0 34.5375 25.764999999999997 65.075 73.22 65.075 35.57 0 64.50750000000001 -28.9375 64.50750000000001 -64.50750000000001 0 -33.8775 -25.0475 -65.075 -73.22 -65.075Zm8.7125 127.0825c-34.192499999999995 0 -62.0075 -27.814999999999998 -62.0075 -62.0075 0 -34.192499999999995 27.814999999999998 -62.0075 62.0075 -62.0075 34.192499999999995 0 62.0075 27.814999999999998 62.0075 62.0075 0 34.192499999999995 -27.814999999999998 62.0075 -62.0075 62.0075Z" stroke-width="1"></path><path id="vector_38" fill="#501200" d="M106.85249999999999 35.339749999999995c-0.6900000000000001 0 -1.25 -0.56 -1.25 -1.25V20.452275c0 -0.6900000000000001 0.56 -1.25 1.25 -1.25s1.25 0.56 1.25 1.25v13.637474999999998c0 0.6900000000000001 -0.56 1.25 -1.25 1.25Z" stroke-width="1"></path><path id="vector_39" fill="#501200" d="M161.2075 77.00750000000001h-13.825000000000001c-0.6900000000000001 0 -1.25 -0.56 -1.25 -1.25s0.56 -1.25 1.25 -1.25h13.825000000000001c0.6900000000000001 0 1.25 0.56 1.25 1.25s-0.56 1.25 -1.25 1.25Z" stroke-width="1"></path><path id="vector_40" fill="#501200" d="M64.6175 77.575h-13.6375c-0.6900000000000001 0 -1.25 -0.56 -1.25 -1.25s0.56 -1.25 1.25 -1.25h13.6375c0.6900000000000001 0 1.25 0.56 1.25 1.25s-0.56 1.25 -1.25 1.25Z" stroke-width="1"></path><path id="vector_41" fill="#501200" d="M106.85249999999999 134.96275c-0.6900000000000001 0 -1.25 -0.56 -1.25 -1.25v-13.825000000000001c0 -0.6900000000000001 0.56 -1.25 1.25 -1.25s1.25 0.56 1.25 1.25v13.825000000000001c0 0.6900000000000001 -0.56 1.25 -1.25 1.25Z" stroke-width="1"></path><path id="vector_42" fill="#ff7449" d="m134.505 92.61224999999999 -25.7575 -11.9325 -18.560000000000002 -39.015c-0.875 -2.1875 -4.5424999999999995 -0.5 -3.22 1.705l18.75 39.015 1.515 1.515 25.947499999999998 11.9325c0.9475 0.38 1.895 0 2.4625 -0.9475 0.19 -0.7575 -0.19 -1.895 -1.1375 -2.2725Z" stroke-width="1"></path></g></g></svg>