<svg xmlns="http://www.w3.org/2000/svg" fill="none" viewBox="0 0 500 500" id="Promotion--Streamline-Manchester.svg" height="500" width="500"><desc>Promotion Streamline Illustration: https://streamlinehq.com</desc><g id="promotion--work-promotion"><g id="character"><path id="vector" fill="#ffffff" d="M392.875 317.83750000000003c1.27 0.2675 4.095 -0.46499999999999997 4.485 -1.34 0.41500000000000004 -0.9325 -0.25 3.3800000000000003 1.34 3.08 1.355 -0.43499999999999994 2.6075 -1.1425 3.6825 -2.0749999999999997 -1.25 5.535 3.8375 3.215 4.1499999999999995 0.6025 0.2025 -1.675 -0.335 3.8825 1.4050000000000002 3.4799999999999995 1.155 -0.28 2.21 -0.8825 3.0375 -1.7349999999999999 0.8300000000000001 -0.8525 1.4025 -1.9225 1.6500000000000001 -3.085 0.7374999999999999 -3 3.75 -18.0775 3.75 -18.0775l-19.55 -6.695c-6.324999999999999 1.6025 -7.57 6.0725 -9.25 13.725000000000001l5.7075 1.5 -0.5525 5.1325s-1.1275 5.2175 0.14500000000000002 5.4875Z" stroke-width="1"></path><path id="vector_2" fill="#ffffff" d="M380.315 311.8825c-48.099999999999994 -1.1325 -36.1775 -0.0175 -100.125 -8.6425 0 0 -5.5 29.5275 -5.625 41.847500000000004 -0.8350000000000001 76.7075 0.6950000000000001 81.5 3.08 122.595 -5.9799999999999995 3.02 -25.052500000000002 12.7025 -29.595 16.7375 0 0 27.05 2.445 36.5575 2.21 9.5075 -0.235 23.769999999999996 1.07 24.2375 -0.47 0.4625 -5.2524999999999995 0.21499999999999997 -10.545 -0.735 -15.7325 -1.08 -4.8875 1.1375 -18.8825 1.2725 -33 0.18 -19.18 1.0675 -83.635 19.6175 -87.77749999999999 0 0 6.8275 -2.0749999999999997 7.2975 -1.9425000000000001 2.96 0.8450000000000001 20.3825 121.54249999999999 20.419999999999998 121.79249999999999 0 0 -2.1425 14 -0.4675 16.67 13.5 0.75 56.5475 -0.68 58.92 -1.1375 -6.3775 -5.8075 -21.1275 -12.9525 -29.325000000000003 -17 -0.595 -99.2825 -2.0225 -136.37 -5.53 -156.15Z" stroke-width="1"></path><path id="vector_3" fill="#ffffff" d="M287.3525 133.175c-0.4675 18.4625 8.8325 31.932499999999997 26.917499999999997 28.1875 0 0 -2.0774999999999997 4.8875 -0.27 6.5625 1.6125 1.41575 3.5549999999999997 2.40325 5.6499999999999995 2.8712500000000003 2.0949999999999998 0.46775 4.2725 0.40125 6.334999999999999 -0.19375 17 -3.8 2.325 -9.9725 6.5 -19.1475 2.68 -5.8925 6.695 -11.585 4.085 -18.6825 0 0 8.905 0.2025 11.114999999999998 -3.5475000000000003 2.21 -3.75 2.595 -7.945 0.735 -9.25 -3.1175 -1.37875 -6.654999999999999 -1.47475 -9.8425 -0.2675 -3.3475 1.205 -12.2 0.545 -15.065 -3.8175 -3.345 -4.78825 -6.109999999999999 -9.957 -8.235 -15.397499999999999 0 0 -17.877499999999998 5.0875 -25.5 5.6899999999999995 -0.015 0.01 -1.845 4.18 -2.425 26.9925Z" stroke-width="1"></path><path id="vector_4" fill="#ffb949" d="M355.5675 121.68225c-1.835 -12.39 0.75 -21.0275 -4.34 -29.482499999999998 -6.1125 -10.135000000000002 -22.125 -17.48 -32.6725 -7.635 -1.4874999999999998 -2.12525 -3.4899999999999998 -3.8369999999999997 -5.819999999999999 -4.97425 -2.3325 -1.13725 -4.915 -1.6622500000000002 -7.504999999999999 -1.52575 -23 0.10250000000000001 -32.965 19.0225 -19.884999999999998 26.58 -1.3450000000000002 0.5 -6.27 34.3625 -6.295 34.615 -0.13 1.3975000000000002 -1.4249999999999998 20.625 -1 21.894999999999996 1.0474999999999999 3.16 24.134999999999998 5.3525 32.269999999999996 4.62 0.135 0.0675 4.2175 -2.4725 2.4125 -3.08 -4.5575 -1.53 -7.970000000000001 0.135 -12.25 -2 -3.895 -2.7797500000000004 -7.272499999999999 -6.223999999999999 -9.975000000000001 -10.175 0.125 -0.25 -3.1774999999999998 0.1625 -1.675 -32.14 0.21000000000000002 -4.5 1.5775000000000001 -8.705 -0.4675 -12.4525 11.7875 -1.965 7.16 1.0525 27.05 -5.4225 0.36 7.59 7.7700000000000005 17.122500000000002 16.27 19.215 6.205 1.5274999999999999 8.8375 -0.8699999999999999 13.107500000000002 -0.795 8.395 0.14500000000000002 8.5 14.8275 -6.345 13.5825 -0.41000000000000003 0.00625 -0.8025 0.15800000000000003 -1.11 0.4285 -0.3075 0.2705 -0.5075000000000001 0.6415 -0.5650000000000001 1.0465 1.5175 7.865 -1.8375 10.642499999999998 -3.5475000000000003 17.2725 -0.8125 3.145 -2.0949999999999998 5.659999999999999 -0.3575 8.34 8.1225 12.5275 23.075000000000003 16.6375 29.6175 15.362499999999999 3.88 -0.75 5.0325 -5.1325 4.9775 -9.815000000000001 -0.22749999999999998 -18.5 -9.182500000000001 -25.162499999999998 -11.895 -43.46Z" stroke-width="1"></path><path id="vector_5" fill="#501200" d="M416.4425 484.085c-5.427499999999999 -3.73 -11.0625 -7.1499999999999995 -16.8725 -10.25 0.9450000000000001 -1.1 1.945 -2.1525 3 -3.1475 0.8 -0.75 -0.41250000000000003 -1.8875 -1.205 -1.205 -1.21 1.065 -2.33 2.23 -3.3475 3.4799999999999995 -1.34 -0.735 -2.75 -1.4050000000000002 -4.1525 -2.1425 1.1400000000000001 -1.21 2.3525 -2.3474999999999997 3.635 -3.4074999999999998 0.1525 -0.1625 0.235 -0.375 0.22999999999999998 -0.5974999999999999 -0.0025 -0.21999999999999997 -0.0925 -0.4325 -0.25 -0.5874999999999999 -0.155 -0.1575 -0.3675 -0.2475 -0.5874999999999999 -0.25 -0.22249999999999998 -0.005 -0.43499999999999994 0.0775 -0.5974999999999999 0.22999999999999998 -5.8774999999999995 4.5424999999999995 -1.4674999999999998 4.7299999999999995 -9.9075 1.0725 -0.48750000000000004 -52.64 0.5 -103.5 -5.5 -155.6025 -0.125 -1.0725 -1.7974999999999999 -1.0725 -1.675 0 5.575 49.1125 5.557499999999999 103.6225 5.557499999999999 155.67000000000002 -9.105 0.8699999999999999 -18.28 0.6025 -27.385 1.54 -6.1075 -33.5225 -7.725 -61.695 -13.927499999999998 -93.67000000000002 -5.92 -30.535 -8.7775 -26.93 -2.8775 -26.582499999999996 1.07 0.065 1.07 -1.6025 0 -1.6725 -18.8025 -1.225 -24.13 11.5 -27.185000000000002 29.794999999999998 -6.952500000000001 41.692499999999995 -3.17 36.5 -6.2924999999999995 92.73250000000002 -9.5 -0.67 -19.35 0.2 -28.6575 -2.0774999999999997 -0.25 0 -9.1525 -102.3925 2 -162.83249999999998 0.1975 -1.0725 -1.41 -1.4749999999999999 -1.6075 -0.47 -8.0275 40.925000000000004 -6.182499999999999 81.345 -4.2175 127.95249999999999 0.7174999999999999 17.0525 1.915 32.595 2.2075 35.684999999999995 -1.8074999999999999 0.805 -3.6825 1.6075 -5.5 2.4775 -1.3175000000000001 -1.4324999999999999 -2.75 -2.7550000000000003 -4.285 -3.95 -0.1875 -0.10999999999999999 -0.41000000000000003 -0.14250000000000002 -0.62 -0.09 -0.21000000000000002 0.05 -0.39 0.1825 -0.505 0.3675 -0.11499999999999999 0.185 -0.15 0.405 -0.10250000000000001 0.6174999999999999 0.0475 0.21000000000000002 0.17500000000000002 0.395 0.3575 0.5125 1.2650000000000001 1 2.4725 2.0725 3.6149999999999998 3.2125 -6.1925 2.8149999999999995 -2.7800000000000002 3.0425000000000004 -7.765 -1.34 -0.8200000000000001 -0.7174999999999999 -2.0175 0.47750000000000004 -1.205 1.2075 1.11 0.9850000000000001 2.16 2.0349999999999997 3.145 3.145 -5.9575 3.1475 -11.75 6.6000000000000005 -17.4075 10.25 -0.15325 0.0925 -0.2725 0.23249999999999998 -0.33975 0.3975 -0.0675 0.1675 -0.07925 0.35000000000000003 -0.033999999999999996 0.5225 0.045250000000000005 0.17250000000000001 0.14525 0.3275 0.28525 0.43999999999999995 0.13974999999999999 0.10999999999999999 0.312 0.17500000000000002 0.491 0.18 22.5 1.7799999999999998 37.89 1.8074999999999999 56.1075 1.8074999999999999 7.069999999999999 0 7.5 0.8575 7.029999999999999 -8.9725 -0.17250000000000001 -2.8449999999999998 -0.5974999999999999 -5.6674999999999995 -1.2725 -8.435 2.5374999999999996 -38.057500000000005 -0.8075 -48.9075 5.625 -89.11749999999999 2.33 -14.5625 5.25 -31.392500000000002 21.09 -32.472500000000004 -0.0325 0.07250000000000001 -0.05 0.1525 -0.05 0.23249999999999998 0 0.0825 0.0175 0.16 0.05 0.235 14.604999999999999 47.115 16.919999999999998 117.2175 20.555 120.85499999999999 -1.2725 4.9125000000000005 -1.7025000000000001 10.0075 -1.2725 15.065 0.25 2.8249999999999997 1.9275 2.475 4.4875 2.475 22.925 0 31.3775 0.19 56.71 -1.75 0.1775 -0.0075 0.34500000000000003 -0.07250000000000001 0.485 -0.1825 0.1375 -0.10999999999999999 0.2375 -0.26 0.28500000000000003 -0.42999999999999994 0.0475 -0.17 0.04 -0.3525 -0.0225 -0.5175s-0.17500000000000002 -0.3075 -0.3225 -0.405Zm-108.26750000000001 1c-0.265 2.09 -50.837500000000006 -0.44499999999999995 -58.785 -1 5.0225 -3.2125 10.177499999999998 -6.2275 15.5325 -9.037500000000001 1.03 1.3175000000000001 1.9700000000000002 2.705 2.8125 4.1499999999999995 0.5275 0.9425 2 0.0675 1.4725 -0.8699999999999999 -0.8150000000000001 -1.4274999999999998 -1.7325 -2.7925 -2.75 -4.085 1.4725 -0.735 2.88 -1.4725 4.3525 -2.1425 1.37 1.6300000000000001 2.56 3.4050000000000002 3.55 5.29 0.48 0.9299999999999999 1.955 0.1275 1.4725 -0.8699999999999999 -0.9450000000000001 -1.8399999999999999 -2.09 -3.5675 -3.415 -5.154999999999999 1.8074999999999999 -0.8724999999999999 3.6825 -1.675 5.5 -2.4775 9.575 2.3425000000000002 19.6175 1.4725 29.325000000000003 2.1425 1.08 4.6025 1.395 9.355 0.9325 14.059999999999999v-0.005Zm50.685 0.67c-2 0 -2.4775 0.3325 -2.4775 -1.205 -0.35000000000000003 -4.67 0.0125 -9.365 1.0725 -13.927499999999998 9.3075 -0.9375 18.75 -0.6025 28.055 -1.6075 1.9175 0.7224999999999999 3.795 1.55 5.6225000000000005 2.4775 -1.2825 1.605 -2.4025 3.33 -3.3475 5.154999999999999 -0.475 0.935 0.9375 1.8074999999999999 1.4725 0.8724999999999999 0.9475 -1.88 2.0925 -3.6525000000000003 3.415 -5.29 1.4074999999999998 0.67 2.8125 1.4050000000000002 4.2175 2.1425 -0.99 1.2925 -1.885 2.6574999999999998 -2.6774999999999998 4.0825 -0.535 0.9375 0.9475 1.815 1.4725 0.8724999999999999 0.8225 -1.4449999999999998 1.7425 -2.8299999999999996 2.75 -4.1525 5.157500000000001 2.75 10.177499999999998 5.75 15.065 8.9725 -26.75 2 -54.89 1.6025 -54.64 1.6025v0.005Z" stroke-width="1"></path><path id="vector_6" fill="#fccac2" d="M429.16249999999997 239.36499999999998c-0.25 -56.75 -40.045 -56.25 -94.07 -76.1275l-1.675 4.6875c-1.4725 1.3375000000000001 -6.75 2.1275 -8.77 2.21 -4.2875000000000005 0.17 -8.772499999999999 -0.2 -11.3825 -3.8175 -3.3000000000000003 -2.0425 -76.99975 -11.9325 -128.88725 -20.285000000000004 -2.0949999999999998 17.2675 -3.4799999999999995 22.9075 -1.34 22.0925 30.54 14.02 64.055 30.172500000000003 95.77725 41.595000000000006 1.94 94 -2.1574999999999998 95.095 0.905 96.19999999999999 21.29 4.255 42.9075 6.675 64.6125 7.2299999999999995 18.655 0.21499999999999997 24.2375 0.29250000000000004 30 -0.2 9.399999999999999 -0.8075 10.017499999999998 0.0375 0.42000000000000004 -96.5 15.7725 7.069999999999999 29.33 7.584999999999999 25.157500000000002 43.3425 -1.09 9.34 -3.62 26.727500000000003 -5.157500000000001 32.875 7.5475 1.1724999999999999 14.7475 3.9825 21.092499999999998 8.235 8.8225 -19.3125 13.365 -40.305 13.317499999999999 -61.537499999999994Z" stroke-width="1"></path><path id="vector_7" fill="#501200" d="M162.21525 133.31c-0.7925 2.62 3.525 4.39475 5.75 6.62725 2.325 2.325 -3.4725 -3 -14 -5.4225 -2.9099999999999997 -0.6725000000000001 -6.7125 -1.7874999999999999 -8.035 0.8699999999999999 -1.9375 3.8874999999999997 7.75 4.865 2.8125 4.2175 -2.1375 -0.2775 -5.972499999999999 -1 -7.567500000000001 0.67 -1.355 1.4149999999999998 -0.9225 3.825 2.3449999999999998 5.3575 3.2675 1.5325 2.3925 0.3675 -0.5375 0.6675 -3.0575 0.315 -3.915 4.0200000000000005 0.6025 5.8925 1.44 0.60425 2.9162500000000002 1.1185 4.42 1.54 -2.3874999999999997 0 -5.61 -0.0325 -5.3549999999999995 2.88 0.28 3.22 4.75 3.73775 8.1675 4.48525 10.0525 2.36975 20.354999999999997 3.513 30.682499999999997 3.4050000000000002 0.21375000000000002 -0.01175 0.41500000000000004 -0.10500000000000001 0.5622499999999999 -0.2605 0.14725 -0.1555 0.2295 -0.36175 0.2295 -0.576 0 -0.214 -0.08224999999999999 -0.42025 -0.2295 -0.57575 -0.14725 -0.1555 -0.3485 -0.24875000000000003 -0.5622499999999999 -0.2605 -10.410250000000001 0.03 -20.789499999999997 -1.1385 -30.932499999999997 -3.4825 -2.3874999999999997 -0.5225 -5.5525 -1 -6.16 -2.41 -0.805 -1.8675 2.0175 -1.4074999999999998 3.6149999999999998 -1.4074999999999998h8.977500000000001c0.21375000000000002 -0.0115 0.41500000000000004 -0.10475 0.5622499999999999 -0.26025 0.14725 -0.1555 0.2295 -0.36175 0.2295 -0.576 0 -0.214 -0.08224999999999999 -0.42025 -0.2295 -0.57575 -0.14725 -0.1555 -0.3485 -0.24875000000000003 -0.5622499999999999 -0.2605 -13.6775 -1.4625 -26.73 -10.075000000000001 2.1425 -3 0.2105 0.054000000000000006 0.43374999999999997 0.02375 0.6225 -0.08399999999999999 0.18875 -0.10775 0.32825 -0.28475 0.38899999999999996 -0.4935 0.06075 -0.20875000000000002 0.038 -0.43275 -0.06375 -0.625 -0.10149999999999999 -0.19224999999999998 -0.27375 -0.33725 -0.48024999999999995 -0.40474999999999994 -5.523 -1.45175 -10.93725 -3.28975 -16.2025 -5.500249999999999 -3.1774999999999998 -1.8875 -2.7700000000000005 -5.7775 19.55 1.2725 1.0725 0.3375 1.4124999999999999 -1.21975 0.47 -1.60725 -0.25 -0.10250000000000001 -14.555 -5.8477500000000004 -14.930000000000001 -6.027749999999999 -2.325 -1.095 -1.615 -3.0975 6.2250000000000005 -0.8699999999999999 5.3835 1.4735 10.4775 3.8505000000000003 15.065 7.029999999999999 0.4005 2.18725 0.46875 4.422499999999999 0.2025 6.630000000000001 -0.0675 1.07 1.59 1.07 1.6725 0 0.9675 -12.6075 -5.1025 -12.014750000000001 -7.7 -15.599749999999998 -0.48 -0.6625000000000001 0 -1.33525 0.75 -1.54025 2.15 -0.6 12.1475 5.34 18.0775 13.8575 0.605 0.8699999999999999 2.0925 0.057499999999999996 1.4725 -0.8699999999999999 -4.4475 -6.6075 -19.8525 -19.97975 -22.047500000000003 -12.712250000000001Z" stroke-width="1"></path><path id="vector_8" fill="#501200" d="M344.66749999999996 125.8775c0.21250000000000002 0.053 0.4375 0.01925 0.6275 -0.094 0.1875 -0.11325 0.3225 -0.2965 0.375 -0.50975 0.05499999999999999 -0.21325 0.02 -0.43875 -0.0925 -0.627 -0.11249999999999999 -0.18825000000000003 -0.2975 -0.32375 -0.51 -0.37675000000000003 -2.7175 -0.775 -6.6525 0.8 -5.75 2.1425 0.5675 1.44 2.305 -1.55 5.3500000000000005 -0.535Z" stroke-width="1"></path><path id="vector_9" fill="#501200" d="M303.0875 134.11225c0.4675 0.9375 1.9475 0.1325 1.4725 -0.8699999999999999 -0.8599999999999999 -1.8125 -2.7300000000000004 -2.56 -4.1499999999999995 -3.8825 -2.75 -2.55 -0.0675 -3.9250000000000003 0.8025 -4.8875 2.67 -2.955 1.975 -7.1575 1.2725 -10.715 -0.21250000000000002 -1.0675 -1.8175 -0.6 -1.6075 0.47 0.8825 2.7910000000000004 0.74 5.805 -0.4025 8.5 -0.9025 1.3575000000000002 -4.827500000000001 3.5749999999999997 -1.8074999999999999 7.2325 1.2725 1.54 3.4825 2.29 4.42 4.1525Z" stroke-width="1"></path><path id="vector_10" fill="#501200" d="M311.86 118.33500000000001c-0.385 1.555 0.025 4.0875 1.75 4.25 1.25 0.125 1.9075 -1.6 1.6500000000000001 -3.0825000000000005 -0.3025 -1.6700000000000002 -2.8025 -3.58 -3.4000000000000004 -1.1675Z" stroke-width="1"></path><path id="vector_11" fill="#501200" d="M291.8975 119.27c-0.23249999999999998 1.555 0.25 3.7025 1.8175 3.8625 1.2325 0.125 1.9775 -1.6800000000000002 1.6275 -3.2 -0.2975 -1.295 -2.96 -3.9325 -3.445 -0.6625000000000001Z" stroke-width="1"></path><path id="vector_12" fill="#501200" d="M357.25 125.47475c-2.7700000000000005 -14.067499999999999 5.077500000000001 -32 -16.205000000000002 -44.055 -8.7775 -4.975 -17.295 -3.22 -21.75 1.75 -12.87 -16.3375 -56.8125 6.265 -35.62 21.1575 -3.4749999999999996 20.855 -7.2975 40.53 -7.2975 55.0375 0 0.22225 0.08750000000000001 0.43525 0.245 0.5922499999999999s0.37 0.24525000000000002 0.5925 0.24525000000000002 0.43499999999999994 -0.08825 0.5925 -0.24525000000000002c0.1575 -0.15699999999999997 0.245 -0.37 0.245 -0.5922499999999999 -0.0375 -16.1725 3.21 -29.0625 7.1625000000000005 -54.1 3.2224999999999997 1.8125 3.4675000000000002 0.9850000000000001 3.1475 1.9425000000000001 -1.4775 22.152500000000003 -2.185 28.02 -1.0725 35.285000000000004 1.9725000000000001 12.8675 10.75 22.832499999999996 25.5 20.085 -0.45999999999999996 1.155 -0.2 0.8375 -0.6675 1.0725 -3.4625 2.42375 -6.215000000000001 5.7295 -7.970000000000001 9.575 -1.2075 2.7 1.575 3.15 4.62 5.154999999999999 9.6225 6.3325 11.5 11.100000000000001 12.052499999999998 8.37 0.6025 -4.285 1.2725 -8.5 1.875 -12.79 2.4125 4.644 5.307500000000001 9.0205 8.6375 13.0575 0.095 0.0895 0.21000000000000002 0.156 0.335 0.19474999999999998 0.1225 0.03875 0.255 0.04875 0.385 0.02925 0.1275 -0.0195 0.25 -0.06799999999999999 0.3575 -0.14175 0.10749999999999998 -0.07400000000000001 0.1975 -0.17125 0.2625 -0.28475 9.9275 -18 9.397499999999999 -17.869999999999997 9.105 -18.947499999999998 -1.6975000000000002 -3.077 -4.2575 -5.5905000000000005 -7.365 -7.2299999999999995 -1.1749999999999998 -1.8375 -1.7825 -3.9795000000000003 -1.75 -6.16 0.6174999999999999 -5.9275 8.02 -10.98 5.154999999999999 -21.292499999999997 13.572500000000002 0.45999999999999996 15.065 -9.835 11.315 -13.39 -3.6775 -3.5 -8.84 -0.42000000000000004 -13.0575 -0.135 -7.625 0.515 -16.77 -4.859999999999999 -19.6175 -19.884999999999998 -0.395 -2.0825 -5.45 1.865 -16.86 4.069999999999999 -10.120000000000001 1.9525000000000001 -11.2875 1.43 -14.62 -0.6925000000000001 -5.6775 -3.62 -7.4775 -10.06 -0.925 -15.8975 9.445 -8.4175 28.25 -12 34.4825 -2.41 1.3925 2.1475 1.96 -3.6725000000000003 10.175 -4.6875 9.389999999999999 -1.1600000000000001 22.512500000000003 7.8149999999999995 25.310000000000002 19.6175 1.8725 7.9 0.1825 16.1375 1.34 24.169999999999998 2.3075 16.03 17.75 33.337500000000006 9.105 48.945 -0.5225 0.9425 0.95 1.815 1.4725 0.8699999999999999 8.945 -16.1375 -5.725 -33.2325 -8.692499999999999 -48.285Zm-37.83 59.25c-3.85 -3.9074999999999998 -8.275 -7.204000000000001 -13.122499999999999 -9.775 -0.9525 -0.5 -0.9099999999999999 -0.5750000000000001 -0.605 -1.34 1.4949999999999999 -3.19375 3.7475000000000005 -5.97425 6.5625 -8.100000000000001 0.3175 1.392 1.0075 2.6705 2 3.6972500000000004 0.9925 1.027 2.245 1.7627499999999998 3.625 2.12775 1.1175 0.283 2.2625 0.43999999999999995 3.415 0.4675 -0.5974999999999999 4.29 -1.2675 8.575000000000001 -1.87 12.9275l-0.005 -0.005Zm15.3325 -17.75c0.5475 -1.24475 0.6425000000000001 -2.6425 0.2675 -3.95 1.2825 0.8512500000000001 2.45 1.859 3.4825 3 1.9700000000000002 2.2175000000000002 2.06 2.3000000000000003 0.735 4.42 -0.47750000000000004 1.075 -4.5825 9 -7.5 14.395 -3.2325 -4.087 -6.015000000000001 -8.508750000000001 -8.3025 -13.19 3.84 -0.4 9.565 -0.7274999999999999 11.315 -4.65l0.0025 -0.025Zm-44.725 -59.8575c0 -1.6 5.692500000000001 1.0425 24.972500000000004 -6.025 3.3375 15.1325 13.3825 21.1325 21.894999999999996 20.085 3.6025 -0.4425 9.5175 -3.2750000000000004 11.65 0.67 0.355 0.752 0.545 1.5712499999999998 0.5575 2.4027499999999997 0.0125 0.8315 -0.155 1.656 -0.49 2.41725 -1.8199999999999998 4.6825 -7.835 5.09 -12.12 4.8225 -2.565 0 2.8075 5.0975 -2 14.25 -1.8275 3.4725 -4.3149999999999995 7.102500000000001 -3.4825 11.25 0.8925 4.4375 8.5825 12.5 -8.705 13.055000000000001 -7.0575 0.22999999999999998 -9.64 -4.25 -8.0325 -7.029999999999999 0.09 -0.131 0.13 -0.28875 0.1175 -0.44675 -0.0125 -0.15800000000000003 -0.0775 -0.30724999999999997 -0.185 -0.42325 2.3425000000000002 -0.57625 4.6274999999999995 -1.36125 6.83 -2.3449999999999998 1 -0.42500000000000004 0.125 -1.8925 -0.8724999999999999 -1.4725 -9.5525 4.0175 -19.48 4.455 -26.044999999999998 -3.6149999999999998 -8.6175 -10.56 -5.6475 -26.177500000000002 -4.085 -47.5825l-0.005 -0.0125Z" stroke-width="1"></path><path id="vector_13" fill="#501200" d="M312 137.595c-7.534999999999999 3.7674999999999996 -11.944999999999999 2.4675 -10.780000000000001 4.2175 0 0.47 2.315 6.487500000000001 2.6774999999999998 7.365 2.22 5.3774999999999995 6.647499999999999 5.797499999999999 8.84 2.6125 2.56 -3.735 2.205 -15.29 -0.7374999999999999 -14.195Z" stroke-width="1"></path><path id="vector_14" fill="#501200" d="M314.805 110.8125c0.55 0.6875 1.98 -0.0425 1.205 -1.205 -2.1 -2.6525 -6.484999999999999 -2.9625000000000004 -6.295 -1.54 0.0075 0.13899999999999998 0.04 0.2755 0.10250000000000001 0.40075 0.06 0.12525 0.14500000000000002 0.237 0.25 0.328 0.10500000000000001 0.091 0.22999999999999998 0.15949999999999998 0.3625 0.2015 0.1325 0.041999999999999996 0.2725 0.056249999999999994 0.41000000000000003 0.042249999999999996 0.7575 -0.067 1.52 0.06075 2.2125 0.371 0.6950000000000001 0.31 1.2975 0.7925 1.7525 1.4015Z" stroke-width="1"></path><path id="vector_15" fill="#501200" d="M290.9675 113.625c0.2 0.09625 0.42750000000000005 0.118 0.6425000000000001 0.061000000000000006 0.21250000000000002 -0.05675 0.4 -0.1885 0.525 -0.371 0.7324999999999999 -1.00625 1.8275 -1.68775 3.0525 -1.9 2.13 0 1.61 -1.675 0.67 -1.675 -3.15 0.01 -6.494999999999999 3.0825000000000005 -4.89 3.8850000000000002Z" stroke-width="1"></path><path id="vector_16" fill="#501200" d="M279.52000000000004 199.06c-0.96 0 -1.1400000000000001 1.105 -1.1400000000000001 8.3025 0 0.222 0.08750000000000001 0.43499999999999994 0.245 0.5920000000000001 0.1575 0.15725 0.37 0.2455 0.5925 0.2455s0.43499999999999994 -0.08825 0.5925 -0.2455c0.1575 -0.15699999999999997 0.245 -0.37 0.245 -0.5920000000000001 0 -7.279999999999999 0.905 -8.3025 -0.535 -8.3025Z" stroke-width="1"></path><path id="vector_17" fill="#501200" d="M375.6 216.87c-1.5 -6.109999999999999 0.25 -8.3025 -1.4074999999999998 -8.3025 -1.8275 0 -0.5874999999999999 7 -0.1325 8.77 0.19 1.0050000000000001 1.805 0.6025 1.54 -0.4675Z" stroke-width="1"></path><path id="vector_18" fill="#501200" d="M422.735 328.8175c1.47 -12.809999999999999 -4.77 -19.39 -7.5 -20.405 0.5800000000000001 -2.8525 1.03 -5.58 1.2875 -7.38 0 -0.9375 -1.675 -0.8724999999999999 -1.8074999999999999 0.1325 -0.525 3.93 -2.5824999999999996 17.9625 -6.43 19.6175 -0.685 0.295 -0.8025 0.10500000000000001 -0.8025 -2.41 -0.0025 -1.3425 0.08750000000000001 -2.685 0.2675 -4.0175 0.05499999999999999 -0.21000000000000002 0.0225 -0.43499999999999994 -0.085 -0.6225 -0.10749999999999998 -0.19 -0.28500000000000003 -0.3275 -0.49250000000000005 -0.39 -0.21000000000000002 -0.06 -0.4325 -0.0375 -0.625 0.065 -0.1925 0.1 -0.3375 0.2725 -0.405 0.48 -1.7374999999999998 4.4075 -2.18 6.65 -3 6.157500000000001 -0.75 -0.44499999999999995 1.2925 -6.545 1.4074999999999998 -7.2299999999999995 0.05499999999999999 -0.21000000000000002 0.0225 -0.43499999999999994 -0.085 -0.6225 -0.10749999999999998 -0.19 -0.28500000000000003 -0.3275 -0.49250000000000005 -0.39 -0.21000000000000002 -0.06 -0.4325 -0.0375 -0.625 0.065 -0.1925 0.1 -0.3375 0.2725 -0.405 0.48 -0.28 0.7775 -1.42 5.692500000000001 -4.0175 6.2924999999999995 -1.515 0.35000000000000003 -0.5 -2.4425 -0.135 -3.95 3.085 -5.5525 -0.2675 -5.545 -0.2675 -4.3525 0.28250000000000003 0 -0.42750000000000005 0.41000000000000003 -1.2725 3.6149999999999998 -0.7224999999999999 1.4474999999999998 -2.455 3.7225 -4.0175 3.0149999999999997 -2.0825 -0.8025 2.4325 -11.085 0.335 -11.3825 -0.1375 -0.03 -5.21 -0.9550000000000001 -5.29 -1.0725 -0.165 -0.25 1.1875 -10.0675 7.165 -11.114999999999998 1.075 -0.1875 0.605 -1.7974999999999999 -0.4675 -1.6075 -5.015 0.8975 -7.06 6.1275 -8.102500000000001 11.114999999999998 -0.095 0.41750000000000004 -0.1625 0.8425 -0.2025 1.27 -1.48 0.265 -2.8949999999999996 0.8200000000000001 -4.1575 1.635 -1.2650000000000001 0.8175 -2.355 1.875 -3.205 3.115 -1.9175 2.88 -3.175 6.15 -3.6825 9.5725 -7.182500000000001 -1.6625 -14.5225 -2.56 -21.894999999999996 -2.6774999999999998 -5.7925 1.1300000000000001 -6.397500000000001 6.172499999999999 -14.25 31.47 -11.555 37.1725 -2.9125 36.0975 15.465 41.3775 67.7775 19.4675 71.7825 19.724999999999998 76.33 15.265 2.4675 -2.4225 3.5475000000000003 -9.2825 8.905 -32.8075 8.622499999999999 -38.0225 7.504999999999999 -35.625 -17.445 -42.3075Zm-38.565 -8.6375c0.24 -1.7225 1.07 -3.31 2.3449999999999998 -4.495 1.275 -1.1824999999999999 2.9175 -1.8925 4.655 -2.005 -0.42500000000000004 2.8075 -0.28 4.327500000000001 1.56 4.95 0.6575 0.1775 1.35 0.1775 2.0075000000000003 0.0025 0.66 -0.1775 1.26 -0.5225 1.7425 -1.0025 -0.17250000000000001 3.285 2.8775 3.35 4.8875 1.34 -0.3925 3.325 3.03 3.795 4.42 0.67 0 -0.0675 0.065 -0.135 0.065 -0.2675 0 4.93 4.4174999999999995 3.3200000000000003 6.132499999999999 -0.06h0.027499999999999997c0.98 -0.195 1.4725 6.155 1.4725 7.2299999999999995 -14.5725 -3.4325 -19.6475 -4.34 -29.315 -6.3625Z" stroke-width="1"></path><path id="vector_19" fill="#ffffff" d="M441.8175 359.75c-0.5 -0.25 -96.58 -24.707499999999996 -97.55250000000001 -24.369999999999997 -0.9725 0.3375 -0.6025 1.8074999999999999 0.2675 1.6725 0.25 0.085 8.28 1.865 17.475 4.285 -0.20750000000000002 0.3125 -2.13 6.69 -0.8699999999999999 8.9725 1.3025 2.3575 5.1125 2.02 6.6274999999999995 -1.9425000000000001 0.3525 -0.915 1.35 -5.04 1.4074999999999998 -5.29 44.4325 11.09 44.3225 10.915 44.3225 11.5175 -4.0225 12.067499999999999 3.915 11.594999999999999 5.8925 6.4275 0.545 -1.6475 0.9925 -3.325 1.34 -5.0225 0.08750000000000001 0.025 20.4375 5.25 20.3525 5.2225 0.8724999999999999 0.47 1.6700000000000002 -0.99 0.7374999999999999 -1.4725Z" stroke-width="1"></path><path id="vector_20" fill="#ff7449" d="M315.2075 13.249975000000001c-0.2025 -1.0725 -1.81 -0.6025 -1.6075 0.4675 2.9125 15.365025000000001 5.0225 29.322525000000002 6.8275 43.455025000000006 0.13 1 1.81 1 1.675 -0.0675 0.25 0.01 -2.7775 -21.880000000000003 -6.895 -43.855025000000005Z" stroke-width="1"></path><path id="vector_21" fill="#ff7449" d="M361.205 13.527425c0.39 -1 -1.25 -1.4674999999999998 -1.6075 -0.47 -5.452500000000001 15.500825 -10.077499999999999 31.279575 -13.86 47.270075 -0.25 1.0775 1.34 1.54 1.6075 0.47 3.2575 -16.125 7.8925 -31.93975 13.86 -47.270075Z" stroke-width="1"></path><path id="vector_22" fill="#ff7449" d="M403.4525 33.75c0.8075 -0.7324999999999999 -0.41250000000000003 -1.8875 -1.205 -1.205 -12.2825 10.565 -25.147499999999997 22.7725 -36.29 33.3425 -0.67 0.75 0.47 1.9425000000000001 1.2725 1.205 0.3675 -0.0025 1.905 -2.1725 36.222500000000004 -33.3425Z" stroke-width="1"></path><path id="vector_23" fill="#501200" d="M462.7075 351.71500000000003c-0.20500000000000002 1.0725 1.4025 1.4725 1.6075 0.47 1.2525 -6.455 0.9975 -13.1125 -0.745 -19.4525 -1.7425 -6.342499999999999 -4.9225 -12.195 -9.2975 -17.105 -0.75 -0.8575 -1.9425000000000001 0.335 -1.2075 1.1375 0.8699999999999999 0 13.4525 15.04 9.6425 34.95Z" stroke-width="1"></path><path id="vector_24" fill="#501200" d="M479.1125 356.40250000000003c-0.35000000000000003 1 1.25 1.4674999999999998 1.605 0.47 2.31 -6.53 3.14 -13.49 2.435 -20.38 -0.705 -6.887499999999999 -2.9325 -13.535 -6.5175 -19.46 -0.6 -1 -2.0774999999999997 -0.1325 -1.4749999999999999 0.805 0.7474999999999999 0 10.99 18.427500000000002 3.9524999999999997 38.565Z" stroke-width="1"></path></g><g id="ribbon"><path id="vector_25" fill="#ff7449" d="M274.03 412.98C256.5625 347.35 237.23524999999998 281.71 225.62025 245c4.8025 -9.4125 6.8500000000000005 -14.4225 16.405 -17.2075 20.02475 -5.8375 5.540000000000001 -25.2 12.117249999999999 -38.835 3.4699999999999998 -7.1899999999999995 10.115 -13.092500000000001 10.3125 -21.0225 0.2025 -8.25 -6.8925 -14.25 -10.8475 -21.09 -4.499750000000001 -7.800000000000001 -2.94 -15.5625 -4.08475 -24.0375 -1.6175000000000002 -11.985 -8.5 -14.057500000000001 -15.465 -17.5425 -9.567499999999999 -4.785 -11.77 -12.197499999999998 -17.475 -20.085 -12.98 -17.9475 -22.3725 -7.4399999999999995 -32.942499999999995 -9.375 -9.6875 -1.7725 -16.6375 -13.25 -27.385 -12.117500000000001 -10.5 1.095 -17.217499999999998 12.325 -27.585 13 -6.16 0.395 -12.5275 -2.0324999999999998 -18.6125 -0.1325 -10.389999999999999 3.25 -10.2125 16.305 -17.5425 22.6975 -7.83 6.8275 -21.150000000000002 4.0225 -27.1175 17.5425 -2.13975 4.6915000000000004 -2.4735 10.0075 -0.9375 14.930000000000001 -0.1255 0.147 -0.20025 0.33075 -0.21225 0.5237499999999999 -0.01225 0.193 0.0385 0.38449999999999995 0.14475 0.54625 5.8375 10.8375 -10.467500000000001 21.4525 -7.6325 34.015 1.9100000000000001 8.455 9.635 13.629999999999999 11.315 22.63 1.6400000000000001 8.764999999999999 -1.7725 19.07 -0.3325 28.59 2.7800000000000002 18.392500000000002 15.9525 14.1875 22.75 19.55 1.7730000000000001 1.46975 3.3285 3.1835000000000004 4.62 5.09 -29.267500000000002 52.265 -54.81 97.56 -78.47 146.63 -0.3525 0.7274999999999999 0.27 1.88 1.1375 1.54 15.098 -5.9399999999999995 29.715500000000002 -13.0375 43.722500000000004 -21.225 3.6025 15.622499999999999 8.02525 31.0425 13.25 46.2 0.06325 0.185 0.17675 0.35000000000000003 0.32775 0.475 0.151 0.125 0.33375 0.20500000000000002 0.52775 0.23249999999999998 0.194 0.03 0.392 0.0025 0.5720000000000001 -0.075 0.18 -0.0775 0.33475 -0.20500000000000002 0.4475 -0.365 29.162499999999998 -46.1675 51.0575 -99.45 72.9125 -147.0325 6.8725000000000005 3.3075 13.0825 2.5774999999999997 20.019999999999996 -0.75 11.792499999999999 53.0675 21.4325 104.14249999999998 40.105000000000004 158 0.057749999999999996 0.19 0.16875 0.36 0.31975000000000003 0.49 0.151 0.13 0.33575 0.21250000000000002 0.5325 0.24 0.19699999999999998 0.03 0.39775 0 0.579 -0.0825 0.18100000000000002 -0.0825 0.335 -0.21250000000000002 0.44375 -0.38 8.2875 -13.73 15.867500000000001 -27.875 22.71 -42.3775 11.980500000000001 10.9025 24.76725 20.8825 38.24975 29.860000000000003 0.1675 0.11249999999999999 0.365 0.17250000000000001 0.5675 0.17 0.2025 0 0.4 -0.0625 0.5650000000000001 -0.18 0.165 -0.11499999999999999 0.29250000000000004 -0.2775 0.3625 -0.4675 0.07250000000000001 -0.19 0.085 -0.3975 0.035 -0.5925Z" stroke-width="1"></path><path id="vector_26" fill="#ffffff" d="M231.17775 149.1775c-12.5625 -51.965 -76.41 -74.885 -117.63999999999999 -35.8875 -48.665000000000006 46.0325 -30.5025 123.53999999999999 41.847500000000004 130.35999999999999 60.6675 5.72 87.285 -46.935 75.7925 -94.4725Zm-22.8975 77.86749999999999c-22.192500000000003 19.365000000000002 -60.1725 18.98 -85.5 5.09 -58.442499999999995 -32.0475 -35.4725 -116.62 19.015 -133.5 14.353 -4.1905 29.67475 -3.6405 43.69025 1.5684999999999998 14.015500000000001 5.2090000000000005 25.9775 14.799 34.10975 27.3465 20.025 30.790000000000003 14.305000000000001 77.14 -11.315 99.495Z" stroke-width="1"></path><path id="vector_27" fill="#ffffff" d="M128.53775000000002 257.3775c-12.802500000000002 -2.405 -15.954999999999998 3.0425000000000004 -31.805 -13 -0.9325 -0.9425 -2.4074999999999998 0.53225 -1.4725 1.4722499999999998 15.52 15.62275 19.75 11.98525 30 13.12275 8.07175 0.9850000000000001 15.655 4.395 21.75 9.7775 1 0.8775 2.4725 -0.5974999999999999 1.4749999999999999 -1.4749999999999999 -5.641 -5.03 -12.531 -8.4475 -19.9475 -9.8975Z" stroke-width="1"></path><path id="vector_28" fill="#ffffff" d="M223.88025 246.79749999999999c-13.540000000000001 18.85 -35.89 -4.705 -52.1575 19.8175 -0.75 1.1300000000000001 1.075 2.1475 1.8074999999999999 1.0725 15.91 -23.3675 36.385 0.32 52.089999999999996 -19.884999999999998 0.79 -1.0150000000000001 -0.9825 -2.0524999999999998 -1.7399999999999998 -1.0050000000000001Z" stroke-width="1"></path><path id="vector_29" fill="#ffffff" d="M188.25025 162.97c-5.542 -1.21975 -11.197999999999999 -1.84825 -16.8725 -1.875 -2.0675 -5.1675 -7.0575 -13.75 -9.91 -20.22 -0.09525 -0.15425 -0.22825 -0.28125 -0.38649999999999995 -0.36949999999999994 -0.15800000000000003 -0.08800000000000001 -0.33625000000000005 -0.1345 -0.51725 -0.1345 -0.18100000000000002 0 -0.35924999999999996 0.0465 -0.51725 0.1345 -0.15825 0.08825 -0.29125 0.21525 -0.38649999999999995 0.36949999999999994 -3.38125 6.729500000000001 -6.39825 13.63625 -9.037500000000001 20.689999999999998 -5.825 -0.2025 -11.5825 -0.0675 -17.41 0 -0.8025 0 -1.47 1.135 -0.735 1.75 4.2075000000000005 3.465 8.129999999999999 8.1975 11.315 11.3825 1.48 1.48 2.6624999999999996 0.52 -0.8699999999999999 11.114999999999998 -1.1285 3.0955 -2.02425 6.271 -2.68 9.5 -0.04625 0.19824999999999998 -0.0335 0.40575 0.037000000000000005 0.59675 0.07025 0.191 0.195 0.3575 0.35874999999999996 0.47825 0.164 0.121 0.35950000000000004 0.1915 0.56275 0.2025 0.20350000000000001 0.011000000000000001 0.4055 -0.0375 0.5815 -0.14 6.035 -3.735 12.5225 -6.6274999999999995 18.145 -11.114999999999998 4.75 4.1525 10.069999999999999 7.6 15 11.65 0.164 0.1555 0.374 0.25425 0.5985 0.28125 0.2245 0.027000000000000003 0.45175 -0.01875 0.6479999999999999 -0.131 0.1965 -0.11225 0.35150000000000003 -0.28475 0.44200000000000006 -0.492 0.09075 -0.207 0.11225 -0.438 0.0615 -0.65825 -0.75 -5.5 -1.6075 -10.915 -1.9425000000000001 -16.4725 4.8875 -4.75 9.105 -10.177499999999998 14.1275 -14.7975 0.09625 -0.15025 0.15725 -0.32025 0.178 -0.49724999999999997 0.02075 -0.17725000000000002 0.001 -0.35675 -0.05825 -0.525 -0.059 -0.16825 -0.15575 -0.32075 -0.28250000000000003 -0.446 -0.127 -0.12525 -0.28075 -0.21999999999999997 -0.44975 -0.27675Z" stroke-width="1"></path></g></g></svg>