<svg xmlns="http://www.w3.org/2000/svg" fill="none" viewBox="0 0 500 500" id="Success-2--Streamline-Manchester.svg" height="500" width="500"><desc>Success 2 Streamline Illustration: https://streamlinehq.com</desc><g id="success-2--interface-success-2"><g id="hand 2"><path id="vector" fill="#fccac2" d="M357.8975 231.14999999999998c-4.385 -4.5875 -17.09 16.5 -19.5625 10.5975 -6.8525 -16.335 -4.0425 -40.38 -6.5225 -58.0775 -0.37 -2.6525 -1.6300000000000001 -18.3475 -5.705 -17.7275 -2.6500000000000004 0.4025 -3.5 7.33 -3.8724999999999996 9.375 -5.33 29.082499999999996 -1.6700000000000002 46.1925 -2.8525 44.4225 -1.6300000000000001 -2.445 -1.8199999999999998 -10.192499999999999 -2.445 -13.25 -10.802499999999998 -52.9075 -20.21 -59.105 -13.6525 4.2775 0 0.8150000000000001 1.6300000000000001 12.0225 0.8150000000000001 12.2275 -2.3425000000000002 0.39 -1.7075 -9 -15.2825 -38.5 -1.03 -2.2375 -3.0575 -6.93 -5.7075 -6.93 -9.145 0 11.34 60.2975 7.9475 62.56 -2.085 -2.9705 -3.9250000000000003 -6.10575 -5.5 -9.375 -2.7875 -6.345 -12.165 -33.59 -16.915 -28.5275 -4.83 5.15 1.7799999999999998 23.0425 3.25 28.119999999999997 8.055 27.599999999999998 15.895 64.8025 32.1975 89.25 0.625 0.6225 3.0725000000000002 -6.53 33.42 -35.865l-0.20500000000000002 -0.20500000000000002c-0.7000000000000001 -18.494999999999997 25.735 -46.989999999999995 20.5925 -52.3725Z" stroke-width="1"></path><path id="vector_2" fill="#501200" d="M440.8325 409.25c-48.6075 -46.515 -98.8175 -127.97 -101.27499999999999 -127.97 -0.75 0 -0.5825 -0.027499999999999997 -1.6300000000000001 1.0174999999999998 0.75 -18.065 26.724999999999998 -45.8175 20.785 -51.75 -5.5600000000000005 -5.5600000000000005 -16.425 13.9375 -19.36 11 -6.915 -16.3475 -4.185 -40.35249999999999 -6.5200000000000005 -57.8725 0 -0.25 -1.41 -15.25 -4.89 -17.93 -8 -5.335 -9.48 29.5 -9.5775 39.125 -0.10999999999999999 10.75 -0.5375 2.1525 -0.6125 1.8325 -1.395 -6.092499999999999 -6.1125 -26.4875 -7.9475 -30.157500000000002 -2.25 -7.54 -4.282500000000001 -12.465 -7.1325 -12.0225 -2.4475 0.3775 -2.8525 4.4825 -2.8525 10.3925 0.245 14.99225 1.33 29.958999999999996 3.25 44.83 -1 -2.3200000000000003 -12.7825 -42.792500000000004 -20.377499999999998 -42.792500000000004 -9.865 0 5.2225 45.2325 7.1325 60.519999999999996 -6.2775 -10.75 -13.647499999999999 -35.62 -20.172500000000003 -36.2725 -8.465 0 -2.4475 19.970000000000002 0.2025 27.9175 0.09 0.36 6.2175 21.6525 6.317500000000001 22 6.75 23.78 14.059999999999999 50.75 26.695 69.6925 -10.954999999999998 32.8625 41.9675 146.92249999999999 45.25 146.92249999999999 0.5775 0.0025 96.98 -54.402499999999996 92.715 -58.4825Zm-136.7325 -90.475c-16.54 -25.362499999999997 -24.5925 -67.25 -31.585 -88.23499999999999 -1.8825 -5.645 -7.617500000000001 -23.045 -3.465 -27.3075 1.2375 -1.2675 3.6875 2.725 4.6875 4.28 3.4775 3.4775 12.925 32.8925 16.912499999999998 34.03 6.637499999999999 0 -13.89 -56.8175 -8.149999999999999 -62.5575 3.3600000000000003 -3.3600000000000003 15.0225 29.5 16.5 34.2325 3.25 10.337499999999999 4.074999999999999 11.412500000000001 5.300000000000001 11.21 1.225 -0.2025 1.6300000000000001 -0.41000000000000003 0.2025 -12.2275 0 -0.2675 -7.98 -71.53999999999999 3.465 -35.05s7.2075 44.22 11.8175 44.22c1.7000000000000002 -0.68 0.10500000000000001 -1.7874999999999999 0.6125 -16.0975 1.08 -30.535 6.32 -54.465 9.985000000000001 -22.2125 0.0325 0.41250000000000003 0.1 0.8215 0.2025 1.2225 2.3449999999999998 17.5825 -0.385 41.529999999999994 6.5225 58.4825 2.5 7.5 14.3125 -10.595 18.95 -10.595 0.20500000000000002 0 0.6125 0.2025 0.6125 0.40750000000000003 1.4149999999999998 1.7000000000000002 -1.835 7.765 -1.835 8.149999999999999 -3.06 9.182500000000001 -19.5525 27.3825 -18.95 43.6075 -6.3125 6.317500000000001 -25.6725 25.677500000000002 -31.785 34.44Z" stroke-width="1"></path><path id="vector_3" fill="#501200" d="M191.4125 48.16c-0.051250000000000004 -0.137 -0.1295 -0.26225 -0.22974999999999998 -0.3685 -0.10024999999999999 -0.1065 -0.22075 -0.1915 -0.35450000000000004 -0.25075000000000003 -0.13375 -0.059 -0.27799999999999997 -0.09075 -0.42424999999999996 -0.09325 -0.146 -0.0027500000000000003 -0.29125 0.023999999999999997 -0.42700000000000005 0.07825 -0.13575 0.05425 -0.25925 0.135 -0.36325 0.23775000000000002 -0.104 0.10275 -0.1865 0.22525 -0.24275000000000002 0.36025 -0.056 0.135 -0.08449999999999999 0.27975 -0.08399999999999999 0.426 0.0007499999999999999 0.146 0.03075 0.29075 0.08800000000000001 0.42525 26.4375 63.620000000000005 25.910000000000004 63.375 27.1025 63.375 2.3175 0 2.9875000000000003 3.3125 -25.064999999999998 -64.19Z" stroke-width="1"></path><path id="vector_4" fill="#501200" d="M225.25 12.499925000000001c-1.6225 0 -1.5 -4.53 5.705 80.28757499999999 0.5 2 2.0374999999999996 1.135 2.0374999999999996 0.2025C226.1775 12.579925000000001 226.695 12.499925000000001 225.25 12.499925000000001Z" stroke-width="1"></path><path id="vector_5" fill="#501200" d="M272.9225 84.23c-1.02 -1.225 -0.40750000000000003 -3.8724999999999996 1.6300000000000001 -7.54 3.02 -4.619 7.155 -8.40225 12.0225 -11 -5.375 10.75 7.5 16.3825 14.265 9.375 5.795 -6.015000000000001 -0.22999999999999998 -13.8575 -7.75 -13.8575 9.97 -8.235 17.73 -3.65 17.73 -6.5200000000000005 0.0075 -0.13599999999999998 -0.015 -0.27175 -0.0625 -0.39875 -0.05 -0.127 -0.125 -0.2425 -0.21999999999999997 -0.33849999999999997 -0.0975 -0.09625 -0.21250000000000002 -0.17125 -0.34 -0.21999999999999997 -0.125 -0.0485 -0.2625 -0.07 -0.3975 -0.06275 -3.83 -0.17149999999999999 -7.6525 0.48625 -11.2025 1.92825 -3.5525 1.442 -6.75 3.6342499999999998 -9.3775 6.42675 -6.6925 2.69475 -12.385 7.3925 -16.3025 13.45 -1.02 1.8325 -3.8724999999999996 6.7225 -1.6300000000000001 9.78 0.78 1.5474999999999999 2.4625 -0.1875 1.635 -1.0225Zm16.5 -19.155c1.21 -2.4225 7.5249999999999995 -2.3899999999999997 10.3925 1.8325 3.84 5.6525 -4.355 12.09 -10.3925 7.9475 -3.4775 -2.3899999999999997 -2.405 -6.4675 0.005 -9.78h-0.005Z" stroke-width="1"></path><path id="vector_6" fill="#501200" d="M314.28999999999996 261.5125c-0.17500000000000002 0.1275 -0.3025 0.305 -0.3675 0.51 -0.0675 0.20500000000000002 -0.065 0.42500000000000004 0.0025 0.63 0.0675 0.20500000000000002 0.2 0.3825 0.375 0.5075000000000001 0.17500000000000002 0.125 0.385 0.19 0.6 0.1875 0.8999999999999999 0 5.0625 -4.25 5.705 -4.89 7.824999999999999 -7.824999999999999 9.225 -5.949999999999999 8.56 -7.9475 -1.975 -2.96025 -11.3075 8.625 -14.875 11.0025Z" stroke-width="1"></path><g id="group"><path id="vector_7" fill="#ff7449" d="M336.09250000000003 27.375c-2.58 -1.795 -6.915 1.0125000000000002 -9.78 2.445 -0.23249999999999998 0.141 -0.4 0.366 -0.4675 0.6279999999999999 -0.07 0.262 -0.035 0.54075 0.095 0.7777499999999999 0.1325 0.237 0.35000000000000003 0.414 0.61 0.494 0.2575 0.08 0.5375 0.05675 0.78 -0.06475 2.1625 -1.08 5.6825 -3.325 7.3375 -2.8525 -0.8799999999999999 3.95 -9.58 21 -11.21 27.1025 -0.045 0.13475 -0.06 0.27799999999999997 -0.0425 0.41924999999999996 0.02 0.141 0.07 0.276 0.15 0.39425 0.0775 0.11825000000000001 0.1825 0.21675 0.3075 0.28775 0.1225 0.07075 0.26 0.11225 0.4025 0.12125 1.47 0 0.20750000000000002 -0.44499999999999995 6.9275 -14.8775 5.659999999999999 -12.1525 6.095000000000001 -14.035 4.89 -14.875Z" stroke-width="1"></path><path id="vector_8" fill="#ff7449" d="M344.4475 54.275000000000006c11.33 -3.1325 17.9525 -24.93 6.9275 -26.695 -13.8025 -2.2125 -22.4625 30.987499999999997 -6.9275 26.695Zm-6.317500000000001 -8.56c0.6925000000000001 -6.8475 5.2875000000000005 -15.895 13.042499999999999 -15.895 4.4825 0.6125 3.8724999999999996 6.725 3.6675000000000004 7.54 -2.0100000000000002 14.58 -18.060000000000002 21.73 -16.71 8.355Z" stroke-width="1"></path><path id="vector_9" fill="#ff7449" d="M377.0525 35.3225c-0.28 -1.21975 -0.8500000000000001 -2.35325 -1.665 -3.303 -0.8150000000000001 -0.9495 -1.85 -1.68675 -3.0125 -2.1479999999999997 -1.1625 -0.46149999999999997 -2.4225 -0.633 -3.665 -0.5 -1.245 0.133 -2.4375 0.5667500000000001 -3.4775 1.2634999999999998 -8.110000000000001 8.110000000000001 -9.145 23.0275 -1.0174999999999998 23.0275 6.7 0 13.987499999999999 -11.7375 12.837499999999999 -18.34Zm-9.985000000000001 15.2825c-8.8175 5.1125 -8.37 -10.58 -0.40750000000000003 -18.5425 0.94 -0.6777500000000001 2.1025 -0.9694999999999999 3.25 -0.8150000000000001 10.95 2.1875 1.8175 16.6575 -2.8425000000000002 19.3575Z" stroke-width="1"></path><path id="vector_10" fill="#ff7449" d="M364.21500000000003 62.425c-8.615 -1.035 -35.39 0.21999999999999997 -37.087500000000006 -0.20500000000000002 -0.1925 -0.07225 -0.4025 -0.08349999999999999 -0.6 -0.03225 -0.2 0.051000000000000004 -0.3775 0.16199999999999998 -0.51 0.318 -0.135 0.15575 -0.21749999999999997 0.349 -0.2375 0.55325 -0.02 0.20425 0.025 0.40974999999999995 0.125 0.5885 0.41500000000000004 1.6675 23.119999999999997 -0.3825 38.105000000000004 0.8150000000000001 0.14 0.026 0.28250000000000003 0.02275 0.42250000000000004 -0.0095 0.1375 -0.0325 0.2675 -0.09325 0.3825 -0.17850000000000002 0.11249999999999999 -0.08524999999999999 0.20750000000000002 -0.19324999999999998 0.2775 -0.317 0.07 -0.12375 0.11249999999999999 -0.26075000000000004 0.1275 -0.40225 0.015 -0.1415 0 -0.28425 -0.045 -0.4195 -0.0425 -0.1355 -0.11499999999999999 -0.26 -0.21000000000000002 -0.36624999999999996 -0.0925 -0.10625000000000001 -0.21000000000000002 -0.19175 -0.3375 -0.251 -0.13 -0.05925 -0.27 -0.09125 -0.41250000000000003 -0.0935Z" stroke-width="1"></path><path id="vector_11" fill="#ff7449" d="M358.305 68.33525c-8.1275 -0.17 -25.9525 1.0174999999999998 -30.16 1.0174999999999998 -0.1575 -0.02375 -0.32 -0.0065 -0.47 0.050499999999999996 -0.1475 0.05675 -0.28 0.15125 -0.3825 0.274 -0.10250000000000001 0.123 -0.17250000000000001 0.27025 -0.2 0.42750000000000005 -0.03 0.15725 -0.0175 0.31925000000000003 0.035 0.47050000000000003 0.665 2 3.88 -0.2025 31.177500000000002 -0.2025 0.2625 -0.013 0.5075000000000001 -0.126 0.6875 -0.31575 0.1825 -0.1895 0.28250000000000003 -0.44125 0.28250000000000003 -0.7030000000000001 0 -0.262 -0.1 -0.5137499999999999 -0.28250000000000003 -0.7032499999999999 -0.18 -0.18974999999999997 -0.42500000000000004 -0.30275 -0.6875 -0.3155Z" stroke-width="1"></path></g></g><g id="hand 1"><path id="vector_12" fill="#ffffff" d="M263.34499999999997 224.42499999999998c-7.5875 -0.66 -15.794999999999998 36.1525 -16.0975 37.2925 -1.02 -0.6125 0.40750000000000003 -12.635000000000002 0.61 -13.8575 1.02 -15.69 3.25 -31.3775 3.0575 -47.072500000000005 -0.2725 -20.927500000000002 -8.7775 -20.1925 -12.430000000000001 -3.0549999999999997 -2.31 10.83 -1.835 29.267500000000002 -4.6899999999999995 42.517500000000005 0.25 0 -3.485 -42.77 -7.3325 -64.72749999999999 -0.42999999999999994 -2.4425 -4.0600000000000005 -13.57 -7.9475 -12.837499999999999 -8.2 1.545 -0.75 41.39 -3.79 76.8825 0 -1.2225 -3.9575 -15.75 -4.565 -18.195 -7.6775 -30.9125 -11.332500000000001 -46.5125 -16.912499999999998 -45.85 -8.8 1.045 3.6425 37.3475 6.3149999999999995 68.6725 -1.565 0 -0.75 0.9075 -5.2975 -6.9275 -1.56 -2.6925 -10.595 -11.625 -10.8 -3.465 -0.18 7.25 6.5649999999999995 25.365000000000002 8.355 38.105000000000004 1.575 11.215 1.02 17.73 1.6300000000000001 19.36 -1.87 0.935 -2.4475 -0.8400000000000001 5.705 7.75 28.232499999999998 29.725 24.057499999999997 30.362499999999997 27.5 30.362499999999997 13.45 -10.1875 21.035 -25.3525 24.155 -41.847500000000004 4.4174999999999995 -23.3625 13.5 -42.175000000000004 13.959999999999999 -56.415 0.1325 -3.8474999999999997 -0.24 -6.5874999999999995 -1.4249999999999998 -6.6925Z" stroke-width="1"></path><path id="vector_13" fill="#ffb949" d="M226.46249999999998 331c-4.1575 -10.395000000000001 -26.1625 -32.0675 -37.902499999999996 -43.81 -1.205 -1.205 -1.0925 0.135 -22.822499999999998 26.6925 -87.855 107.52499999999999 -110.1675 110.0675 -106.2125 114.7725 7.577500000000001 9.0125 88.865 53.127500000000005 99.08 58.64 0.5 0 0.355 0.665 1.2225 -0.2025 0 -1.8074999999999999 67.9225 -100.7475 66.635 -156.0925Z" stroke-width="1"></path><path id="vector_14" fill="#ffffff" d="M221.57 355.045c-3.6675000000000004 -3.25 -8.75 -7.5375000000000005 -15.485 -12.6325 4.2775 -6.725 9.17 -13.45 14.059999999999999 -19.7675 0.1465 -0.21749999999999997 0.20400000000000001 -0.48250000000000004 0.16049999999999998 -0.74 -0.0435 -0.2575 -0.1845 -0.49 -0.39375 -0.6475 -0.2095 -0.1575 -0.47125 -0.22749999999999998 -0.73125 -0.1975 -0.26 0.0325 -0.49825 0.16 -0.6655 0.3625 -5.098000000000001 6.2875000000000005 -9.794 12.889999999999999 -14.059999999999999 19.7675 -7.1325 -5.5 -15.6925 -12.0225 -24.0475 -18.1375 18.5 -23.6875 18.9225 -23.055 17.73 -24.25 -0.9375 -0.9375 -0.8825 -0.9099999999999999 -19.5625 23.025000000000002 -4.28 -3.25 -8.355 -6.1125 -11.412500000000001 -8.355 -0.40750000000000003 -0.40750000000000003 -1.0174999999999998 -0.2025 -1.4249999999999998 0.20500000000000002 -1.035 1.035 0.5325 1.6625 11.615 9.5775 -11.412500000000001 14.875 -23.6375 30.77 -35.25 46.052499999999995 -4.89325 -2.6475 -9.988249999999999 -5.5 -15.285 -8.557500000000001 -0.243 -0.135 -0.52975 -0.1675 -0.7969999999999999 -0.0925 -0.26725 0.0775 -0.493 0.2575 -0.6279999999999999 0.5 -0.135 0.2425 -0.16775 0.53 -0.0915 0.7975 0.0765 0.2675 0.256 0.49250000000000005 0.499 0.6275 5.2975 3.0575 10.1875 5.91 15.077499999999999 8.56 -10.8 14.059999999999999 -21.395 28.325 -31.7875 41.57 -22.330000000000002 -11.944999999999999 -21.727500000000003 -12.1 -22.822499999999998 -11 -0.675 1.35 -0.07250000000000001 1.0425 21.6 12.635000000000002 -23.2775 30.314999999999998 -22.862499999999997 29.622500000000002 -23.23 30.362499999999997 -0.75 0.75 0.475 2.3775 1.6300000000000001 1.2225 0.75 -1.4749999999999999 1.6025 -1.6275 23.432499999999997 -30.567500000000003 18.4375 9.9275 22.185000000000002 12.1325 40.75 21.805 -6.32925 11.0025 -13.413 21.555 -21.200000000000003 31.58 -0.1465 0.21749999999999997 -0.20400000000000001 0.48250000000000004 -0.16049999999999998 0.74 0.04325 0.2575 0.18425 0.49 0.39375 0.6475s0.47125 0.22749999999999998 0.73125 0.195c0.26 -0.03 0.49825 -0.1575 0.6655 -0.36 7.73675 -10.177499999999998 14.88125 -20.790000000000003 21.397499999999997 -31.7875 27.25 14.295 27.115000000000002 13.462499999999999 27.5 13.855 0.24025000000000002 -0.0075 0.47075 -0.0975 0.654 -0.2525 0.18325000000000002 -0.1575 0.30874999999999997 -0.37 0.356 -0.605 0.047 -0.235 0.01325 -0.48 -0.09599999999999999 -0.6950000000000001 -0.1095 -0.21499999999999997 -0.288 -0.385 -0.5065 -0.485 0.3425 0 -2.3075 -0.5375 -26.8975 -13.6525 8.7775 -15.1175 16.5 -29.5125 24.4525 -44.83 0 0 13.7925 7.73 24.4525 13.6525 1.75 0 1.4324999999999999 -1.2149999999999999 0.8150000000000001 -1.835 -10.66 -5.92 -24.4525 -13.6525 -24.4525 -13.6525 8.149999999999999 -15.2825 16.912499999999998 -31.38 26.2875 -45.85 6.5200000000000005 5.095 11.615 9.17 15.2825 12.4325 0.64 0.62 2.3449999999999998 -0.3225 1.4449999999999998 -1.2225Zm-77.6375 15.4875c11.615 -15.2825 23.6375 -31.177500000000002 35.25 -45.85 8.56 6.115 17.1175 12.635000000000002 24.25 18.1375 -9.370000000000001 14.68 -18.1325 30.77 -26.284999999999997 46.052499999999995 -10.595 -5.705 -21.6 -11.8175 -33.214999999999996 -18.34Zm7.54 65c-3.6725000000000003 -1.9125 -29.855 -15.825 -40.5525 -21.6 10.19 -13.45 21 -27.5 31.5875 -41.57 11.8175 6.725 22.822499999999998 12.837499999999999 33.417500000000004 18.5425 -8.2725 15.3675 -15.854999999999999 30.2225 -24.4525 44.63250000000001v-0.005Z" stroke-width="1"></path><path id="vector_15" fill="#501200" d="M263.34499999999997 223.4075c-5.75 -0.3825 -13.16 19.285 -14.75 24.6625 1.4674999999999998 -15.69 8.352500000000001 -70.25 -4.5975 -63.7875 -7.592499999999999 3.6149999999999998 -8.3475 25.317500000000003 -8.75 33 -2.1975 57.1075 -1.05 -58.885 -17.525 -55.832499999999996 -9.2775 1.4625 -1.1975 44.615 -3.465 72.95 -9.79 -32.62 -12.802500000000002 -61.2925 -21.6 -60.317499999999995 -10.1975 2.0425 1.6075 31.69 5.2975 67.8575 -0.9625 -1.605 -2.8625 -5.04 -3.25 -5.705 -1.0174999999999998 -1.4249999999999998 -6.5200000000000005 -7.9475 -10.1875 -7.1325 -8.45 2.415 7.5375000000000005 28.372500000000002 7.5375000000000005 62.765 0.5 1 2.46 0.025 1.835 -1.225 -0.43499999999999994 -0.8724999999999999 0.0625 -8.942499999999999 -1.4274999999999998 -19.3575 -1.75 -14.5 -11.23 -39.1175 -7.5375000000000005 -40.3475 2.2825 -0.5 8.05 5.3500000000000005 9.5775 9.17 2 3.485 2.64 5 3.6675000000000004 4.4825 0.5175 4.66 -0.057499999999999996 6.317500000000001 1.4249999999999998 6.317500000000001 0.26475 -0.0175 0.5145000000000001 -0.13 0.7022499999999999 -0.3175 0.18775 -0.1875 0.30075 -0.4375 0.31775 -0.7025000000000001 -4.25 -42.6175 -12.87 -67.6275 -8.967500000000001 -72.95 3.8674999999999997 -3.8674999999999997 7.4175 7.75 8.75 13.040000000000001 10.607500000000002 42.425 12.515 47.61 13.25 50.5375 0.00825 0.24025000000000002 0.0975 0.47075 0.253 0.654 0.15575 0.18350000000000002 0.36874999999999997 0.30874999999999997 0.6044999999999999 0.356 0.23575 0.047 0.48050000000000004 0.01325 0.69475 -0.09599999999999999 0.21425 -0.1095 0.385 -0.28775 0.48524999999999996 -0.5065 0 -1.2825 1.12 -11.22 0.8150000000000001 -22.2125 -1.6275 -41.5 -2.605 -54.574999999999996 1.2225 -55.427499999999995 2.445 -0.405 6.25 8.977500000000001 6.725 12.0225 3 19.03 6.5200000000000005 50.129999999999995 7.75 65.6175 -0.43700000000000006 1.79675 -0.9812500000000001 3.5657499999999995 -1.6300000000000001 5.2975 -0.5225 1.4749999999999999 4.3149999999999995 7.7175 6.1125 -29.14 0.355 -6.5775 1.0174999999999998 -28.02 7.3375 -31.177500000000002 10.145 -5.074999999999999 0.515 64.715 0.675 73.835 0.0625 3.65 2.3275 4.6925 3.1950000000000003 -1.0875 5.3549999999999995 -24.1 15.932500000000001 -42.685 15.6925 -27.712500000000002 -0.20500000000000002 12.677499999999998 -7.345000000000001 23.5175 -13.655 56.445 -6.1075 31.875 -27.919999999999998 40.14 -25.470000000000002 42.59 0.07875 0.10999999999999999 0.17850000000000002 0.2 0.2935 0.27 0.11499999999999999 0.07 0.243 0.11499999999999999 0.376 0.135 0.133 0.0175 0.26849999999999996 0.01 0.39825 -0.025s0.25125000000000003 -0.095 0.35725 -0.1775c13.75325 -10.309999999999999 23.076249999999998 -25.459999999999997 26.0825 -42.385000000000005 5.9225 -30.8275 20.2425 -63.86 11.3825 -64.3825Z" stroke-width="1"></path></g></g></svg>