<svg xmlns="http://www.w3.org/2000/svg" fill="none" viewBox="0 0 500 500" id="Success-3--Streamline-Manchester.svg" height="500" width="500"><desc>Success 3 Streamline Illustration: https://streamlinehq.com</desc><g id="success-3--interface-success-3"><g id="elements"><path id="vector" fill="#ff7449" d="M322.955 81.5925c20 -4.205 22.974999999999998 -18.75 22.75 -27.91 -3.7375000000000003 1.19725 -7.694999999999999 1.54475 -11.585 1.0174999999999998 -5.6525 -1.1300000000000001 -11.1325 -5.6775 -10.32 -11.080000000000002 1.4775 -9.795 13.200000000000001 -7.0875 16.98 -3.705 3.205 2.75725 5.6525 6.2844999999999995 7.1175 10.25 14.1625 -5.470000000000001 20.787499999999998 -17.96 13.3975 -35.8325 -0.10749999999999998 -0.31789999999999996 -0.09 -0.6647749999999999 0.05 -0.970075 0.14 -0.3053 0.39 -0.5461 0.7000000000000001 -0.673475 0.31 -0.12735 0.6575 -0.13169999999999998 0.97 -0.012175 0.315 0.11955 0.5700000000000001 0.35402500000000003 0.7174999999999999 0.6557250000000001 8.0225 19.4 0.5 33.6025 -15.4175 39.5 0.34750000000000003 8.25 -1.625 26.475 -24.82 31.3475 -0.3425 0.07150000000000001 -0.7000000000000001 0.004 -0.9950000000000001 -0.188 -0.29250000000000004 -0.19199999999999998 -0.49750000000000005 -0.49250000000000005 -0.5675 -0.83575 -0.07250000000000001 -0.34299999999999997 -0.005 -0.70075 0.1875 -0.994 0.19 -0.29325 0.49250000000000005 -0.49825 0.8350000000000001 -0.56975Zm3.4475 -37.545c-0.5800000000000001 4.0675 4.355 7.2875 8.2375 8.065 3.62 0.43275 7.2924999999999995 0.056249999999999994 10.75 -1.1025 -1.2375 -3.54225 -3.4175 -6.67925 -6.3075 -9.0725 -1.8725 -1.5675 -11.6175 -5.324999999999999 -12.68 2.11Z" stroke-width="1"></path><path id="vector_2" fill="#ff7449" d="M436.97249999999997 219.7175c0.17250000000000001 -0.1225 17.4 -12.4075 34.88 -23.189999999999998 0.2975 -0.18325000000000002 0.6575 -0.24075 0.9975 -0.15925 0.34 0.08125 0.635 0.29475 0.8200000000000001 0.593 0.1825 0.29825 0.24 0.6572500000000001 0.1575 0.998 -0.08 0.34049999999999997 -0.295 0.635 -0.5925 0.8182499999999999 -17.4 10.735 -34.557500000000005 22.970000000000002 -34.7275 23.090000000000003 -0.14 0.10075 -0.3 0.17275 -0.47 0.21175 -0.17 0.03924999999999999 -0.34500000000000003 0.04475 -0.515 0.016 -0.17 -0.0285 -0.335 -0.09050000000000001 -0.48250000000000004 -0.18225000000000002 -0.1475 -0.092 -0.275 -0.21175 -0.375 -0.353 -0.1 -0.14125000000000001 -0.17250000000000001 -0.30075 -0.21250000000000002 -0.46975 -0.0375 -0.16899999999999998 -0.045 -0.344 -0.015 -0.51525 0.027499999999999997 -0.171 0.09 -0.33475 0.1825 -0.482 0.0925 -0.147 0.21250000000000002 -0.27475 0.3525 -0.3755Z" stroke-width="1"></path><path id="vector_3" fill="#ff7449" d="M52.655 160.42249999999999c-14.3625 1.275 -21.3175 -6.055000000000001 -24.25 -10.705 -2.5895 -4.14725 -3.9810499999999998 -8.93025 -4.0207749999999995 -13.8195 -0.0397 -4.88925 1.274025 -9.694 3.795775 -13.883000000000001 0.09625 -0.14375000000000002 0.21975 -0.2675 0.36374999999999996 -0.36374999999999996 0.144 -0.09599999999999999 0.3055 -0.16299999999999998 0.47524999999999995 -0.19675 0.16975 -0.03375 0.34475 -0.03375 0.5145000000000001 0 0.16975 0.03375 0.33125000000000004 0.10075 0.47524999999999995 0.19675 0.144 0.09625 0.2675 0.21999999999999997 0.36374999999999996 0.36374999999999996 0.09625 0.144 0.16299999999999998 0.3055 0.19699999999999998 0.47550000000000003 0.03375 0.16975 0.03375 0.34450000000000003 -0.00025 0.51425 -0.03375 0.17 -0.1005 0.33125000000000004 -0.19675 0.47524999999999995 -2.2142500000000003 3.7727500000000003 -3.35975 8.07725 -3.3137499999999998 12.4515 0.04625 4.37425 1.2825 8.6535 3.5762500000000004 12.378499999999999 4.42 7 12.102500000000001 10.302500000000002 21.79 9.4825 -1.125 -12.09 9.0225 -24.544999999999998 17.5225 -18.189999999999998 6.36 4.75 -0.37 18.9175 -14.6675 20.5 1.8825 8.262500000000001 6.2924999999999995 19.25 28 18.1025 0.34775 -0.01 0.68575 0.1145 0.944 0.34725 0.2585 0.23275 0.41725 0.5559999999999999 0.4435 0.9027499999999999 0.009 0.17325000000000002 -0.016 0.34650000000000003 -0.07400000000000001 0.51 -0.057749999999999996 0.1635 -0.1475 0.31399999999999995 -0.26349999999999996 0.443 -0.11599999999999999 0.12875 -0.2565 0.23349999999999999 -0.41300000000000003 0.308 -0.1565 0.0745 -0.32625000000000004 0.11775000000000001 -0.4995 0.1265 -0.9175 0.045 -26.4175 3.7 -30.7625 -20.419999999999998Zm2.4 -2.955c10.25 0 17.81 -12.415000000000001 13.0675 -15.954999999999998 -6.3325 -4.7299999999999995 -14.4675 7.545 -13.0675 15.954999999999998Z" stroke-width="1"></path><path id="vector_4" fill="#ff7449" d="M435.75 238.7725c-0.275 -0.04625 -0.5275 -0.17925 -0.7224999999999999 -0.37975000000000003 -0.195 -0.20025 -0.32 -0.4575 -0.3575 -0.7340000000000001 -0.0375 -0.2765 0.0125 -0.558 0.14500000000000002 -0.8035000000000001 0.135 -0.24525000000000002 0.3425 -0.4415 0.595 -0.56025 0.1925 -0.09 19.305 -9.1625 38.405 -16.7125 0.16 -0.06375 0.3325 -0.095 0.505 -0.09225 0.17500000000000002 0.0027500000000000003 0.34500000000000003 0.03950000000000001 0.505 0.1085 0.1575 0.06875 0.3025 0.16825 0.42250000000000004 0.29275 0.12 0.12425 0.21499999999999997 0.27125 0.2775 0.43225 0.065 0.161 0.0975 0.333 0.0925 0.5062500000000001 -0.0025 0.173 -0.0375 0.344 -0.10749999999999998 0.50275 -0.07 0.159 -0.1675 0.30275 -0.29250000000000004 0.42325 -0.125 0.1205 -0.2725 0.21525 -0.4325 0.279 -19 7.515 -38.0375 16.5475 -38.25 16.6425 -0.245 0.11249999999999999 -0.52 0.14575 -0.785 0.095Z" stroke-width="1"></path><path id="vector_5" fill="#501200" d="M118.625 61.89725h-3.5v-7.2775c0 -0.35000000000000003 -0.13899999999999998 -0.68575 -0.38649999999999995 -0.93325 -0.24774999999999997 -0.2475 -0.5835 -0.38675000000000004 -0.9335 -0.38675000000000004s-0.68575 0.13924999999999998 -0.9335 0.38675000000000004c-0.2475 0.2475 -0.38649999999999995 0.58325 -0.38649999999999995 0.93325v7.2775H109c-0.35000000000000003 0 -0.68575 0.13924999999999998 -0.9335 0.38675000000000004 -0.2475 0.2475 -0.38649999999999995 0.58325 -0.38649999999999995 0.93325 0 0.35025 0.13899999999999998 0.6859999999999999 0.38649999999999995 0.9335 0.24774999999999997 0.2475 0.5835 0.38649999999999995 0.9335 0.38649999999999995H112.5v7.275c0 0.35025 0.13899999999999998 0.6859999999999999 0.38649999999999995 0.9335 0.24774999999999997 0.2475 0.5835 0.38649999999999995 0.9335 0.38649999999999995s0.68575 -0.13899999999999998 0.9335 -0.38649999999999995c0.2475 -0.2475 0.38649999999999995 -0.58325 0.38649999999999995 -0.9335v-7.275h3.5c0.35000000000000003 0 0.68575 -0.13899999999999998 0.9335 -0.38649999999999995 0.2475 -0.2475 0.38649999999999995 -0.58325 0.38649999999999995 -0.9335 0 -0.35000000000000003 -0.13899999999999998 -0.68575 -0.38649999999999995 -0.93325 -0.24774999999999997 -0.2475 -0.5835 -0.38675000000000004 -0.9335 -0.38675000000000004h-0.015Z" stroke-width="1"></path><path id="vector_6" fill="#501200" d="M416.35249999999996 134.16525000000001H413.5v-5.9575c-0.027499999999999997 -0.28025 -0.1575 -0.54025 -0.365 -0.72975 -0.20750000000000002 -0.18925 -0.47750000000000004 -0.29425 -0.76 -0.29425 -0.28250000000000003 0 -0.5525 0.10500000000000001 -0.76 0.29425 -0.20750000000000002 0.1895 -0.3375 0.44949999999999996 -0.365 0.72975v5.9575h-2.8449999999999998c-0.28 0.026250000000000002 -0.54 0.15625 -0.73 0.36424999999999996 -0.19 0.20825 -0.295 0.47925 -0.295 0.76075 0 0.28125 0.10500000000000001 0.5525 0.295 0.7605000000000001 0.19 0.208 0.44999999999999996 0.33799999999999997 0.73 0.36450000000000005h2.8449999999999998v5.96c0.027499999999999997 0.28 0.1575 0.54 0.365 0.7295 0.20750000000000002 0.18925 0.47750000000000004 0.29425 0.76 0.29425 0.28250000000000003 0 0.5525 -0.10500000000000001 0.76 -0.29425 0.20750000000000002 -0.1895 0.3375 -0.44949999999999996 0.365 -0.7295v-5.949999999999999h2.8449999999999998c0.3 0.001 0.5874999999999999 -0.11725 0.8 -0.32849999999999996 0.21250000000000002 -0.21125000000000002 0.3325 -0.49825 0.335 -0.79775 0 -0.29975 -0.1175 -0.5874999999999999 -0.33 -0.80025 -0.21000000000000002 -0.21250000000000002 -0.49750000000000005 -0.3325 -0.7975 -0.33349999999999996Z" stroke-width="1"></path><path id="vector_7" fill="#501200" d="M67.4075 322.6425h-2.8449999999999998v-5.9575c-0.0265 -0.28 -0.1565 -0.54 -0.36450000000000005 -0.73 -0.208 -0.19 -0.47925 -0.29250000000000004 -0.7605000000000001 -0.29250000000000004 -0.28125 0 -0.5525 0.10250000000000001 -0.7605000000000001 0.29250000000000004 -0.208 0.19 -0.33799999999999997 0.44999999999999996 -0.36450000000000005 0.73v5.9575h-2.8525c-0.28 0.027499999999999997 -0.54025 0.1575 -0.7295 0.365 -0.1895 0.20750000000000002 -0.29425 0.48 -0.29425 0.76 0 0.28250000000000003 0.10475 0.5525 0.29425 0.76 0.18925 0.20750000000000002 0.44949999999999996 0.3375 0.7295 0.365h2.8425000000000002v5.96c0.0265 0.28 0.1565 0.54 0.36450000000000005 0.73 0.208 0.19 0.47925 0.295 0.7605000000000001 0.295 0.28125 0 0.5525 -0.10500000000000001 0.7605000000000001 -0.295 0.208 -0.19 0.33799999999999997 -0.44999999999999996 0.36450000000000005 -0.73v-5.96h2.8449999999999998c0.28025 -0.025 0.541 -0.155 0.73125 -0.36 0.19025 -0.20750000000000002 0.2965 -0.48 0.29775 -0.76 0.00125 -0.28250000000000003 -0.10250000000000001 -0.5525 -0.29100000000000004 -0.7625 -0.1885 -0.20750000000000002 -0.448 -0.34 -0.728 -0.3675Z" stroke-width="1"></path></g><g id="hands"><path id="vector_8" fill="#ffffff" d="M38 450.88500000000005c14.616249999999999 13.194999999999999 31.8505 23.1575 50.578 29.24 18.7275 6.085000000000001 38.52725 8.149999999999999 58.107 6.0625 0 0 49.3275 -102.5275 58.550000000000004 -126.28500000000001l-11.485000000000001 -6.715c6.672000000000001 -4.085 12.821499999999999 -8.967500000000001 18.3125 -14.54l13.8575 80.125 47.512499999999996 -49.8375 36.78 54.9425s11.879999999999999 35 19.0675 50.2225c0 0 70.46249999999999 18.3825 122.665 -21.075 -31.5 -36.9075 -64.6925 -88.0925 -90.41499999999999 -129.225l-10.89 7.032500000000001c-1.885 -6.527500000000001 -2.59 -13.334999999999999 -2.0825 -20.11 1.555 -11.0175 20.915 -49.8125 12.295 -53.8675 -8.8575 -4.17 -14.17 8.855 -14.17 8.855s6.1675 -55.5625 -10 -57c-10 -0.885 2.1875 27.4625 -7.92 53.25 0 0 -1.47 -57.2825 -11.045 -58.142500000000005 -12.762500000000001 -1.145 -1.355 28.8625 -6.6674999999999995 59.185 0 0 -6.1475 -46.89 -15.317499999999999 -46.3675 0 0 -12.7125 -43.32 -16.045 -44.805 -3.3325 -1.4849999999999999 -10.525 0.5225 -10.525 0.5225 -2.64 -8.47775 -4.387499999999999 -17.20875 -5.21 -26.05 0 0 18.075000000000003 -16.79 26.6225 -36.78 10.16 -23.75 4.1499999999999995 -48.4525 -4.9 -47.317499999999995 -10.725 1.3450000000000002 -0.25 26.389999999999997 -15.262500000000001 36.964999999999996 10.0675 -33.7675 1.9775 -75.47505 -12.66 -76.86005 -15.825 -1.5 4.5325 41.770050000000005 -11.407499999999999 63.14255 0 0 0.8425 -22.635 -5.6274999999999995 -40.322500000000005C234.03500000000003 26.847500000000004 217.75 14.18245 212.12 16.597450000000002 192.5475 24.999950000000002 229.9375 51.224999999999994 219.46750000000003 85.61c0 0 -11.1025 -12.09 -23.912499999999998 -13.129999999999999 -17.105 -1.3875000000000002 -36.885 10.4725 -35.3225 22.349999999999998 2.915 22.160000000000004 36.94 -16.947499999999998 49.4125 18.13 8.727500000000001 24.540000000000003 -17.06 28.602500000000003 -26.4375 18.13 -4.445 -4.9625 -18.75 -21.880000000000003 -25.474999999999998 -18.285 -13.0275 6.965 2.1775 34.185 20.395 44.542500000000004 23.365000000000002 13.285 34.307500000000005 5.9399999999999995 36.415 28.485 0 0 -12.112499999999999 3.3975 -13.205 5.04 -1.0925 1.6425 1.4050000000000002 18.677500000000002 1.4050000000000002 18.677500000000002 -7.2075 16.74425 -12.32925 34.311 -15.25 52.305 0.17500000000000002 -9.030000000000001 0.83525 -18.042 1.9775 -27 1.98 -14.584999999999999 2.14 -23.799999999999997 -1.7175000000000002 -24.067500000000003 -12.035 -0.8350000000000001 -18.39 48.8675 -18.39 48.8675s-6.1975 -9.2075 -11.305 -4.0125c-6.2 6.305 3.695 46.045 3.9325 48.9525 0.5225 6.3575 -3.3600000000000003 16.3275 -8.25 19.4525 0 0 -7.5 -6.25 -9.3775 -7.3975 -0.02 0.0125 -34.405 37.6725 -106.36250000000001 134.235Z" stroke-width="1"></path><path id="vector_9" fill="#ffb949" d="M193.75 353.1875s13.8825 -9.2275 18.3125 -14.54l13.8575 80.125s-25.052500000000002 27.575 -30.67 29.2875l-8.379999999999999 -40.332499999999996s17.75 -41.105000000000004 18.3825 -47.824999999999996l-11.5025 -6.715Z" stroke-width="1"></path><path id="vector_10" fill="#ffb949" d="M116.52250000000001 348.39s27.087500000000002 -32.2225 27.82 -31.727500000000003c0.7324999999999999 0.495 8.412500000000001 7.422499999999999 9.3775 7.3975 0.9650000000000001 -0.025 8.25 -8.58 8.25 -16.845000000000002 0 -8.265 -9.9375 -44.2675 -4.859999999999999 -50.1025 5.077500000000001 -5.835 10.6725 -1 12.370000000000001 1.625 0 0 6.734999999999999 -49.972500000000004 18.265 -47.9375 7.970000000000001 1.4050000000000002 -1.4849999999999999 33.785 -0.195 48.295 0 0 10.275 -42.75 15.1975 -49.545 0 0 -2.7350000000000003 -17.1925 -1.4050000000000002 -18.677500000000002 1.33 -1.4849999999999999 13.205 -5.04 13.205 -5.04S214.25 173.75 207.25 169.695c-7 -4.055000000000001 -23.127499999999998 -8.3275 -31.8675 -14.05 0 0 1.105 8.97 0.165 9.360000000000001 -0.94 0.39 -73.94999999999999 -23.5825 -75.175 -21.8275 -1.225 1.755 46.275000000000006 60.129999999999995 46.7825 62.3075 0.73 3.1274999999999995 -111.02000000000001 38.435 -111.02000000000001 42.042500000000004 0 5.157500000000001 99.195 30.175 99.56 32.1975 1.0925 6.095000000000001 -19.1725 68.665 -19.1725 68.665Z" stroke-width="1"></path><path id="vector_11" fill="#ffb949" d="M168.42 102.0375c6.276000000000001 -1.7274999999999998 12.637 -3.12925 19.0575 -4.2 7.0875 -0.9225 20.6325 2.3075 23.272499999999997 18.865000000000002 2.1075 13.2175 -5.05 23.1325 -20.7025 18.5925 -7.675 -2.225 -12.397499999999999 -11.7875 -18.6475 -16.4875l-2.98 -16.77Z" stroke-width="1"></path><path id="vector_12" fill="#ffb949" d="M168.16500000000002 80.555s11.25 -8.085 20.377499999999998 -7.9425c0 0 -18.945 -24.565 -22.040000000000003 -24.25 -3.0949999999999998 0.315 1.6625 32.1925 1.6625 32.1925Z" stroke-width="1"></path><path id="vector_13" fill="#ffb949" d="M269.1675 172.35250000000002s-4.7925 -16.15 -5.21 -26.05c0 0 13.665000000000001 -13.100000000000001 16.5475 -19.235 0 0 4.135 11.8375 4.5275 12 0.3925 0.1625 91.35249999999999 -53.6075 94.78999999999999 -52.045s-39.3225 94.39999999999999 -38.6025 96.58250000000001c0.72 2.1825 86.2125 -6.295 86.89750000000001 -3.9074999999999998 0.685 2.3874999999999997 -51.535000000000004 46.825 -51.42 49.074999999999996 0.11499999999999999 2.25 89.8675 55.64 88.77499999999999 58.767500000000005 -1.0925 3.1274999999999995 -95.685 14.452499999999999 -96.2775 16.7225 -0.5925 2.27 52.472500000000004 78.5625 50.64 80.31 -1.8325 1.7474999999999998 -20.8325 -2.75 -20.8325 -2.75s-36.605 -58.5725 -37.465 -58.0225l-10.89 7.032500000000001c-2.1275 -8.1425 -2.435 -16.6525 -0.905 -24.927500000000002 2.8000000000000003 -11.6575 15.805 -36.339999999999996 13.3575 -45.7175 -2.1125 -8.0875 -12.25 -3.6475 -15.237499999999999 3.1950000000000003 0 0 2.8725 -54.5225 -9.77 -54.3025 -9 0.1575 -4.4275 13.285 -4.5325 26.9 -0.41500000000000004 8.837 -2.0275000000000003 17.5775 -4.7925 25.979999999999997 0 0 -1.0925 -58.0675 -11.045 -58.142500000000005 -14.17 -0.10250000000000001 -0.41750000000000004 28.1325 -6.6674999999999995 59.185 0 0 -6.095000000000001 -45.3775 -15.317499999999999 -46.3675 0 0 -12.8675 -43.5275 -16.045 -44.805 -3.1774999999999998 -1.2775 -10.525 0.5225 -10.525 0.5225Z" stroke-width="1"></path><path id="vector_14" fill="#501200" d="M467.5275 287.66749999999996c-0.4575 -4.34 -67.575 -44.982499999999995 -89.445 -58.955 6.1675 -6.86 50.355 -45.12 52.102500000000006 -48.25 0.11499999999999999 -0.2405 0.17250000000000001 -0.505 0.165 -0.7717499999999999 -0.0075 -0.26675 -0.08 -0.5275 -0.21000000000000002 -0.76075 -1.0174999999999998 -1.5725 -5.6000000000000005 -1.61 -45.25 1.6975000000000002 -17.0425 1.4224999999999999 -38.0175 3.1624999999999996 -42.3225 2.6525 0.925 -4.8925 11.5825 -29.42 20.2275 -49.325 16.8525 -38.7875 19.635 -45.9025 18.6175 -47.59 -1.3275000000000001 -2.1825 -5 -1.0725 -68 35.5 -12.46 7.2325 -24.295 14.105 -27.54 15.72 -1.31 -3.47575 -2.405 -7.02825 -3.2800000000000002 -10.6375 6.8275 -9.47775 11.52 -20.32375 13.75 -31.79 3.145 -17.9325 -1.7825 -26.955 -4.0475 -30 -1.8275 -2.4575 -5.5375 -5.8375 -10.105 -3.125 -4.1625 2.475 -3.5975 14.0325 -3.67 14.822500000000002 -0.9575 10.4775 -3.795 15.985 -6.0325 18.775 6.83 -25.6725 3.4025 -52.1275 -3.8975 -65.75 -2.4475 -4.5725 -8.5625 -11.63505 -14.97 -7.40255 -4.9175 3.25005 -3.73 14.37755 -2.75 26.72255 0.8875 11.215 1.7874999999999999 19.970000000000002 -3.3625 32.385000000000005 -0.095 -56.449999999999996 -30.674999999999997 -70.83505 -38.9 -64.69505 -6.9375 5.1775 -2.6025 14.15005 2.8875 25.50005 1.045 2.1675 2.145 4.44 3.2325 6.8175 6.132499999999999 13.405000000000001 5.16 28.6225 4.3725000000000005 35 -3.5380000000000003 -4.37425 -8.070500000000001 -7.8395 -13.21925 -10.107 -5.149 -2.2675 -10.76525 -3.27125 -16.38075 -2.928 -21.355 -27.06 -23.43 -24.3675 -23.177500000000002 -24.375 -0.26675 0.008499999999999999 -0.52825 0.07425 -0.76725 0.193 -0.23900000000000002 0.1185 -0.44975 0.28725 -0.61775 0.4945 -2.5 2.9499999999999997 0.1175 23.807499999999997 1.41 32.9625 -2.777 2.38525 -4.9655 5.37975 -6.395 8.75 -1.6775000000000002 4.1725 -3.3200000000000003 15.642499999999998 7.8675 14.23l1.8025 12.515c-11.9475 -9.54 -16.634999999999998 -2.2175000000000002 -17.5775 1.845 -2.1625 9.325 4.5625 27.192500000000003 21.75 38.5325 0 0.075 0.6425000000000001 5.862500000000001 0.6225 7.4525 -10.2225 -2.135 -71.1225 -23.5675 -74.83 -22.044999999999998 -3.3525 1.335 1.6225 7.635 25.034999999999997 36.3275 8.8675 10.867500000000001 19.802500000000002 24.267500000000002 21.269999999999996 27.222499999999997 -3.75 2.7325 -31.307499999999997 12.052499999999998 -53.6075 19.5925 -47.115 15.927500000000002 -57.39 19.92 -57.85 22.5 -0.5775 3.25 9.265 7.0825000000000005 71.905 24.7975 13.43 3.7975 26.1475 7.3925 28.380000000000003 8.3675 0.655 4.515000000000001 -20.887500000000003 69.8025 -20.84 70.03 -31.0625 39.2025 -73.97 96.375 -76.5375 99.80000000000001 -0.20975 0.28 -0.3 0.63 -0.25075000000000003 0.9775 0.049 0.34500000000000003 0.23375 0.6575 0.51325 0.8674999999999999 0.27949999999999997 0.21000000000000002 0.63075 0.3 0.97675 0.25 0.346 -0.0475 0.6585000000000001 -0.23249999999999998 0.86825 -0.5125 0.885 -1.18 87.215 -116.21499999999999 104.85749999999999 -133.66250000000002 5.430000000000001 4.6625 33.985 28.75 59.42999999999999 42.169999999999995 -2.9275 8.9475 -24.5 73.01249999999999 -58.324999999999996 125.0175 -0.09675 0.14500000000000002 -0.164 0.3075 -0.19724999999999998 0.48 -0.0335 0.17 -0.0325 0.34750000000000003 0.0027500000000000003 0.5175 0.035 0.17250000000000001 0.10375000000000001 0.335 0.20224999999999999 0.47750000000000004 0.09825 0.14500000000000002 0.22425 0.2675 0.3705 0.3625 0.14625000000000002 0.095 0.31 0.1625 0.48175 0.1925 0.17174999999999999 0.0325 0.348 0.03 0.5185 -0.0075 0.17075 -0.0375 0.33225 -0.10749999999999998 0.47524999999999995 -0.20750000000000002 0.14325 -0.1 0.26525 -0.22749999999999998 0.35874999999999996 -0.375 15.0955 -23.822499999999998 28.1935 -48.8525 39.16 -74.83500000000001 1.6300000000000001 10.142500000000002 5.452500000000001 33.2025 7.029999999999999 36.725 0.125 0.22749999999999998 0.29600000000000004 0.42500000000000004 0.50225 0.5850000000000001 0.20625000000000002 0.1575 0.443 0.27 0.69525 0.33 5.717499999999999 0.9025 74.235 -74.75 78.4125 -79.33l36 55.19c9.045 27.1125 18.487499999999997 48.715 18.6575 49.1 0.1475 0.3075 0.41000000000000003 0.5475 0.7324999999999999 0.665 0.32 0.1175 0.675 0.10749999999999998 0.9875 -0.03 0.3125 -0.1375 0.56 -0.3925 0.6900000000000001 -0.7074999999999999 0.13 -0.3175 0.1325 -0.6725000000000001 0.005 -0.99 -0.3025 -0.6875 -30.107499999999998 -68.83250000000001 -34.3525 -115.03500000000001 5.28 -1.75 30.3675 -10.645 65.09 -33.0625 3.4000000000000004 5.4475 66.41 104.5725 90.70499999999998 128.75 0.245 0.2475 0.5775 0.39 0.9275 0.395 0.34750000000000003 0.005 0.685 -0.1275 0.9375 -0.3675 2.615 -2.5424999999999995 -2.75 1.88 -51.75 -70.7225 5.6425 1.4324999999999999 11.399999999999999 2.3725 17.205 2.8125 1.5425 0 1.85 -0.29000000000000004 2.0675 -0.5 1.065 -1 2 -1.875 -50.5725 -80.8475 29.827499999999997 -4.362500000000001 94.0625 -13.9675 96.3225 -16.1475 0.155 -0.1625 0.275 -0.355 0.3525 -0.5650000000000001 0.0775 -0.21000000000000002 0.10999999999999999 -0.43499999999999994 0.0975 -0.6575Zm-300.75 -238c2.7950000000000004 1.7100000000000002 11.6525 11.835 19.637500000000003 21.86 -6.37575 0.82175 -12.44675 3.218 -17.665 6.9725 -1.6700000000000002 -12.25 -2.79 -25.7175 -1.975 -28.84l0.0025 0.0075Zm3.675 53.5c5.3267500000000005 -0.912 10.600249999999999 -2.11125 15.7975 -3.5925000000000002 12.5475 -2.42 20.3925 6.4 22.6175 15.542499999999999 2.0625 8.469999999999999 1.02 21.2875 -15.045 20.1025 -6.25 -0.4625 -11.545000000000002 -6.775 -16.75 -12.170000000000002 -4.3774999999999995 -4.5325 -4.355 -4.282500000000001 -4.3925 -4.5325l-2.2275 -15.35Zm-15.8325 15.22c1.1575 -4.987500000000001 4.8325000000000005 -4.3774999999999995 4.5675 -4.3774999999999995 10.975 0 20.2675 21.125 34.129999999999995 23.81 2.6129999999999995 0.6275 5.34075 0.595 7.938 -0.0945s4.981999999999999 -2.0145 6.9395 -3.8555c2.8299999999999996 -2.9275 5.6899999999999995 -8.66 3.25 -19.330000000000002 -2.44 -10.67 -12.059999999999999 -20.162499999999998 -25.695 -17.555 -9.459999999999999 1.8125 -20.5475 6.3725 -23.3025 1.98 -1.3850000000000002 -2.2075 -4.25 -17.3475 20.485000000000003 -24.08 23.2 -6.3125 35.394999999999996 12.5275 35.877500000000005 13.32 0.13849999999999998 0.22525 0.3415 0.40399999999999997 0.583 0.5125 0.24125000000000002 0.1085 0.5095000000000001 0.14225 0.77025 0.09625 0.2605 -0.04575 0.50125 -0.16875 0.691 -0.35325 0.19 -0.18425 0.32 -0.4215 0.37324999999999997 -0.6805 0.17500000000000002 -0.8674999999999999 4.2225 -21.4725 -4.0975 -39.660000000000004 -6.597499999999999 -14.4125 -13.16 -24.47505 -6.942500000000001 -29.117549999999998C216.07500000000002 14.602450000000001 246.725 27.200000000000003 244.77499999999998 87.365c-0.007 0.28750000000000003 0.08 0.56925 0.24774999999999997 0.80275 0.16799999999999998 0.23349999999999999 0.40750000000000003 0.40575 0.6822499999999999 0.49075 0.27475 0.085 0.56975 0.07775 0.8400000000000001 -0.0205 0.27025 -0.098 0.50125 -0.28175 0.6575 -0.523 5.147500000000001 -9.04275 7.5625 -19.38475 6.952500000000001 -29.7725 -0.705 -13.34 -3.4175 -30.362499999999997 1.1300000000000001 -33.82255 4.1499999999999995 -3.160025 8.9025 2.7275500000000004 10.9775 6.602550000000001 7.445 13.8975 10.6875 41.71 2.4775 67.97500000000001 -0.075 0.23675000000000002 -0.08 0.48974999999999996 -0.0175 0.72975 0.065 0.24 0.195 0.4575 0.375 0.627 0.1825 0.16975 0.40750000000000003 0.28475 0.65 0.33225 0.245 0.0475 0.495 0.025249999999999998 0.7274999999999999 -0.064 0.36 -0.14 8.844999999999999 -3.655 10.6725 -23.63 0.075 -0.8075 0 -11.75 2.7300000000000004 -13.03 2.595 -1.22 4.680000000000001 0.5 6.3 2.6675 2.0625 2.7725 6.535 11.0475 3.5675 27.970000000000002 -2.105 12 -9.145 30.517500000000002 -30.75 50.652499999999996 -0.15 0.14024999999999999 -0.265 0.313 -0.3375 0.50525 -0.07 0.19224999999999998 -0.0975 0.39825 -0.075 0.60225 1.0374999999999999 8.434000000000001 2.685 16.78225 4.9225 24.980000000000004 -8.629999999999999 1.8675 -37.3 7.63 -51.7825 12.69C210.9325 162 208.98 171.345 181.0775 157.5c-20.52 -10.165 -28.67 -29.587500000000002 -26.46 -39.122499999999995l0.0025 0.01Zm-0.72 204.46249999999998c-5.3525 -4.36 -8.665000000000001 -7.25 -8.7675 -7.342499999999999 -0.24375000000000002 -0.21250000000000002 -0.5565 -0.3275 -0.8792500000000001 -0.3225 -0.32275 0.005 -0.6327499999999999 0.1275 -0.87075 0.34500000000000003 -8.81075 9.3225 -17.1295 19.099999999999998 -24.9225 29.29 14.6075 -42.18 20.677500000000002 -64.5275 18 -66.3475 -3.3000000000000003 -2.25 -90.2275 -24.7975 -98.97500000000001 -30.7775 4.734999999999999 -3.11 32.835 -12.61 55.655 -20.325000000000003 50.292500000000004 -17 55.722500000000004 -19.475 55.540000000000006 -21.924999999999997 -0.3375 -4.3225 -41.2975 -51.1 -46.92999999999999 -61.0875 5.6875 1.06 25.65 7.5 40.6325 12.317499999999999 33.75 10.867500000000001 33.8125 10.72 34.43 8.887500000000001 0.30825 -2.4852499999999997 0.2495 -5.002 -0.17500000000000002 -7.47 1.06 0.6125 2.135 1.2175 3.265 1.7774999999999999 28.584999999999997 14.18 28.8525 4.25 33.2875 25 -8.309999999999999 2.085 -12.795000000000002 4.282500000000001 -13.4825 5.859999999999999 -1.1075 2.5424999999999995 1.6525 18.875 1.7999999999999998 19.05 -5.37 9.345 -9.925 27.5 -12.75 40.775 1.775 -20.139999999999997 7.98 -41.2975 -2.25 -40.7975 -10.095 0.35000000000000003 -15.969999999999999 34.865 -17.685 46.68 -0.9797500000000001 -1.34 -2.34475 -2.3499999999999996 -3.913 -2.8949999999999996 -1.56825 -0.5425 -3.265 -0.5974999999999999 -4.8645 -0.1525 -11.94 2.5725 -0.42999999999999994 42.75 0.75 52.705 0.685 5.742500000000001 -3.295 12.212499999999999 -6.8975 16.745l0.0025 0.01Zm2.0324999999999998 1.645c0.545 -0.6225 8.525 -9.945 7.5 -18.71 -0.805 -6.7725 -11.1575 -47.08 -2.82 -49.815 8.07 -2.6500000000000004 10.25 13.605 13.535 20.314999999999998 4.09 8.37 22.325 19.815 17.157500000000002 45.12 -0.07025 0.3425 -0.00175 0.7000000000000001 0.19075000000000003 0.99 0.1925 0.29250000000000004 0.493 0.495 0.8355 0.5650000000000001 0.3425 0.07250000000000001 0.6987500000000001 0.0025 0.99075 -0.19 0.29175 -0.1925 0.49524999999999997 -0.49250000000000005 0.5655 -0.8350000000000001 5.387499999999999 -26.36 -13.387500000000001 -38.94 -17.384999999999998 -46.842499999999994 -1.105 -2.1825 -4.485 -12.92 -5.6025 -15.265 0.1 -0.155 6.3 -46.907500000000006 15.7125 -47.435 7.777500000000001 -0.43499999999999994 -2.25 30.9375 -0.8225 53.9025 0.01875 0.3225 0.156 0.63 0.38575 0.8575 0.2295 0.22999999999999998 0.5355 0.365 0.859 0.3825 0.32375 0.0175 0.6425000000000001 -0.085 0.8952499999999999 -0.28750000000000003 0.25275 -0.20500000000000002 0.42200000000000004 -0.49250000000000005 0.475 -0.8125 2.5300000000000002 -14.905 10.875 -54.7025 19 -59.805 0.254 -0.1975 0.5505 -0.33325 0.86575 -0.39649999999999996 0.3155 -0.06325 0.64125 -0.052500000000000005 0.95175 0.0315 10.125 2.9175 -5.0975 29.544999999999998 -7.385000000000001 62.5 -0.019750000000000004 0.3225 0.08024999999999999 0.6425000000000001 0.28075 0.8975 0.20049999999999998 0.255 0.48750000000000004 0.42500000000000004 0.8065 0.48250000000000004 0.31899999999999995 0.057499999999999996 0.64775 -0.0075 0.9235 -0.1775 0.27575 -0.17 0.47925 -0.43499999999999994 0.57175 -0.745 3.1574999999999998 -10.940000000000001 14.75 -45.835 21.41 -44.325 9.0225 2.045 -9.5275 34.15 -12.364999999999998 51.685 -0.054000000000000006 0.315 0.008499999999999999 0.64 0.17600000000000002 0.9125 0.1675 0.2725 0.42825 0.475 0.7342500000000001 0.5700000000000001 0.30575 0.095 0.63575 0.075 0.92825 -0.05499999999999999 0.29250000000000004 -0.13 0.5275 -0.3625 0.6615 -0.6525000000000001 5.772500000000001 -12.2075 17.7725 -33.695 21.5 -32.3825 5.8175 2.045 -8.612499999999999 26.037499999999998 -14.2775 48.5 -5.869999999999999 23.25 4.415 36.405 -29.387500000000003 58.25 -0.0175 -0.0025 -28.4625 -19.66 -37.87 -27.240000000000002l0.0025 0.01Zm39.95 122.255c-1.7249999999999999 -5.8325000000000005 -5.64 -29.595 -7.16 -39.25 11.399999999999999 -27.0125 17.75 -46.9475 17.865 -47.32 0.0935 -0.2975 0.07925 -0.615 -0.04 -0.9025 -0.11950000000000001 -0.28750000000000003 -0.3365 -0.5225 -0.6125 -0.665 -3.16 -1.635 -6.375 -3.4625 -9.592500000000001 -5.387499999999999 5.53825 -3.41 10.6515 -7.465000000000001 15.2325 -12.0825l13.0625 77.66250000000001c-13.834999999999999 14.4225 -25.240000000000002 25.767500000000002 -28.755000000000003 27.945Zm98.485 -90.37750000000001c-0.29000000000000004 0.085 -0.5425 0.27 -0.715 0.52 -0.17 0.25 -0.25 0.5525 -0.22249999999999998 0.8550000000000001 1.5 17.8275 6.870000000000001 39 12.9525 58.39750000000001L274.6975 367.5c-0.11249999999999999 -0.1675 -0.26 -0.3075 -0.4325 -0.41250000000000003 -0.17250000000000001 -0.10250000000000001 -0.3675 -0.165 -0.5675 -0.1825 -1.7349999999999999 -0.1675 -0.915 1.5375 -46.83500000000001 49.574999999999996l-13.0325 -77.84c8.067499999999999 -9.6375 8.807500000000001 -18.5175 9.59 -28.2925 1.2075 -15.1375 3 -21.345 11.195 -41.71 5 -12.435 8.9275 -21.75 4.75 -25.4875 -5.5175 -4.9275 -14.5 11.375 -19.705 21.02 5.75 -16.3425 17.4525 -39.25 6.895 -41.815 -8.5275 -2.0725 -16.1325 20.28 -20.3675 32.574999999999996 4.655 -27 15.7225 -48.8375 3.75 -51.22 -1.251 -0.121 -2.51125 0.10099999999999999 -3.64525 0.6425000000000001 -1.13425 0.54125 -2.0995 1.38125 -2.79225 2.4299999999999997 -0.98875 -4.9025 -1.46625 -9.89425 -1.4249999999999998 -14.895 -0.1175 -2.9749999999999996 75.3875 -22.115000000000002 77.115 -18.61 1.975 1.9525000000000001 10.6125 28.0775 15.1175 42.824999999999996 -7.25 2.6725 -4.455 12.737499999999999 -2.9699999999999998 20.172500000000003 1.1525 5.7675 2.415 15 3.3875 22.54 -3.375 -9.0325 -8.2 -20.072499999999998 -12.21 -22 -0.4 -0.2105 -0.8400000000000001 -0.33325 -1.29 -0.36 -0.44999999999999996 -0.02675 -0.8999999999999999 0.04325 -1.3225 0.20500000000000002 -6.1875 2.45 -2.56 15.3675 2.0349999999999997 31.720000000000002 6.677499999999999 23.777499999999996 6.535 25.419999999999998 5.8725000000000005 35.4075 -0.885 7.6625 -0.35000000000000003 15.425 1.5825 22.8925 3.4875 12.102500000000001 13.674999999999999 21.862499999999997 17.3125 25.049999999999997 -7.7700000000000005 3.24 -12.23 4.6075 -12.337499999999999 4.640000000000001v0.0025Zm15.045 -5.775c-1.7974999999999999 -1.5 -13.827499999999999 -11.907499999999999 -17.5 -24.634999999999998 -1.8375 -7.1775 -2.3400000000000003 -14.63 -1.4849999999999999 -21.9875 0.6775 -10.2075 0.9025 -11.8475 -5.965 -36.295 -3.5549999999999997 -12.645 -7.5825 -26.98 -3.605 -28.555 0.05 -0.0175 0.1825 -0.07 0.5 0.0825 4.165 2 11.370000000000001 20.895000000000003 14.9325 32.34 0.0975 0.315 0.3075 0.5825 0.5925 0.75 0.28250000000000003 0.165 0.6174999999999999 0.21999999999999997 0.94 0.1525 0.3225 -0.0675 0.6074999999999999 -0.255 0.8 -0.5225 0.19 -0.2675 0.275 -0.5974999999999999 0.235 -0.925 -0.027499999999999997 -0.2375 -2.725 -24.0775 -4.952500000000001 -35.235 -1.6275 -8.145 -3.9450000000000003 -16.3375 2.4125 -17.5 0.20500000000000002 -0.026 0.41500000000000004 -0.0065 0.6125 0.057 0.1975 0.0635 0.3775 0.16949999999999998 0.53 0.3105 6.1450000000000005 4.57 11.094999999999999 37.302499999999995 12.485 49.53 0.035 0.3275 0.1925 0.6325000000000001 0.4425 0.8500000000000001 0.2475 0.21749999999999997 0.5700000000000001 0.3325 0.8999999999999999 0.325 0.33 -0.0075 0.645 -0.14 0.8825 -0.37 0.2375 -0.22999999999999998 0.38 -0.54 0.4 -0.8699999999999999 1.02 -14.01 1.2475 -28.065 0.68 -42.1 -0.5700000000000001 -9.06 -1.0675 -16.8825 1.5274999999999999 -19.7875 0.375 -0.40825 0.8325 -0.7324999999999999 1.34 -0.95225 0.51 -0.21975 1.0574999999999999 -0.32975 1.6125 -0.32275 0.2 0.0045 0.4 0.051500000000000004 0.5800000000000001 0.1375 0.1825 0.08625000000000001 0.34500000000000003 0.20975 0.475 0.3625 6.13 5.75 8.0775 44.57 8.3125 59.0475 0.005 0.315 0.1225 0.6174999999999999 0.33 0.8525 0.20750000000000002 0.2375 0.495 0.39 0.8075 0.4325 0.31 0.045 0.6275 -0.025 0.8925 -0.195 0.265 -0.17 0.45999999999999996 -0.42999999999999994 0.55 -0.7324999999999999 0.2725 -0.8975 6.6000000000000005 -22.152500000000003 4.7875 -36.56 -1.3425 -10.707500000000001 -1.4375 -17.4825 2.25 -18.18 0.5675 -0.065 1.1425 0.0072499999999999995 1.6775000000000002 0.21075 0.5325 0.20375000000000001 1.01 0.5327500000000001 1.3900000000000001 0.9592499999999999 4.8825 4.5175 9.315 21.197499999999998 5.75 53.3425 0 0.0625 0.0075 0.125 0.0175 0.1875 -3.8375 7.4624999999999995 -7.0925 14.982500000000002 -16.0875 21.717499999999998 -25.162499999999998 18.8625 -20.764999999999997 31.5325 -20.565 32.0625 0.12 0.3275 0.3675 0.595 0.685 0.74 0.1575 0.07250000000000001 0.3275 0.11249999999999999 0.5 0.12 0.17250000000000001 0.0075 0.34500000000000003 -0.02 0.5075000000000001 -0.08s0.3125 -0.1525 0.4375 -0.27c0.1275 -0.11499999999999999 0.22999999999999998 -0.2575 0.3025 -0.41500000000000004 0.07250000000000001 -0.1575 0.11249999999999999 -0.3275 0.12 -0.5 0.0075 -0.17250000000000001 -0.02 -0.34500000000000003 -0.08 -0.5075000000000001 -0.04 -0.11249999999999999 -3.6875 -11.5275 19.675 -29.0375 6.8999999999999995 -5.415 12.3325 -12.475000000000001 15.794999999999998 -20.535 2.75 -5.515 7.2075 -13.1625 13.825000000000001 -10.065 0.3825 0.2375 0.6950000000000001 0.5750000000000001 0.9025 0.9750000000000001 0.20750000000000002 0.4 0.3025 0.8500000000000001 0.275 1.3 0.6525000000000001 8.9875 -6.7125 27.34 -9.92 35.565000000000005 -3.1875 8.175 -7.102500000000001 18.355 -3.0275000000000003 34.22 -12.69 7.705 -25.880000000000003 14.552499999999998 -39.4825 20.5025v0.0025Zm58.915 -47.875c-0.21999999999999997 0.0325 -0.42750000000000005 0.12 -0.605 0.2525 -0.1775 0.135 -0.32 0.3125 -0.41000000000000003 0.515 -0.09 0.2025 -0.1275 0.42500000000000004 -0.10999999999999999 0.6475 0.02 0.22249999999999998 0.095 0.43499999999999994 0.21749999999999997 0.62 18.8675 28.337500000000002 46.6 70.5875 51.1275 79 -6.2575 -0.805 -12.467500000000001 -1.9300000000000002 -18.61 -3.37 -37.160000000000004 -55.337500000000006 -36.285 -57.6225 -38 -58.012499999999996 -0.8999999999999999 -0.1975 -0.315 -0.07250000000000001 -10.67 6.25 -3.3225 -13.717500000000001 -0.71 -22.105 3.73 -33.4225 3.04 -7.75 14.2 -35.655 7.195 -39.33 -6.385 -3.3525 -11.857500000000002 1.4775 -13.5425 3.725 3.3425 -37.2725 -4.5 -47.885 -7.085 -50.279999999999994 -0.6725000000000001 -0.7205 -1.5125 -1.26375 -2.4475 -1.582 -0.9325 -0.31825 -1.9300000000000002 -0.40175000000000005 -2.9025 -0.243 -6.34 1.1975 -5.7299999999999995 10.265 -4.37 21.0975 1.02 8.115 -0.75 18.82 -2.3925 26.34 -0.64 -15.862499999999999 -2.6624999999999996 -45.625 -8.865 -51.4375 -0.385 -0.4025 -0.8525 -0.7184999999999999 -1.37 -0.92675 -0.5175 -0.208 -1.0725 -0.30374999999999996 -1.6300000000000001 -0.28075 -9.702499999999999 0.475 -7.5 15.3425 -6.8325000000000005 26.25 0.43499999999999994 6.952500000000001 0.2025 17.075 -0.11499999999999999 25.317500000000003 -2.1925 -13.8625 -6.157500000000001 -33.28 -11.6075 -37.33 -0.615 -0.45375 -1.34 -0.732 -2.1 -0.805 -1.8199999999999998 -5.97 -13.185 -42.912499999999994 -16.365000000000002 -44.667500000000004 -2.2875 -1.25 -7.835 -0.5525 -10.4725 -0.11249999999999999 -2.1725 -7.914750000000001 -3.7800000000000002 -15.97325 -4.8149999999999995 -24.115000000000002 5.6025 -5.227 10.7225 -10.947499999999998 15.3 -17.0925 2.6325 9.8225 3.69 10.387500000000001 4.154999999999999 10.6325 1.035 0.5525 1.0875 0.56 29.9825 -16.2175 21.4475 -12.450000000000001 56.36 -32.7175 64.0325 -35.555 -1.6375000000000002 5.75 -10.845 26.955 -18.387500000000003 44.31 -19.705 45.36 -21.5 50.69499999999999 -20.075 52.25 2.75 3 72.315 -5.1825 86.365 -4.63 -9.8875 9.9525 -51.71 45.61 -51.7275 48.5 0.005 0.388 0.1625 0.758 0.43999999999999995 1.03 1.1975 1.115 78.6525 48.525 88.6775 57.25 -9.435 2.45 -60.9875 10.355 -95.715 15.42v0.0025Z" stroke-width="1"></path><path id="vector_15" fill="#501200" d="M234.1525 361.15999999999997c-0.31899999999999995 0 -0.627 -0.11499999999999999 -0.867 -0.3275 -0.24 -0.21000000000000002 -0.39575 -0.5 -0.438 -0.8150000000000001 -0.6675 -4.9399999999999995 -0.8300000000000001 -10.927500000000002 -0.8375 -11.180000000000001 -0.0045 -0.17250000000000001 0.025 -0.34500000000000003 0.087 -0.5075000000000001 0.06225 -0.1625 0.1555 -0.31 0.27475 -0.43499999999999994 0.11950000000000001 -0.1275 0.2625 -0.22749999999999998 0.42075 -0.2975 0.1585 -0.07250000000000001 0.32925000000000004 -0.10999999999999999 0.5025000000000001 -0.11499999999999999 0.17325000000000002 -0.005 0.346 0.025 0.50775 0.08750000000000001 0.16199999999999998 0.0625 0.31 0.155 0.436 0.275 0.12575 0.1175 0.22675 0.2625 0.2975 0.42000000000000004 0.0705 0.1575 0.10925000000000001 0.33 0.11374999999999999 0.5025000000000001 0 0.0625 0.1625 6.102499999999999 0.81 10.8975 0.025249999999999998 0.1875 0.010499999999999999 0.375 -0.043750000000000004 0.5575 -0.054000000000000006 0.18 -0.146 0.34500000000000003 -0.27 0.48750000000000004 -0.124 0.14250000000000002 -0.27675 0.255 -0.448 0.3325 -0.17149999999999999 0.0775 -0.3575 0.1175 -0.54575 0.1175Z" stroke-width="1"></path><path id="vector_16" fill="#501200" d="M241.48250000000002 353.1875c-0.31899999999999995 0 -0.627 -0.11499999999999999 -0.867 -0.325 -0.24 -0.21250000000000002 -0.39575 -0.5025000000000001 -0.438 -0.8175 -0.44999999999999996 -3.3175 -0.8475 -9.682500000000001 -0.8624999999999999 -9.955 -0.01125 -0.17250000000000001 0.011999999999999999 -0.34500000000000003 0.06775 -0.51 0.056 -0.1625 0.14375000000000002 -0.315 0.2585 -0.44499999999999995 0.1145 -0.1275 0.2535 -0.235 0.409 -0.31 0.1555 -0.075 0.3245 -0.12 0.49724999999999997 -0.13 0.34750000000000003 -0.015 0.6875 0.10500000000000001 0.94825 0.335s0.42174999999999996 0.5525 0.44925 0.8999999999999999c0 0.0625 0.41000000000000003 6.5375000000000005 0.8475 9.75 0.0265 0.1875 0.0125 0.3775 -0.04125 0.56 -0.05374999999999999 0.1825 -0.14575 0.35000000000000003 -0.27 0.49250000000000005 -0.12425 0.14250000000000002 -0.27775 0.2575 -0.44999999999999996 0.335 -0.17225000000000001 0.08 -0.35950000000000004 0.12 -0.54875 0.12Z" stroke-width="1"></path><path id="vector_17" fill="#501200" d="m345.6025 391.75 3.0225 -8.5c0.12 -0.325 0.365 -0.5874999999999999 0.6775 -0.735 0.315 -0.14500000000000002 0.6725000000000001 -0.1625 0.9975 -0.0475 0.3275 0.1175 0.595 0.3575 0.745 0.6675 0.15 0.3125 0.17250000000000001 0.67 0.0625 0.9975l-3.02 8.5c-0.1275 0.315 -0.3725 0.5675 -0.6825000000000001 0.705 -0.31 0.1375 -0.66 0.1525 -0.98 0.04 -0.32 -0.11499999999999999 -0.5850000000000001 -0.34750000000000003 -0.7374999999999999 -0.65 -0.1525 -0.3025 -0.1825 -0.6525000000000001 -0.085 -0.9775Z" stroke-width="1"></path><path id="vector_18" fill="#501200" d="M351.88 350.0725c-0.28750000000000003 -0.1575 -0.505 -0.41750000000000004 -0.6125 -0.7274999999999999 -0.10749999999999998 -0.31 -0.095 -0.6475 0.035 -0.95 0.13 -0.3 0.365 -0.5425 0.665 -0.68 0.2975 -0.135 0.635 -0.1575 0.9475 -0.057499999999999996l8.5825 2.7975c0.305 0.13 0.5475 0.3675 0.685 0.6675 0.1375 0.3025 0.155 0.6425000000000001 0.052500000000000005 0.9575 -0.10250000000000001 0.315 -0.32 0.5775 -0.6074999999999999 0.74 -0.28750000000000003 0.1625 -0.625 0.21000000000000002 -0.9475 0.135 -7.930000000000001 -2.5700000000000003 -8.545 -2.745 -8.8 -2.8825000000000003Z" stroke-width="1"></path><path id="vector_19" fill="#501200" d="M368.615 436.66499999999996c0.3625 -0.10500000000000001 -0.12 -0.10749999999999998 9.4825 0.98 0.17250000000000001 0.02 0.3375 0.07250000000000001 0.49 0.1575 0.1525 0.0825 0.28500000000000003 0.1975 0.3925 0.3325 0.10749999999999998 0.135 0.1875 0.29000000000000004 0.235 0.4575 0.0475 0.1675 0.0625 0.34 0.0425 0.5125 -0.02 0.17250000000000001 -0.07250000000000001 0.3375 -0.1575 0.49 -0.0825 0.1525 -0.1975 0.28500000000000003 -0.3325 0.3925 -0.135 0.10749999999999998 -0.29000000000000004 0.1875 -0.4575 0.235 -0.165 0.0475 -0.34 0.0625 -0.5125 0.0425l-8.965 -1.0225c-0.3025 -0.035 -0.5825 -0.17500000000000002 -0.795 -0.3925 -0.21000000000000002 -0.21999999999999997 -0.34 -0.505 -0.365 -0.8075 -0.027499999999999997 -0.3025 0.052500000000000005 -0.605 0.22499999999999998 -0.8575 0.17250000000000001 -0.25 0.42500000000000004 -0.43499999999999994 0.7174999999999999 -0.52Z" stroke-width="1"></path><path id="vector_20" fill="#501200" d="M309.0525 370.83750000000003c0.0075 -0.19 0.05499999999999999 -0.3775 0.14250000000000002 -0.5475 0.085 -0.17250000000000001 0.20750000000000002 -0.3225 0.3575 -0.43999999999999995 0.15 -0.12 0.3225 -0.20500000000000002 0.5075000000000001 -0.25 0.1875 -0.045 0.38 -0.05 0.5675 -0.0125l8.855 1.75c0.34 0.07250000000000001 0.64 0.275 0.8350000000000001 0.5650000000000001 0.1925 0.28750000000000003 0.265 0.6425000000000001 0.2025 0.9850000000000001 -0.0675 0.3425 -0.27 0.645 -0.56 0.8400000000000001 -0.29000000000000004 0.195 -0.6475 0.2675 -0.99 0.2l-8.8525 -1.75c-0.3075 -0.06 -0.5825 -0.22999999999999998 -0.7775 -0.475 -0.195 -0.245 -0.2975 -0.5525 -0.28750000000000003 -0.865Z" stroke-width="1"></path><path id="vector_21" fill="#501200" d="M415.3475 445.11249999999995c0.0675 -0.1875 0.18 -0.3575 0.3225 -0.495 0.14500000000000002 -0.14 0.3175 -0.245 0.5075000000000001 -0.3075 0.19 -0.0625 0.39 -0.08 0.5874999999999999 -0.052500000000000005 0.2 0.025 0.3875 0.0975 0.555 0.20750000000000002l7.52 5c0.1475 0.095 0.275 0.21749999999999997 0.3725 0.3625 0.1 0.14250000000000002 0.17 0.305 0.20500000000000002 0.47750000000000004 0.0375 0.17250000000000001 0.0375 0.34750000000000003 0.005 0.52 -0.0325 0.17250000000000001 -0.1 0.335 -0.1975 0.48250000000000004 -0.0975 0.14500000000000002 -0.22249999999999998 0.27 -0.3675 0.3675 -0.1475 0.095 -0.31 0.1625 -0.48250000000000004 0.195 -0.17250000000000001 0.035 -0.34750000000000003 0.0325 -0.52 -0.0025 -0.17 -0.0375 -0.3325 -0.10500000000000001 -0.47750000000000004 -0.20500000000000002l-7.52 -5c-0.245 -0.165 -0.42999999999999994 -0.405 -0.5225 -0.6875 -0.0925 -0.28 -0.08750000000000001 -0.5850000000000001 0.0125 -0.8624999999999999Z" stroke-width="1"></path><path id="vector_22" fill="#501200" d="M390.15999999999997 398.5625c0.355 0.6375 0.3625 0.10250000000000001 -2.25 9.695 -0.045 0.1675 -0.1225 0.325 -0.22749999999999998 0.46499999999999997 -0.10500000000000001 0.1375 -0.2375 0.2525 -0.39 0.34 -0.15 0.08750000000000001 -0.315 0.14250000000000002 -0.49 0.165 -0.17250000000000001 0.0225 -0.34750000000000003 0.0125 -0.515 -0.035 -0.1675 -0.045 -0.325 -0.1225 -0.4625 -0.22999999999999998 -0.1375 -0.10749999999999998 -0.2525 -0.24 -0.3375 -0.39 -0.08750000000000001 -0.1525 -0.14250000000000002 -0.32 -0.1625 -0.49250000000000005 -0.0225 -0.17250000000000001 -0.01 -0.34750000000000003 0.0375 -0.515l2.3674999999999997 -8.7075c0.0675 -0.255 0.21000000000000002 -0.48250000000000004 0.41000000000000003 -0.655 0.1975 -0.17250000000000001 0.44499999999999995 -0.28 0.705 -0.3125 0.2625 -0.03 0.5275 0.015 0.76 0.135 0.235 0.12 0.42750000000000005 0.3075 0.555 0.5375Z" stroke-width="1"></path><path id="vector_23" fill="#501200" d="M336.5 423.875c0.1875 0.0675 0.3575 0.1775 0.49750000000000005 0.3225 0.1375 0.14250000000000002 0.2425 0.315 0.305 0.505 0.0625 0.19 0.0825 0.39 0.057499999999999996 0.5874999999999999 -0.027499999999999997 0.2 -0.0975 0.3875 -0.20750000000000002 0.555l-4.9725 7.5325c-0.0925 0.1525 -0.21250000000000002 0.28500000000000003 -0.3575 0.39 -0.14500000000000002 0.10250000000000001 -0.3075 0.1775 -0.48250000000000004 0.21749999999999997 -0.17250000000000001 0.0375 -0.3525 0.0425 -0.5275 0.01 -0.17500000000000002 -0.0325 -0.3425 -0.1 -0.49250000000000005 -0.1975 -0.1475 -0.0975 -0.275 -0.22499999999999998 -0.3725 -0.375 -0.0975 -0.1475 -0.165 -0.315 -0.1975 -0.49 -0.0325 -0.17500000000000002 -0.027499999999999997 -0.355 0.0125 -0.5275 0.04 -0.17500000000000002 0.11249999999999999 -0.3375 0.21749999999999997 -0.48250000000000004l4.9725 -7.5325c0.1625 -0.2475 0.405 -0.42999999999999994 0.685 -0.525 0.28 -0.0925 0.5850000000000001 -0.09 0.8624999999999999 0.01Z" stroke-width="1"></path><path id="vector_24" fill="#501200" d="M351.7975 466.61749999999995c0.0675 -0.1875 0.18 -0.3575 0.3225 -0.495 0.14500000000000002 -0.14 0.3175 -0.245 0.5075000000000001 -0.3075 0.19 -0.0625 0.39 -0.08 0.5874999999999999 -0.052500000000000005 0.2 0.025 0.3875 0.0975 0.555 0.20750000000000002l7.52 5c0.1475 0.095 0.275 0.21749999999999997 0.3725 0.3625 0.1 0.14500000000000002 0.17 0.3075 0.20500000000000002 0.47750000000000004 0.0375 0.17250000000000001 0.0375 0.34750000000000003 0.005 0.52 -0.0325 0.17250000000000001 -0.1 0.335 -0.1975 0.48250000000000004 -0.0975 0.14500000000000002 -0.22249999999999998 0.27 -0.3675 0.3675 -0.1475 0.095 -0.31 0.1625 -0.48250000000000004 0.1975 -0.17 0.0325 -0.34750000000000003 0.03 -0.52 -0.005 -0.17 -0.035 -0.3325 -0.10500000000000001 -0.47750000000000004 -0.20500000000000002l-7.52 -5c-0.245 -0.165 -0.42999999999999994 -0.405 -0.5225 -0.6875 -0.0925 -0.28 -0.08750000000000001 -0.5850000000000001 0.0125 -0.8624999999999999Z" stroke-width="1"></path><path id="vector_25" fill="#501200" d="M65.7125 448.05999999999995c-0.0005 -0.56 0.165 -1.1075 0.47550000000000003 -1.5725s0.752 -0.8275 1.2687499999999998 -1.0425c0.51675 -0.21499999999999997 1.0855 -0.27 1.6342499999999998 -0.16 0.54875 0.10749999999999998 1.0527499999999999 0.3775 1.44825 0.7725 0.39575 0.395 0.665 0.8999999999999999 0.774 1.45 0.109 0.5475 0.052750000000000005 1.115 -0.1615 1.6325 -0.21425 0.5175 -0.577 0.96 -1.0425 1.27 -0.46524999999999994 0.31 -1.0122499999999999 0.475 -1.5717500000000002 0.475 -0.7489999999999999 0 -1.46725 -0.2975 -1.99675 -0.8275 -0.52975 -0.53 -0.8275 -1.2475 -0.8282499999999999 -1.9975Z" stroke-width="1"></path><path id="vector_26" fill="#501200" d="M110.98 445.23249999999996c0 -0.56 0.166 -1.1075 0.47675 -1.5725 0.31074999999999997 -0.46499999999999997 0.7525 -0.8275 1.26925 -1.04 0.51675 -0.21499999999999997 1.0855 -0.27 1.634 -0.16 0.5485 0.10749999999999998 1.0525 0.3775 1.4477499999999999 0.775 0.39525 0.395 0.6645 0.8975 0.77325 1.4474999999999998 0.10874999999999999 0.5475 0.052500000000000005 1.1175 -0.16199999999999998 1.6325 -0.21425 0.5175 -0.57725 0.96 -1.0425 1.27s-1.0122499999999999 0.475 -1.5715000000000001 0.475c-0.37124999999999997 0 -0.73875 -0.07250000000000001 -1.08175 -0.21499999999999997 -0.34275 -0.14250000000000002 -0.65425 -0.35000000000000003 -0.9167500000000001 -0.6125 -0.26225 -0.2625 -0.47024999999999995 -0.5750000000000001 -0.61225 -0.9175 -0.14175 -0.34500000000000003 -0.2145 -0.7124999999999999 -0.21425 -1.0825Z" stroke-width="1"></path><path id="vector_27" fill="#501200" d="M101.3075 399.1875c-0.0005 -0.56 0.165 -1.1075 0.47524999999999995 -1.5725 0.3105 -0.46499999999999997 0.75175 -0.8275 1.2685 -1.0425 0.5165 -0.21250000000000002 1.08525 -0.27 1.63375 -0.16 0.54875 0.10749999999999998 1.0527499999999999 0.3775 1.4485000000000001 0.7725 0.39575 0.395 0.66525 0.8999999999999999 0.7745000000000001 1.4474999999999998 0.10925000000000001 0.5475 0.0535 1.1175 -0.16049999999999998 1.635 -0.214 0.515 -0.57625 0.9575 -1.04125 1.2675 -0.46524999999999994 0.3125 -1.012 0.47750000000000004 -1.5712499999999998 0.47750000000000004 -0.7492500000000001 0 -1.4677499999999999 -0.2975 -1.9977500000000001 -0.8275 -0.53 -0.53 -0.8284999999999999 -1.2475 -0.82975 -1.9975Z" stroke-width="1"></path><path id="vector_28" fill="#501200" d="M153.315 430.71c0 -0.56 0.16575 -1.105 0.4765 -1.57s0.75225 -0.8275 1.2690000000000001 -1.0425c0.5165 -0.21499999999999997 1.08525 -0.27 1.6335 -0.16 0.5485 0.10749999999999998 1.0525 0.3775 1.4477499999999999 0.7725 0.3955 0.395 0.6647500000000001 0.8999999999999999 0.774 1.4474999999999998 0.109 0.55 0.053 1.1175 -0.161 1.635 -0.214 0.515 -0.5765 0.9575 -1.04125 1.2675 -0.46499999999999997 0.3125 -1.01175 0.47750000000000004 -1.571 0.47750000000000004 -0.74975 0 -1.4685000000000001 -0.3 -1.9985 -0.8300000000000001 -0.53025 -0.53 -0.8282499999999999 -1.2475 -0.829 -1.9975Z" stroke-width="1"></path><path id="vector_29" fill="#501200" d="M143.8675 385.105c-0.0005 -0.56 0.165 -1.1075 0.47524999999999995 -1.5725 0.3105 -0.46499999999999997 0.75175 -0.8275 1.2685 -1.0425 0.5165 -0.21250000000000002 1.08525 -0.27 1.63375 -0.16 0.54875 0.10749999999999998 1.0527499999999999 0.3775 1.4485000000000001 0.7725 0.39575 0.395 0.66525 0.8975 0.7745000000000001 1.4474999999999998 0.10925000000000001 0.5475 0.0535 1.1175 -0.16049999999999998 1.6325 -0.214 0.5175 -0.57625 0.96 -1.04125 1.27 -0.46524999999999994 0.3125 -1.012 0.47750000000000004 -1.5712499999999998 0.47750000000000004 -0.7492500000000001 0 -1.4677499999999999 -0.2975 -1.9977500000000001 -0.8275 -0.53 -0.53 -0.8284999999999999 -1.2475 -0.82975 -1.9975Z" stroke-width="1"></path><path id="vector_30" fill="#501200" d="M181.20999999999998 371.75c0 -0.56 0.166 -1.105 0.47675 -1.57 0.31074999999999997 -0.46499999999999997 0.7525 -0.8275 1.26925 -1.0425 0.51675 -0.21499999999999997 1.0855 -0.27 1.634 -0.16 0.5485 0.10749999999999998 1.0525 0.3775 1.4477499999999999 0.775 0.39525 0.395 0.6645 0.8975 0.77325 1.4474999999999998 0.10874999999999999 0.5475 0.052500000000000005 1.1175 -0.16199999999999998 1.6325 -0.21425 0.5175 -0.57725 0.96 -1.0425 1.27s-1.0122499999999999 0.475 -1.5715000000000001 0.475c-0.37124999999999997 0 -0.73875 -0.07250000000000001 -1.08175 -0.21499999999999997 -0.34275 -0.14250000000000002 -0.65425 -0.35000000000000003 -0.9167500000000001 -0.6125 -0.26225 -0.2625 -0.47024999999999995 -0.5750000000000001 -0.61225 -0.9175 -0.14175 -0.34500000000000003 -0.2145 -0.7124999999999999 -0.21425 -1.0825Z" stroke-width="1"></path><path id="vector_31" fill="#501200" d="M141.04250000000002 347.485c-0.0005 -0.56 0.165 -1.1075 0.47550000000000003 -1.5725s0.752 -0.8275 1.2687499999999998 -1.0425c0.51675 -0.21499999999999997 1.0855 -0.27 1.6342499999999998 -0.16 0.54875 0.10749999999999998 1.0527499999999999 0.3775 1.44825 0.7725 0.39575 0.395 0.665 0.8999999999999999 0.774 1.45 0.109 0.5475 0.052750000000000005 1.1175 -0.1615 1.6325 -0.21425 0.5175 -0.577 0.96 -1.0425 1.27 -0.46524999999999994 0.31 -1.0122499999999999 0.475 -1.5717500000000002 0.475 -0.7489999999999999 0 -1.46725 -0.2975 -1.99675 -0.8275 -0.52975 -0.53 -0.8275 -1.2475 -0.8282499999999999 -1.9975Z" stroke-width="1"></path></g></g></svg>